InterAlia-Light.ufo
<glyph name="exclam" format="2">
  <advance height="2479.0" width="558.3333333333334"/>
  <unicode hex="0021"/>
  <outline>
    <contour>
      <point x="353.0" y="1489.0" type="line"/>
      <point x="205.33333333333334" y="1489.0" type="line"/>
      <point x="215.33333333333334" y="426.6666666666667" type="line"/>
      <point x="343.0" y="426.6666666666667" type="line"/>
    </contour>
    <component base="period" xOffset="5.0"/>
  </outline>
</glyph>
<glyph name="numbersign" format="2">
  <advance height="2479.0" width="1293.6666666666667"/>
  <unicode hex="0023"/>
  <outline>
    <contour>
      <point x="730.3333333333334" y="0.0" type="line"/>
      <point x="842.6666666666666" y="0.0" type="line"/>
      <point x="1087.3333333333333" y="1489.0" type="line"/>
      <point x="974.3333333333334" y="1489.0" type="line"/>
    </contour>
    <contour>
      <point x="39.0" y="429.6666666666667" type="line"/>
      <point x="1150.0" y="429.6666666666667" type="line"/>
      <point x="1168.3333333333333" y="542.3333333333334" type="line"/>
      <point x="57.0" y="542.3333333333334" type="line"/>
    </contour>
    <contour>
      <point x="206.33333333333334" y="0.0" type="line"/>
      <point x="319.3333333333333" y="0.0" type="line"/>
      <point x="563.3333333333334" y="1489.0" type="line"/>
      <point x="450.6666666666667" y="1489.0" type="line"/>
    </contour>
    <contour>
      <point x="125.0" y="947.3333333333334" type="line"/>
      <point x="1236.0" y="947.3333333333334" type="line"/>
      <point x="1255.0" y="1059.6666666666667" type="line"/>
      <point x="143.33333333333334" y="1059.6666666666667" type="line"/>
    </contour>
  </outline>
</glyph>
<glyph name="dollar" format="2">
  <advance height="2479.0" width="1288.6666666666667"/>
  <unicode hex="0024"/>
  <anchor x="646.0" y="-25.0" name="bottom"/>
  <anchor x="646.0" y="0.0" name="cedilla"/>
  <anchor x="644.0" y="1676.0" name="top"/>
  <outline>
    <contour>
      <point x="597.0" y="-186.0" type="line"/>
      <point x="692.6666666666666" y="-186.0" type="line"/>
      <point x="692.6666666666666" y="1676.0" type="line"/>
      <point x="597.0" y="1676.0" type="line"/>
    </contour>
    <component base="S"/>
  </outline>
</glyph>
<glyph name="percent" format="2">
  <advance height="2479.0" width="1637.0"/>
  <unicode hex="0025"/>
  <anchor x="1045.3333333333333" y="791.0" name="dnom"/>
  <anchor x="579.6666666666666" y="698.0" name="numr"/>
  <outline>
    <contour>
      <point x="919.0" y="276.3333333333333" type="line" smooth="yes"/>
      <point x="919.0" y="109.66666666666667"/>
      <point x="1022.3333333333334" y="-20.0"/>
      <point x="1194.3333333333333" y="-20.0" type="curve" smooth="yes"/>
      <point x="1365.0" y="-20.0"/>
      <point x="1468.0" y="109.66666666666667"/>
      <point x="1468.0" y="276.3333333333333" type="curve" smooth="yes"/>
      <point x="1468.0" y="344.3333333333333" type="line" smooth="yes"/>
      <point x="1468.0" y="511.0"/>
      <point x="1366.3333333333333" y="640.6666666666666"/>
      <point x="1194.3333333333333" y="640.6666666666666" type="curve" smooth="yes"/>
      <point x="1024.3333333333333" y="640.6666666666666"/>
      <point x="919.0" y="511.0"/>
      <point x="919.0" y="344.3333333333333" type="curve" smooth="yes"/>
    </contour>
    <contour>
      <point x="1033.6666666666667" y="344.3333333333333" type="line" smooth="yes"/>
      <point x="1033.6666666666667" y="453.6666666666667"/>
      <point x="1090.0" y="541.6666666666666"/>
      <point x="1194.3333333333333" y="541.6666666666666" type="curve" smooth="yes"/>
      <point x="1301.6666666666667" y="541.6666666666666"/>
      <point x="1353.6666666666667" y="453.6666666666667"/>
      <point x="1353.6666666666667" y="344.3333333333333" type="curve" smooth="yes"/>
      <point x="1353.6666666666667" y="276.3333333333333" type="line" smooth="yes"/>
      <point x="1353.6666666666667" y="166.66666666666666"/>
      <point x="1299.6666666666667" y="78.66666666666667"/>
      <point x="1194.3333333333333" y="78.66666666666667" type="curve" smooth="yes"/>
      <point x="1088.0" y="78.66666666666667"/>
      <point x="1033.6666666666667" y="166.66666666666666"/>
      <point x="1033.6666666666667" y="276.3333333333333" type="curve" smooth="yes"/>
    </contour>
    <contour>
      <point x="169.0" y="1145.3333333333333" type="line" smooth="yes"/>
      <point x="169.0" y="979.0"/>
      <point x="271.6666666666667" y="848.3333333333334"/>
      <point x="444.3333333333333" y="848.3333333333334" type="curve" smooth="yes"/>
      <point x="614.3333333333334" y="848.3333333333334"/>
      <point x="718.0" y="979.0"/>
      <point x="718.0" y="1145.3333333333333" type="curve" smooth="yes"/>
      <point x="718.0" y="1213.0" type="line" smooth="yes"/>
      <point x="718.0" y="1379.6666666666667"/>
      <point x="616.3333333333334" y="1510.0"/>
      <point x="444.3333333333333" y="1510.0" type="curve" smooth="yes"/>
      <point x="273.6666666666667" y="1510.0"/>
      <point x="169.0" y="1379.6666666666667"/>
      <point x="169.0" y="1213.0" type="curve" smooth="yes"/>
    </contour>
    <contour>
      <point x="283.0" y="1213.0" type="line" smooth="yes"/>
      <point x="283.0" y="1322.3333333333333"/>
      <point x="339.3333333333333" y="1411.0"/>
      <point x="444.3333333333333" y="1411.0" type="curve" smooth="yes"/>
      <point x="551.0" y="1411.0"/>
      <point x="603.0" y="1322.3333333333333"/>
      <point x="603.0" y="1213.0" type="curve" smooth="yes"/>
      <point x="603.0" y="1145.3333333333333" type="line" smooth="yes"/>
      <point x="603.0" y="1035.3333333333333"/>
      <point x="549.0" y="947.3333333333334"/>
      <point x="444.3333333333333" y="947.3333333333334" type="curve" smooth="yes"/>
      <point x="337.3333333333333" y="947.3333333333334"/>
      <point x="283.0" y="1035.3333333333333"/>
      <point x="283.0" y="1145.3333333333333" type="curve" smooth="yes"/>
    </contour>
    <component base="fraction" xOffset="531.3333333333334"/>
  </outline>
</glyph>
<glyph name="ampersand" format="2">
  <advance height="2479.0" width="1271.3333333333333"/>
  <unicode hex="0026"/>
  <outline>
    <contour>
      <point x="569.3333333333334" y="-20.0" type="curve"/>
      <point x="712.3333333333334" y="-20.0"/>
      <point x="868.6666666666666" y="36.0"/>
      <point x="965.6666666666666" y="142.66666666666666" type="curve"/>
      <point x="977.6666666666666" y="156.33333333333334"/>
      <point x="987.6666666666666" y="171.33333333333334"/>
      <point x="998.3333333333334" y="186.0" type="curve"/>
      <point x="1055.0" y="250.66666666666666"/>
      <point x="1158.0" y="373.3333333333333"/>
      <point x="1164.6666666666667" y="613.0" type="curve"/>
      <point x="1038.6666666666667" y="615.0" type="line"/>
      <point x="1021.6666666666666" y="301.6666666666667"/>
      <point x="811.6666666666666" y="98.33333333333334"/>
      <point x="565.3333333333334" y="96.0" type="curve" smooth="yes"/>
      <point x="377.3333333333333" y="97.0"/>
      <point x="245.0" y="230.66666666666666"/>
      <point x="245.0" y="388.0" type="curve"/>
      <point x="245.0" y="454.6666666666667"/>
      <point x="291.0" y="552.6666666666666"/>
      <point x="439.3333333333333" y="664.3333333333334" type="curve" smooth="yes"/>
      <point x="710.0" y="866.0" type="line" smooth="yes"/>
      <point x="841.6666666666666" y="965.6666666666666"/>
      <point x="912.3333333333334" y="1062.6666666666667"/>
      <point x="912.3333333333334" y="1197.6666666666667" type="curve"/>
      <point x="912.3333333333334" y="1366.6666666666667"/>
      <point x="779.6666666666666" y="1506.0"/>
      <point x="574.3333333333334" y="1506.0" type="curve" smooth="yes"/>
      <point x="371.6666666666667" y="1506.0"/>
      <point x="228.0" y="1366.0"/>
      <point x="228.0" y="1176.6666666666667" type="curve" smooth="yes"/>
      <point x="228.0" y="1022.0"/>
      <point x="335.3333333333333" y="911.6666666666666"/>
      <point x="485.6666666666667" y="728.3333333333334" type="curve" smooth="yes"/>
      <point x="1079.6666666666667" y="0.0" type="line"/>
      <point x="1236.3333333333333" y="0.0" type="line"/>
      <point x="555.3333333333334" y="840.6666666666666" type="line" smooth="yes"/>
      <point x="445.6666666666667" y="975.3333333333334"/>
      <point x="360.0" y="1072.6666666666667"/>
      <point x="360.0" y="1174.6666666666667" type="curve" smooth="yes"/>
      <point x="360.0" y="1284.0"/>
      <point x="453.6666666666667" y="1391.6666666666667"/>
      <point x="578.3333333333334" y="1391.6666666666667" type="curve" smooth="yes"/>
      <point x="697.0" y="1391.6666666666667"/>
      <point x="780.6666666666666" y="1297.3333333333333"/>
      <point x="780.6666666666666" y="1197.6666666666667" type="curve"/>
      <point x="780.6666666666666" y="1094.6666666666667"/>
      <point x="725.6666666666666" y="1031.6666666666667"/>
      <point x="622.3333333333334" y="957.6666666666666" type="curve"/>
      <point x="406.3333333333333" y="797.0" type="line"/>
      <point x="221.33333333333334" y="665.0"/>
      <point x="113.66666666666667" y="556.6666666666666"/>
      <point x="113.66666666666667" y="388.0" type="curve"/>
      <point x="113.66666666666667" y="154.0"/>
      <point x="294.6666666666667" y="-20.0"/>
    </contour>
  </outline>
</glyph>
<glyph name="quotesingle" format="2">
  <advance height="2479.0" width="347.3333333333333"/>
  <unicode hex="0027"/>
  <outline>
    <contour>
      <point x="247.33333333333334" y="1489.0" type="line"/>
      <point x="100.0" y="1489.0" type="line"/>
      <point x="126.33333333333333" y="992.6666666666666" type="line"/>
      <point x="221.0" y="992.6666666666666" type="line"/>
    </contour>
  </outline>
</glyph>
<glyph name="parenleft" format="2">
  <advance height="2479.0" width="710.0"/>
  <unicode hex="0028"/>
  <outline>
    <contour>
      <point x="225.0" y="628.0" type="curve" smooth="yes"/>
      <point x="225.0" y="280.3333333333333"/>
      <point x="316.0" y="-30.333333333333336"/>
      <point x="481.3333333333333" y="-303.0" type="curve"/>
      <point x="598.3333333333334" y="-303.0" type="line"/>
      <point x="457.3333333333333" y="-75.0"/>
      <point x="359.0" y="292.6666666666667"/>
      <point x="359.0" y="628.0" type="curve" smooth="yes"/>
      <point x="359.0" y="963.3333333333334"/>
      <point x="457.0" y="1330.6666666666667"/>
      <point x="598.3333333333334" y="1559.0" type="curve"/>
      <point x="481.3333333333333" y="1559.0" type="line"/>
      <point x="316.0" y="1287.6666666666667"/>
      <point x="225.0" y="977.6666666666666"/>
    </contour>
  </outline>
</glyph>
<glyph name="asterisk" format="2">
  <advance height="2479.0" width="1024.0"/>
  <unicode hex="002A"/>
  <outline>
    <contour>
      <point x="457.6666666666667" y="652.0" type="line"/>
      <point x="566.3333333333334" y="652.0" type="line"/>
      <point x="558.3333333333334" y="991.3333333333334" type="line"/>
      <point x="848.6666666666666" y="813.6666666666666" type="line"/>
      <point x="903.0" y="908.3333333333334" type="line"/>
      <point x="603.0" y="1071.0" type="line"/>
      <point x="903.0" y="1232.6666666666667" type="line"/>
      <point x="848.6666666666666" y="1327.3333333333333" type="line"/>
      <point x="558.3333333333334" y="1149.6666666666667" type="line"/>
      <point x="566.3333333333334" y="1489.0" type="line"/>
      <point x="457.6666666666667" y="1489.0" type="line"/>
      <point x="465.6666666666667" y="1149.6666666666667" type="line"/>
      <point x="175.33333333333334" y="1327.3333333333333" type="line"/>
      <point x="121.0" y="1232.6666666666667" type="line"/>
      <point x="421.0" y="1071.0" type="line"/>
      <point x="121.0" y="908.3333333333334" type="line"/>
      <point x="175.33333333333334" y="813.6666666666666" type="line"/>
      <point x="465.6666666666667" y="991.3333333333334" type="line"/>
    </contour>
  </outline>
</glyph>
<glyph name="plus" format="2">
  <advance height="2479.0" width="1334.3333333333333"/>
  <unicode hex="002B"/>
  <outline>
    <contour>
      <point x="604.6666666666666" y="121.33333333333333" type="line"/>
      <point x="729.0" y="121.33333333333333" type="line"/>
      <point x="729.0" y="1042.6666666666667" type="line"/>
      <point x="604.6666666666666" y="1042.6666666666667" type="line"/>
    </contour>
    <contour>
      <point x="206.66666666666666" y="519.6666666666666" type="line"/>
      <point x="1127.6666666666667" y="519.6666666666666" type="line"/>
      <point x="1127.6666666666667" y="643.6666666666666" type="line"/>
      <point x="206.66666666666666" y="643.6666666666666" type="line"/>
    </contour>
  </outline>
</glyph>
<glyph name="comma" format="2">
  <advance height="2479.0" width="557.3333333333334"/>
  <unicode hex="002C"/>
  <outline>
    <contour>
      <point x="386.0" y="204.0" type="line"/>
      <point x="245.33333333333334" y="204.0" type="line"/>
      <point x="234.66666666666666" y="122.0" type="line" smooth="yes"/>
      <point x="209.0" y="-74.66666666666667"/>
      <point x="170.0" y="-265.0"/>
      <point x="150.33333333333334" y="-364.0" type="curve"/>
      <point x="250.33333333333334" y="-364.0" type="line"/>
      <point x="285.0" y="-261.3333333333333"/>
      <point x="348.0" y="-31.666666666666668"/>
      <point x="373.0" y="126.0" type="curve" smooth="yes"/>
    </contour>
  </outline>
</glyph>
<glyph name="hyphen" format="2">
  <advance height="2479.0" width="928.3333333333334"/>
  <unicode hex="002D"/>
  <outline>
    <contour>
      <point x="773.6666666666666" y="700.0" type="line"/>
      <point x="154.0" y="700.0" type="line"/>
      <point x="154.0" y="577.6666666666666" type="line"/>
      <point x="773.6666666666666" y="577.6666666666666" type="line"/>
    </contour>
  </outline>
</glyph>
<glyph name="period" format="2">
  <advance height="2479.0" width="548.6666666666666"/>
  <unicode hex="002E"/>
  <outline>
    <contour>
      <point x="274.3333333333333" y="-11.0" type="curve" smooth="yes"/>
      <point x="332.0" y="-11.0"/>
      <point x="379.0" y="36.333333333333336"/>
      <point x="379.0" y="94.0" type="curve" smooth="yes"/>
      <point x="379.0" y="151.66666666666669"/>
      <point x="332.0" y="198.66666666666669"/>
      <point x="274.3333333333333" y="198.66666666666669" type="curve" smooth="yes"/>
      <point x="216.66666666666666" y="198.66666666666669"/>
      <point x="169.66666666666666" y="151.66666666666669"/>
      <point x="169.66666666666666" y="94.0" type="curve" smooth="yes"/>
      <point x="169.66666666666666" y="36.333333333333336"/>
      <point x="216.66666666666666" y="-11.0"/>
    </contour>
  </outline>
</glyph>
<glyph name="slash" format="2">
  <advance height="2479.0" width="707.3333333333334"/>
  <unicode hex="002F"/>
  <outline>
    <contour>
      <point x="654.6666666666666" y="1559.0" type="line"/>
      <point x="533.6666666666666" y="1559.0" type="line"/>
      <point x="53.666666666666664" y="-224.0" type="line"/>
      <point x="174.66666666666666" y="-224.0" type="line"/>
    </contour>
  </outline>
</glyph>
<glyph name="zero" format="2">
  <advance height="2479.0" width="1256.6666666666667"/>
  <unicode hex="0030"/>
  <outline>
    <contour>
      <point x="628.3333333333334" y="-20.0" type="curve" smooth="yes"/>
      <point x="942.3333333333334" y="-20.0"/>
      <point x="1126.0" y="262.3333333333333"/>
      <point x="1126.0" y="745.0" type="curve" smooth="yes"/>
      <point x="1126.0" y="1225.0"/>
      <point x="940.3333333333334" y="1510.0"/>
      <point x="628.3333333333334" y="1510.0" type="curve" smooth="yes"/>
      <point x="316.3333333333333" y="1510.0"/>
      <point x="130.66666666666666" y="1225.0"/>
      <point x="130.66666666666666" y="745.0" type="curve" smooth="yes"/>
      <point x="130.66666666666666" y="262.3333333333333"/>
      <point x="314.3333333333333" y="-20.0"/>
    </contour>
    <contour>
      <point x="628.3333333333334" y="102.0" type="curve" smooth="yes"/>
      <point x="399.0" y="102.0"/>
      <point x="263.0" y="337.0"/>
      <point x="263.0" y="745.0" type="curve" smooth="yes"/>
      <point x="263.0" y="1152.3333333333333"/>
      <point x="400.3333333333333" y="1389.6666666666667"/>
      <point x="628.3333333333334" y="1389.6666666666667" type="curve" smooth="yes"/>
      <point x="856.3333333333334" y="1389.6666666666667"/>
      <point x="993.6666666666666" y="1152.3333333333333"/>
      <point x="993.6666666666666" y="745.0" type="curve" smooth="yes"/>
      <point x="993.6666666666666" y="337.0"/>
      <point x="857.6666666666666" y="102.0"/>
    </contour>
  </outline>
</glyph>
<glyph name="one" format="2">
  <advance height="2479.0" width="912.3333333333334"/>
  <unicode hex="0031"/>
  <outline>
    <contour>
      <point x="625.6666666666666" y="1489.0" type="line"/>
      <point x="483.6666666666667" y="1489.0" type="line"/>
      <point x="131.66666666666666" y="1255.6666666666667" type="line"/>
      <point x="131.66666666666666" y="1115.3333333333333" type="line"/>
      <point x="481.0" y="1346.6666666666667" type="line"/>
      <point x="489.3333333333333" y="1346.6666666666667" type="line"/>
      <point x="489.3333333333333" y="0.0" type="line"/>
      <point x="625.6666666666666" y="0.0" type="line"/>
    </contour>
  </outline>
</glyph>
<glyph name="two" format="2">
  <advance height="2479.0" width="1249.6666666666667"/>
  <unicode hex="0032"/>
  <anchor x="831.0" y="760.3333333333334" name="cross"/>
  <outline>
    <contour>
      <point x="165.66666666666666" y="0.0" type="line"/>
      <point x="1092.0" y="0.0" type="line"/>
      <point x="1092.0" y="122.33333333333334" type="line"/>
      <point x="354.6666666666667" y="122.33333333333334" type="line"/>
      <point x="354.6666666666667" y="132.0" type="line"/>
      <point x="724.3333333333334" y="543.6666666666666" type="line" smooth="yes"/>
      <point x="971.3333333333334" y="817.3333333333334"/>
      <point x="1045.6666666666667" y="941.6666666666666"/>
      <point x="1045.6666666666667" y="1106.6666666666667" type="curve" smooth="yes"/>
      <point x="1045.6666666666667" y="1333.6666666666667"/>
      <point x="865.6666666666666" y="1510.0"/>
      <point x="617.0" y="1510.0" type="curve" smooth="yes"/>
      <point x="365.3333333333333" y="1510.0"/>
      <point x="178.33333333333334" y="1332.3333333333333"/>
      <point x="178.33333333333334" y="1086.3333333333333" type="curve"/>
      <point x="308.6666666666667" y="1086.3333333333333" type="line"/>
      <point x="308.6666666666667" y="1262.3333333333333"/>
      <point x="428.6666666666667" y="1389.6666666666667"/>
      <point x="613.0" y="1389.6666666666667" type="curve" smooth="yes"/>
      <point x="786.3333333333334" y="1389.6666666666667"/>
      <point x="917.3333333333334" y="1276.3333333333333"/>
      <point x="917.3333333333334" y="1106.6666666666667" type="curve" smooth="yes"/>
      <point x="917.3333333333334" y="965.0"/>
      <point x="842.0" y="860.3333333333334"/>
      <point x="652.6666666666666" y="646.6666666666666" type="curve" smooth="yes"/>
      <point x="165.66666666666666" y="100.0" type="line"/>
    </contour>
  </outline>
</glyph>
<glyph name="three" format="2">
  <advance height="2479.0" width="1287.6666666666667"/>
  <unicode hex="0033"/>
  <outline>
    <contour>
      <point x="649.3333333333334" y="-20.0" type="curve" smooth="yes"/>
      <point x="929.0" y="-20.0"/>
      <point x="1132.6666666666667" y="160.0"/>
      <point x="1132.6666666666667" y="398.3333333333333" type="curve" smooth="yes"/>
      <point x="1132.6666666666667" y="587.3333333333334"/>
      <point x="1016.3333333333334" y="727.0"/>
      <point x="826.0" y="764.0" type="curve"/>
      <point x="826.0" y="774.0" type="line"/>
      <point x="983.0" y="820.6666666666666"/>
      <point x="1081.0" y="946.6666666666666"/>
      <point x="1081.0" y="1117.0" type="curve" smooth="yes"/>
      <point x="1081.0" y="1330.3333333333333"/>
      <point x="914.3333333333334" y="1510.0"/>
      <point x="652.3333333333334" y="1510.0" type="curve" smooth="yes"/>
      <point x="403.0" y="1510.0"/>
      <point x="203.66666666666666" y="1349.6666666666667"/>
      <point x="197.66666666666666" y="1117.0" type="curve"/>
      <point x="329.6666666666667" y="1117.0" type="line"/>
      <point x="333.6666666666667" y="1283.6666666666667"/>
      <point x="477.6666666666667" y="1389.6666666666667"/>
      <point x="650.3333333333334" y="1389.6666666666667" type="curve" smooth="yes"/>
      <point x="830.3333333333334" y="1389.6666666666667"/>
      <point x="949.3333333333334" y="1275.3333333333333"/>
      <point x="949.3333333333334" y="1111.6666666666667" type="curve" smooth="yes"/>
      <point x="949.3333333333334" y="937.3333333333334"/>
      <point x="810.0" y="826.3333333333334"/>
      <point x="617.6666666666666" y="826.3333333333334" type="curve" smooth="yes"/>
      <point x="530.3333333333334" y="826.3333333333334" type="line"/>
      <point x="530.3333333333334" y="704.3333333333334" type="line"/>
      <point x="617.6666666666666" y="704.3333333333334" type="line" smooth="yes"/>
      <point x="853.0" y="704.3333333333334"/>
      <point x="998.6666666666666" y="579.6666666666666"/>
      <point x="998.6666666666666" y="398.3333333333333" type="curve" smooth="yes"/>
      <point x="998.6666666666666" y="227.33333333333334"/>
      <point x="854.3333333333334" y="102.0"/>
      <point x="648.0" y="102.0" type="curve" smooth="yes"/>
      <point x="458.3333333333333" y="102.0"/>
      <point x="309.6666666666667" y="209.33333333333334"/>
      <point x="303.0" y="372.0" type="curve"/>
      <point x="164.66666666666666" y="372.0" type="line"/>
      <point x="172.0" y="140.33333333333334"/>
      <point x="373.6666666666667" y="-20.0"/>
    </contour>
  </outline>
</glyph>
<glyph name="five" format="2">
  <advance height="2479.0" width="1219.6666666666667"/>
  <unicode hex="0035"/>
  <outline>
    <contour>
      <point x="601.3333333333334" y="-20.0" type="curve" smooth="yes"/>
      <point x="876.0" y="-20.0"/>
      <point x="1075.6666666666667" y="188.0"/>
      <point x="1076.3333333333333" y="470.3333333333333" type="curve" smooth="yes"/>
      <point x="1076.6666666666667" y="759.0"/>
      <point x="874.3333333333334" y="963.3333333333334"/>
      <point x="611.6666666666666" y="963.3333333333334" type="curve" smooth="yes"/>
      <point x="505.3333333333333" y="963.3333333333334"/>
      <point x="406.6666666666667" y="924.3333333333334"/>
      <point x="341.3333333333333" y="868.6666666666666" type="curve"/>
      <point x="333.3333333333333" y="868.6666666666666" type="line"/>
      <point x="393.6666666666667" y="1367.0" type="line"/>
      <point x="1015.0" y="1367.0" type="line"/>
      <point x="1015.0" y="1489.0" type="line"/>
      <point x="279.6666666666667" y="1489.0" type="line"/>
      <point x="189.66666666666666" y="765.6666666666666" type="line"/>
      <point x="325.6666666666667" y="748.6666666666666" type="line"/>
      <point x="390.0" y="801.3333333333334"/>
      <point x="492.0" y="839.0"/>
      <point x="592.3333333333334" y="839.0" type="curve" smooth="yes"/>
      <point x="790.3333333333334" y="837.6666666666666"/>
      <point x="944.3333333333334" y="686.3333333333334"/>
      <point x="944.6666666666666" y="468.3333333333333" type="curve" smooth="yes"/>
      <point x="945.0" y="258.3333333333333"/>
      <point x="801.6666666666666" y="102.0"/>
      <point x="601.3333333333334" y="102.0" type="curve" smooth="yes"/>
      <point x="430.0" y="102.0"/>
      <point x="302.3333333333333" y="215.0"/>
      <point x="294.0" y="372.0" type="curve"/>
      <point x="162.0" y="372.0" type="line"/>
      <point x="168.66666666666666" y="144.33333333333334"/>
      <point x="353.6666666666667" y="-20.0"/>
    </contour>
  </outline>
</glyph>
<glyph name="six" format="2">
  <advance height="2479.0" width="1249.0"/>
  <unicode hex="0036"/>
  <outline>
    <contour>
      <point x="635.3333333333334" y="-20.0" type="curve" smooth="yes"/>
      <point x="919.3333333333334" y="-22.666666666666668"/>
      <point x="1106.3333333333333" y="201.33333333333334"/>
      <point x="1106.3333333333333" y="468.3333333333333" type="curve" smooth="yes"/>
      <point x="1106.3333333333333" y="748.6666666666666"/>
      <point x="899.6666666666666" y="953.6666666666666"/>
      <point x="651.6666666666666" y="953.6666666666666" type="curve" smooth="yes"/>
      <point x="491.6666666666667" y="953.6666666666666"/>
      <point x="350.3333333333333" y="867.6666666666666"/>
      <point x="280.0" y="736.3333333333334" type="curve"/>
      <point x="270.6666666666667" y="736.3333333333334" type="line"/>
      <point x="270.6666666666667" y="1152.3333333333333"/>
      <point x="411.0" y="1387.6666666666667"/>
      <point x="655.6666666666666" y="1387.6666666666667" type="curve" smooth="yes"/>
      <point x="825.3333333333334" y="1387.6666666666667"/>
      <point x="929.3333333333334" y="1274.3333333333333"/>
      <point x="956.0" y="1117.0" type="curve"/>
      <point x="1090.3333333333333" y="1117.0" type="line"/>
      <point x="1060.6666666666667" y="1348.6666666666667"/>
      <point x="896.0" y="1510.0"/>
      <point x="655.6666666666666" y="1510.0" type="curve" smooth="yes"/>
      <point x="312.6666666666667" y="1510.0"/>
      <point x="142.66666666666666" y="1167.3333333333333"/>
      <point x="142.66666666666666" y="683.0" type="curve" smooth="yes"/>
      <point x="142.66666666666666" y="159.66666666666666"/>
      <point x="387.6666666666667" y="-18.0"/>
    </contour>
    <contour>
      <point x="635.3333333333334" y="102.0" type="curve" smooth="yes"/>
      <point x="449.3333333333333" y="102.0"/>
      <point x="311.6666666666667" y="253.66666666666669"/>
      <point x="296.0" y="459.6666666666667" type="curve" smooth="yes"/>
      <point x="282.0" y="656.0"/>
      <point x="436.3333333333333" y="831.3333333333334"/>
      <point x="635.3333333333334" y="831.3333333333334" type="curve" smooth="yes"/>
      <point x="828.6666666666666" y="831.3333333333334"/>
      <point x="974.6666666666666" y="670.3333333333334"/>
      <point x="974.6666666666666" y="468.3333333333333" type="curve" smooth="yes"/>
      <point x="974.6666666666666" y="265.6666666666667"/>
      <point x="828.3333333333334" y="102.0"/>
    </contour>
  </outline>
</glyph>
<glyph name="seven" format="2">
  <advance height="2479.0" width="1153.0"/>
  <unicode hex="0037"/>
  <outline>
    <contour>
      <point x="208.66666666666666" y="0.0" type="line"/>
      <point x="352.0" y="0.0" type="line"/>
      <point x="1029.6666666666667" y="1361.6666666666667" type="line"/>
      <point x="1029.6666666666667" y="1489.0" type="line"/>
      <point x="105.66666666666667" y="1489.0" type="line"/>
      <point x="105.66666666666667" y="1367.0" type="line"/>
      <point x="887.3333333333334" y="1367.0" type="line"/>
      <point x="887.3333333333334" y="1357.6666666666667" type="line"/>
    </contour>
  </outline>
</glyph>
<glyph name="eight" format="2">
  <advance height="2479.0" width="1253.0"/>
  <unicode hex="0038"/>
  <outline>
    <contour>
      <point x="626.3333333333334" y="-20.0" type="curve" smooth="yes"/>
      <point x="910.3333333333334" y="-20.0"/>
      <point x="1117.0" y="155.33333333333334"/>
      <point x="1117.6666666666667" y="392.0" type="curve" smooth="yes"/>
      <point x="1117.0" y="576.3333333333334"/>
      <point x="989.3333333333334" y="738.6666666666666"/>
      <point x="821.0" y="772.0" type="curve"/>
      <point x="821.0" y="780.0" type="line"/>
      <point x="966.6666666666666" y="821.3333333333334"/>
      <point x="1064.0" y="960.3333333333334"/>
      <point x="1064.6666666666667" y="1120.0" type="curve" smooth="yes"/>
      <point x="1064.0" y="1342.3333333333333"/>
      <point x="874.0" y="1510.0"/>
      <point x="626.3333333333334" y="1510.0" type="curve" smooth="yes"/>
      <point x="375.3333333333333" y="1510.0"/>
      <point x="187.33333333333334" y="1341.6666666666667"/>
      <point x="188.0" y="1120.0" type="curve" smooth="yes"/>
      <point x="187.33333333333334" y="960.0"/>
      <point x="285.3333333333333" y="821.6666666666666"/>
      <point x="431.3333333333333" y="780.0" type="curve"/>
      <point x="431.3333333333333" y="772.0" type="line"/>
      <point x="261.0" y="738.0"/>
      <point x="134.0" y="576.3333333333334"/>
      <point x="134.66666666666666" y="392.0" type="curve" smooth="yes"/>
      <point x="134.0" y="155.33333333333334"/>
      <point x="341.0" y="-20.0"/>
    </contour>
    <contour>
      <point x="626.3333333333334" y="102.0" type="curve" smooth="yes"/>
      <point x="413.0" y="102.0"/>
      <point x="267.6666666666667" y="225.66666666666666"/>
      <point x="269.0" y="398.3333333333333" type="curve" smooth="yes"/>
      <point x="267.6666666666667" y="576.3333333333334"/>
      <point x="421.3333333333333" y="710.6666666666666"/>
      <point x="626.3333333333334" y="710.6666666666666" type="curve" smooth="yes"/>
      <point x="829.6666666666666" y="710.6666666666666"/>
      <point x="983.6666666666666" y="576.3333333333334"/>
      <point x="984.3333333333334" y="398.3333333333333" type="curve" smooth="yes"/>
      <point x="983.6666666666666" y="225.66666666666666"/>
      <point x="838.3333333333334" y="102.0"/>
    </contour>
    <contour>
      <point x="626.3333333333334" y="827.3333333333334" type="curve" smooth="yes"/>
      <point x="450.3333333333333" y="827.3333333333334"/>
      <point x="318.6666666666667" y="947.3333333333334"/>
      <point x="320.0" y="1112.6666666666667" type="curve" smooth="yes"/>
      <point x="318.6666666666667" y="1275.3333333333333"/>
      <point x="447.6666666666667" y="1389.6666666666667"/>
      <point x="626.3333333333334" y="1389.6666666666667" type="curve" smooth="yes"/>
      <point x="803.3333333333334" y="1389.6666666666667"/>
      <point x="931.6666666666666" y="1275.3333333333333"/>
      <point x="933.0" y="1112.6666666666667" type="curve" smooth="yes"/>
      <point x="931.6666666666666" y="947.3333333333334"/>
      <point x="800.0" y="827.3333333333334"/>
    </contour>
  </outline>
</glyph>
<glyph name="nine" format="2">
  <advance height="2479.0" width="1249.0"/>
  <unicode hex="0039"/>
  <outline>
    <contour>
      <point x="613.6666666666666" y="1510.0" type="curve" smooth="yes"/>
      <point x="329.0" y="1512.0"/>
      <point x="142.66666666666666" y="1289.0"/>
      <point x="142.66666666666666" y="1023.6666666666666" type="curve" smooth="yes"/>
      <point x="142.66666666666666" y="743.6666666666666"/>
      <point x="348.0" y="539.3333333333334"/>
      <point x="597.0" y="539.3333333333334" type="curve" smooth="yes"/>
      <point x="757.0" y="539.3333333333334"/>
      <point x="898.6666666666666" y="625.0"/>
      <point x="969.0" y="756.6666666666666" type="curve"/>
      <point x="978.0" y="756.6666666666666" type="line"/>
      <point x="978.0" y="337.3333333333333"/>
      <point x="837.0" y="102.0"/>
      <point x="593.3333333333334" y="102.0" type="curve" smooth="yes"/>
      <point x="423.6666666666667" y="102.0"/>
      <point x="319.0" y="216.66666666666666"/>
      <point x="293.0" y="375.0" type="curve"/>
      <point x="159.33333333333334" y="375.0" type="line"/>
      <point x="187.0" y="141.0"/>
      <point x="353.0" y="-20.0"/>
      <point x="593.3333333333334" y="-20.0" type="curve" smooth="yes"/>
      <point x="937.0" y="-20.0"/>
      <point x="1106.3333333333333" y="322.6666666666667"/>
      <point x="1106.3333333333333" y="809.6666666666666" type="curve" smooth="yes"/>
      <point x="1106.3333333333333" y="1330.6666666666667"/>
      <point x="861.3333333333334" y="1508.0"/>
    </contour>
    <contour>
      <point x="613.6666666666666" y="1387.6666666666667" type="curve" smooth="yes"/>
      <point x="799.3333333333334" y="1387.6666666666667"/>
      <point x="936.6666666666666" y="1236.3333333333333"/>
      <point x="953.0" y="1032.6666666666667" type="curve" smooth="yes"/>
      <point x="967.6666666666666" y="837.0"/>
      <point x="811.6666666666666" y="661.3333333333334"/>
      <point x="614.0" y="661.3333333333334" type="curve" smooth="yes"/>
      <point x="419.6666666666667" y="661.3333333333334"/>
      <point x="274.0" y="821.3333333333334"/>
      <point x="274.0" y="1023.6666666666666" type="curve" smooth="yes"/>
      <point x="274.0" y="1225.0"/>
      <point x="419.6666666666667" y="1387.6666666666667"/>
    </contour>
  </outline>
</glyph>
<glyph name="less" format="2">
  <advance height="2479.0" width="1334.3333333333333"/>
  <unicode hex="003C"/>
  <outline>
    <contour>
      <point x="222.33333333333334" y="535.6666666666666" type="line"/>
      <point x="1112.0" y="45.0" type="line"/>
      <point x="1112.0" y="187.33333333333334" type="line"/>
      <point x="382.3333333333333" y="581.0" type="line"/>
      <point x="389.0" y="568.0" type="line"/>
      <point x="389.0" y="595.0" type="line"/>
      <point x="382.3333333333333" y="583.0" type="line"/>
      <point x="1112.0" y="976.6666666666666" type="line"/>
      <point x="1112.0" y="1119.0" type="line"/>
      <point x="222.33333333333334" y="628.3333333333334" type="line"/>
    </contour>
  </outline>
</glyph>
<glyph name="equal" format="2">
  <advance height="2479.0" width="1334.3333333333333"/>
  <unicode hex="003D"/>
  <outline>
    <contour>
      <point x="253.0" y="730.3333333333334" type="line"/>
      <point x="1081.3333333333333" y="730.3333333333334" type="line"/>
      <point x="1081.3333333333333" y="850.6666666666666" type="line"/>
      <point x="253.0" y="850.6666666666666" type="line"/>
    </contour>
    <contour>
      <point x="253.0" y="313.3333333333333" type="line"/>
      <point x="1081.3333333333333" y="313.3333333333333" type="line"/>
      <point x="1081.3333333333333" y="433.3333333333333" type="line"/>
      <point x="253.0" y="433.3333333333333" type="line"/>
    </contour>
  </outline>
</glyph>
<glyph name="question" format="2">
  <advance height="2479.0" width="1019.3333333333334"/>
  <unicode hex="003F"/>
  <outline>
    <contour>
      <point x="395.6666666666667" y="426.6666666666667" type="line"/>
      <point x="527.6666666666666" y="426.6666666666667" type="line"/>
      <point x="527.6666666666666" y="466.6666666666667" type="line" smooth="yes"/>
      <point x="529.6666666666666" y="626.0"/>
      <point x="573.3333333333334" y="699.0"/>
      <point x="705.0" y="785.6666666666666" type="curve" smooth="yes"/>
      <point x="843.0" y="875.0"/>
      <point x="912.6666666666666" y="978.3333333333334"/>
      <point x="912.6666666666666" y="1126.6666666666667" type="curve" smooth="yes"/>
      <point x="912.6666666666666" y="1348.0"/>
      <point x="747.0" y="1510.0"/>
      <point x="505.3333333333333" y="1510.0" type="curve" smooth="yes"/>
      <point x="273.6666666666667" y="1510.0"/>
      <point x="93.33333333333333" y="1356.3333333333333"/>
      <point x="86.0" y="1117.0" type="curve"/>
      <point x="224.33333333333334" y="1117.0" type="line"/>
      <point x="231.66666666666669" y="1297.6666666666667"/>
      <point x="360.0" y="1393.6666666666667"/>
      <point x="505.3333333333333" y="1393.6666666666667" type="curve" smooth="yes"/>
      <point x="659.0" y="1393.6666666666667"/>
      <point x="780.3333333333334" y="1289.0"/>
      <point x="780.3333333333334" y="1132.6666666666667" type="curve" smooth="yes"/>
      <point x="780.3333333333334" y="1020.3333333333334"/>
      <point x="720.6666666666666" y="939.6666666666666"/>
      <point x="615.0" y="871.0" type="curve" smooth="yes"/>
      <point x="469.6666666666667" y="778.0"/>
      <point x="397.0" y="696.0"/>
      <point x="395.6666666666667" y="466.6666666666667" type="curve" smooth="yes"/>
    </contour>
    <component base="period" xOffset="191.0"/>
  </outline>
</glyph>
<glyph name="at" format="2">
  <advance height="2479.0" width="1917.0"/>
  <unicode hex="0040"/>
  <outline>
    <contour>
      <point x="996.6666666666666" y="-394.0" type="curve" smooth="yes"/>
      <point x="1152.3333333333333" y="-394.0"/>
      <point x="1332.6666666666667" y="-347.0"/>
      <point x="1439.0" y="-288.6666666666667" type="curve"/>
      <point x="1402.0" y="-187.0" type="line"/>
      <point x="1323.6666666666667" y="-230.0"/>
      <point x="1160.6666666666667" y="-285.0"/>
      <point x="1000.6666666666666" y="-285.0" type="curve" smooth="yes"/>
      <point x="520.0" y="-285.0"/>
      <point x="222.0" y="30.0"/>
      <point x="222.0" y="520.0" type="curve" smooth="yes"/>
      <point x="222.0" y="1004.0"/>
      <point x="523.3333333333334" y="1326.3333333333333"/>
      <point x="977.3333333333334" y="1326.3333333333333" type="curve" smooth="yes"/>
      <point x="1434.3333333333333" y="1326.3333333333333"/>
      <point x="1701.0" y="980.6666666666666"/>
      <point x="1701.0" y="603.3333333333334" type="curve" smooth="yes"/>
      <point x="1701.0" y="302.3333333333333"/>
      <point x="1634.0" y="144.66666666666666"/>
      <point x="1476.0" y="144.66666666666666" type="curve" smooth="yes"/>
      <point x="1388.3333333333333" y="144.66666666666666"/>
      <point x="1350.0" y="205.0"/>
      <point x="1350.0" y="306.3333333333333" type="curve" smooth="yes"/>
      <point x="1350.0" y="980.0" type="line"/>
      <point x="1231.6666666666667" y="980.0" type="line"/>
      <point x="1231.6666666666667" y="848.3333333333334" type="line"/>
      <point x="1223.6666666666667" y="848.3333333333334" type="line"/>
      <point x="1187.3333333333333" y="940.6666666666666"/>
      <point x="1066.6666666666667" y="1010.3333333333334"/>
      <point x="918.6666666666666" y="1001.0" type="curve" smooth="yes"/>
      <point x="696.0" y="985.0"/>
      <point x="525.0" y="793.0"/>
      <point x="525.0" y="529.3333333333334" type="curve" smooth="yes"/>
      <point x="525.0" y="256.0"/>
      <point x="673.3333333333334" y="43.0"/>
      <point x="918.6666666666666" y="37.0" type="curve" smooth="yes"/>
      <point x="1080.0" y="33.0"/>
      <point x="1183.3333333333333" y="120.0"/>
      <point x="1229.6666666666667" y="225.0" type="curve"/>
      <point x="1237.0" y="225.0" type="line"/>
      <point x="1249.0" y="86.33333333333333"/>
      <point x="1367.3333333333333" y="37.666666666666664"/>
      <point x="1474.0" y="37.666666666666664" type="curve" smooth="yes"/>
      <point x="1748.3333333333333" y="37.666666666666664"/>
      <point x="1817.0" y="325.0"/>
      <point x="1817.0" y="601.3333333333334" type="curve" smooth="yes"/>
      <point x="1817.0" y="1035.3333333333333"/>
      <point x="1503.0" y="1433.0"/>
      <point x="983.3333333333334" y="1433.0" type="curve" smooth="yes"/>
      <point x="450.6666666666667" y="1433.0"/>
      <point x="100.0" y="1070.6666666666667"/>
      <point x="100.0" y="524.0" type="curve" smooth="yes"/>
      <point x="100.0" y="-35.66666666666667"/>
      <point x="443.3333333333333" y="-394.0"/>
    </contour>
    <contour>
      <point x="934.0" y="151.0" type="curve" smooth="yes"/>
      <point x="741.0" y="151.0"/>
      <point x="641.0" y="330.6666666666667"/>
      <point x="641.0" y="535.3333333333334" type="curve" smooth="yes"/>
      <point x="641.0" y="728.3333333333334"/>
      <point x="760.3333333333334" y="890.0"/>
      <point x="938.0" y="890.0" type="curve" smooth="yes"/>
      <point x="1120.6666666666667" y="890.0"/>
      <point x="1237.0" y="778.3333333333334"/>
      <point x="1237.0" y="535.3333333333334" type="curve" smooth="yes"/>
      <point x="1237.0" y="293.6666666666667"/>
      <point x="1131.0" y="151.0"/>
    </contour>
  </outline>
</glyph>
<glyph name="A" format="2">
  <advance height="2479.0" width="1344.3333333333333"/>
  <unicode hex="0041"/>
  <anchor x="671.6666666666666" y="0.0" name="bottom"/>
  <anchor x="1286.6666666666667" y="0.0" name="ogonek"/>
  <anchor x="505.6666666666667" y="1489.0" name="tonos"/>
  <anchor x="671.6666666666666" y="1676.0" name="top"/>
  <outline>
    <contour>
      <point x="199.33333333333334" y="0.0" type="line"/>
      <point x="667.3333333333334" y="1313.0" type="line"/>
      <point x="676.6666666666666" y="1313.0" type="line"/>
      <point x="1144.0" y="0.0" type="line"/>
      <point x="1286.6666666666667" y="0.0" type="line"/>
      <point x="744.3333333333334" y="1489.0" type="line"/>
      <point x="599.0" y="1489.0" type="line"/>
      <point x="57.0" y="0.0" type="line"/>
    </contour>
    <contour>
      <point x="302.3333333333333" y="571.3333333333334" type="line"/>
      <point x="302.3333333333333" y="449.0" type="line"/>
      <point x="1041.0" y="449.0" type="line"/>
      <point x="1041.0" y="571.3333333333334" type="line"/>
    </contour>
  </outline>
</glyph>
<glyph name="B" format="2">
  <advance height="2479.0" width="1325.3333333333333"/>
  <unicode hex="0042"/>
  <anchor x="643.0" y="0.0" name="bottom"/>
  <anchor x="631.3333333333334" y="1676.0" name="top"/>
  <outline>
    <contour>
      <point x="197.66666666666666" y="0.0" type="line"/>
      <point x="728.6666666666666" y="0.0" type="line" smooth="yes"/>
      <point x="1048.6666666666667" y="0.0"/>
      <point x="1195.6666666666667" y="165.0"/>
      <point x="1195.6666666666667" y="391.0" type="curve" smooth="yes"/>
      <point x="1195.6666666666667" y="616.6666666666666"/>
      <point x="1045.6666666666667" y="752.6666666666666"/>
      <point x="900.6666666666666" y="763.0" type="curve"/>
      <point x="900.6666666666666" y="775.0" type="line"/>
      <point x="1034.0" y="810.0"/>
      <point x="1137.6666666666667" y="913.3333333333334"/>
      <point x="1137.6666666666667" y="1099.6666666666667" type="curve" smooth="yes"/>
      <point x="1137.6666666666667" y="1323.3333333333333"/>
      <point x="990.6666666666666" y="1489.0"/>
      <point x="700.0" y="1489.0" type="curve" smooth="yes"/>
      <point x="197.66666666666666" y="1489.0" type="line"/>
    </contour>
    <contour>
      <point x="333.6666666666667" y="122.33333333333334" type="line"/>
      <point x="333.6666666666667" y="696.3333333333334" type="line"/>
      <point x="734.0" y="696.3333333333334" type="line" smooth="yes"/>
      <point x="934.0" y="696.3333333333334"/>
      <point x="1065.3333333333333" y="560.6666666666666"/>
      <point x="1065.3333333333333" y="391.0" type="curve" smooth="yes"/>
      <point x="1065.3333333333333" y="236.66666666666666"/>
      <point x="958.0" y="122.33333333333334"/>
      <point x="728.6666666666666" y="122.33333333333334" type="curve" smooth="yes"/>
    </contour>
    <contour>
      <point x="333.6666666666667" y="816.6666666666666" type="line"/>
      <point x="333.6666666666667" y="1367.0" type="line"/>
      <point x="700.0" y="1367.0" type="line" smooth="yes"/>
      <point x="904.3333333333334" y="1367.0"/>
      <point x="1007.3333333333334" y="1257.6666666666667"/>
      <point x="1007.3333333333334" y="1099.6666666666667" type="curve" smooth="yes"/>
      <point x="1007.3333333333334" y="936.0"/>
      <point x="889.0" y="816.6666666666666"/>
      <point x="712.6666666666666" y="816.6666666666666" type="curve" smooth="yes"/>
    </contour>
  </outline>
</glyph>
<glyph name="C" format="2">
  <advance height="2479.0" width="1486.3333333333333"/>
  <unicode hex="0043"/>
  <anchor x="775.0" y="-8.0" name="cedilla"/>
  <anchor x="775.0" y="1676.0" name="top"/>
  <outline>
    <contour>
      <point x="1364.3333333333333" y="1024.0" type="line"/>
      <point x="1315.6666666666667" y="1298.0"/>
      <point x="1091.3333333333333" y="1510.0"/>
      <point x="775.0" y="1510.0" type="curve" smooth="yes"/>
      <point x="399.0" y="1510.0"/>
      <point x="130.66666666666666" y="1211.0"/>
      <point x="130.66666666666666" y="745.0" type="curve"/>
      <point x="130.66666666666666" y="278.0"/>
      <point x="399.0" y="-20.0"/>
      <point x="775.0" y="-20.0" type="curve" smooth="yes"/>
      <point x="1091.3333333333333" y="-20.0"/>
      <point x="1315.6666666666667" y="192.0"/>
      <point x="1364.3333333333333" y="465.0" type="curve"/>
      <point x="1228.0" y="465.0" type="line"/>
      <point x="1186.3333333333333" y="261.0"/>
      <point x="1007.6666666666666" y="107.33333333333334"/>
      <point x="775.0" y="107.33333333333334" type="curve" smooth="yes"/>
      <point x="492.6666666666667" y="107.33333333333334"/>
      <point x="263.0" y="330.6666666666667"/>
      <point x="263.0" y="745.0" type="curve"/>
      <point x="263.0" y="1157.0"/>
      <point x="492.6666666666667" y="1381.6666666666667"/>
      <point x="775.0" y="1381.6666666666667" type="curve" smooth="yes"/>
      <point x="1007.6666666666666" y="1381.6666666666667"/>
      <point x="1186.3333333333333" y="1228.0"/>
      <point x="1228.0" y="1024.0" type="curve"/>
    </contour>
  </outline>
</glyph>
<glyph name="D" format="2">
  <advance height="2479.0" width="1469.0"/>
  <unicode hex="0044"/>
  <anchor x="612.3333333333334" y="0.0" name="bottom"/>
  <anchor x="266.0" y="764.0" name="cross"/>
  <anchor x="621.6666666666666" y="1676.0" name="top"/>
  <outline>
    <contour>
      <point x="634.3333333333334" y="0.0" type="line" smooth="yes"/>
      <point x="1082.6666666666667" y="0.0"/>
      <point x="1337.6666666666667" y="279.6666666666667"/>
      <point x="1338.3333333333333" y="749.0" type="curve" smooth="yes"/>
      <point x="1338.6666666666667" y="1211.3333333333333"/>
      <point x="1086.3333333333333" y="1489.0"/>
      <point x="660.0" y="1489.0" type="curve" smooth="yes"/>
      <point x="267.3333333333333" y="1489.0" type="line"/>
      <point x="267.3333333333333" y="1367.0" type="line"/>
      <point x="652.6666666666666" y="1367.0" type="line" smooth="yes"/>
      <point x="1014.3333333333334" y="1367.0"/>
      <point x="1205.6666666666667" y="1133.6666666666667"/>
      <point x="1206.0" y="749.0" type="curve" smooth="yes"/>
      <point x="1206.6666666666667" y="359.0"/>
      <point x="1010.6666666666666" y="122.33333333333334"/>
      <point x="626.3333333333334" y="122.33333333333334" type="curve" smooth="yes"/>
      <point x="273.3333333333333" y="122.33333333333334" type="line"/>
      <point x="273.3333333333333" y="0.0" type="line"/>
    </contour>
    <contour>
      <point x="333.6666666666667" y="1489.0" type="line"/>
      <point x="197.66666666666666" y="1489.0" type="line"/>
      <point x="197.66666666666666" y="0.0" type="line"/>
      <point x="333.6666666666667" y="0.0" type="line"/>
    </contour>
  </outline>
</glyph>
<glyph name="E" format="2">
  <advance height="2479.0" width="1215.3333333333333"/>
  <unicode hex="0045"/>
  <anchor x="609.0" y="0.0" name="bottom"/>
  <anchor x="612.0" y="0.0" name="cedilla"/>
  <anchor x="1076.3333333333333" y="0.0" name="ogonek"/>
  <anchor x="149.33333333333334" y="1489.0" name="tonos"/>
  <anchor x="630.0" y="1676.0" name="top"/>
  <outline>
    <contour>
      <point x="197.66666666666666" y="0.0" type="line"/>
      <point x="1076.3333333333333" y="0.0" type="line"/>
      <point x="1076.3333333333333" y="122.33333333333334" type="line"/>
      <point x="333.6666666666667" y="122.33333333333334" type="line"/>
      <point x="333.6666666666667" y="684.3333333333334" type="line"/>
      <point x="1016.3333333333334" y="684.3333333333334" type="line"/>
      <point x="1016.3333333333334" y="806.6666666666666" type="line"/>
      <point x="333.6666666666667" y="806.6666666666666" type="line"/>
      <point x="333.6666666666667" y="1367.0" type="line"/>
      <point x="1061.6666666666667" y="1367.0" type="line"/>
      <point x="1061.6666666666667" y="1489.0" type="line"/>
      <point x="197.66666666666666" y="1489.0" type="line"/>
    </contour>
  </outline>
</glyph>
<glyph name="F" format="2">
  <advance height="2479.0" width="1200.3333333333333"/>
  <unicode hex="0046"/>
  <anchor x="542.3333333333334" y="12.0" name="bottom"/>
  <anchor x="266.0" y="369.3333333333333" name="cross"/>
  <anchor x="642.0" y="1676.0" name="top"/>
  <outline>
    <contour>
      <point x="197.66666666666666" y="0.0" type="line"/>
      <point x="333.6666666666667" y="0.0" type="line"/>
      <point x="333.6666666666667" y="684.3333333333334" type="line"/>
      <point x="992.3333333333334" y="684.3333333333334" type="line"/>
      <point x="992.3333333333334" y="806.6666666666666" type="line"/>
      <point x="333.6666666666667" y="806.6666666666666" type="line"/>
      <point x="333.6666666666667" y="1367.0" type="line"/>
      <point x="1059.6666666666667" y="1367.0" type="line"/>
      <point x="1059.6666666666667" y="1489.0" type="line"/>
      <point x="197.66666666666666" y="1489.0" type="line"/>
    </contour>
  </outline>
</glyph>
<glyph name="G" format="2">
  <advance height="2479.0" width="1518.3333333333333"/>
  <unicode hex="0047"/>
  <anchor x="766.0" y="0.0" name="bottom"/>
  <anchor x="768.0" y="1676.0" name="top"/>
  <outline>
    <contour>
      <point x="1229.0" y="1024.0" type="curve"/>
      <point x="1368.3333333333333" y="1024.0" type="line"/>
      <point x="1319.3333333333333" y="1286.6666666666667"/>
      <point x="1096.3333333333333" y="1510.0"/>
      <point x="771.0" y="1510.0" type="curve" smooth="yes"/>
      <point x="393.3333333333333" y="1510.0"/>
      <point x="130.66666666666666" y="1211.6666666666667"/>
      <point x="130.66666666666666" y="745.0" type="curve" smooth="yes"/>
      <point x="130.66666666666666" y="278.3333333333333"/>
      <point x="391.0" y="-20.0"/>
      <point x="780.3333333333334" y="-20.0" type="curve" smooth="yes"/>
      <point x="1128.3333333333333" y="-20.0"/>
      <point x="1377.6666666666667" y="217.66666666666666"/>
      <point x="1377.6666666666667" y="599.3333333333334" type="curve" smooth="yes"/>
      <point x="1377.6666666666667" y="721.6666666666666" type="line"/>
      <point x="812.3333333333334" y="721.6666666666666" type="line"/>
      <point x="812.3333333333334" y="599.3333333333334" type="line"/>
      <point x="1289.6666666666667" y="599.3333333333334" type="line"/>
      <point x="1246.0" y="612.6666666666666" type="line"/>
      <point x="1248.0" y="300.0"/>
      <point x="1054.6666666666667" y="107.33333333333334"/>
      <point x="780.3333333333334" y="107.33333333333334" type="curve" smooth="yes"/>
      <point x="479.0" y="107.33333333333334"/>
      <point x="263.0" y="345.0"/>
      <point x="263.0" y="745.0" type="curve" smooth="yes"/>
      <point x="263.0" y="1146.3333333333333"/>
      <point x="480.3333333333333" y="1381.6666666666667"/>
      <point x="771.0" y="1381.6666666666667" type="curve" smooth="yes"/>
      <point x="1016.3333333333334" y="1381.6666666666667"/>
      <point x="1174.3333333333333" y="1222.3333333333333"/>
    </contour>
  </outline>
</glyph>
<glyph name="J" format="2">
  <advance height="2479.0" width="1096.3333333333333"/>
  <unicode hex="004A"/>
  <anchor x="830.3333333333334" y="884.0" name="cross"/>
  <anchor x="830.3333333333334" y="1676.0" name="top"/>
  <outline>
    <contour>
      <point x="762.3333333333334" y="1489.0" type="line"/>
      <point x="762.3333333333334" y="415.3333333333333" type="line"/>
      <point x="762.0" y="199.0"/>
      <point x="652.6666666666666" y="102.0"/>
      <point x="494.3333333333333" y="102.0" type="curve" smooth="yes"/>
      <point x="340.6666666666667" y="102.0"/>
      <point x="226.66666666666669" y="193.33333333333334"/>
      <point x="227.0" y="325.6666666666667" type="curve"/>
      <point x="93.0" y="325.6666666666667" type="line"/>
      <point x="92.33333333333333" y="116.0"/>
      <point x="263.3333333333333" y="-20.0"/>
      <point x="494.3333333333333" y="-20.0" type="curve" smooth="yes"/>
      <point x="730.6666666666666" y="-20.0"/>
      <point x="897.6666666666666" y="123.66666666666667"/>
      <point x="898.0" y="415.3333333333333" type="curve"/>
      <point x="898.0" y="1489.0" type="line"/>
    </contour>
  </outline>
</glyph>
<glyph name="K" format="2">
  <advance height="2479.0" width="1311.0"/>
  <unicode hex="004B"/>
  <anchor x="657.3333333333334" y="0.0" name="bottom"/>
  <anchor x="662.3333333333334" y="1676.0" name="top"/>
  <outline>
    <contour>
      <point x="197.66666666666666" y="0.0" type="line"/>
      <point x="333.6666666666667" y="0.0" type="line"/>
      <point x="333.6666666666667" y="484.0" type="line"/>
      <point x="532.3333333333334" y="705.6666666666666" type="line"/>
      <point x="1084.3333333333333" y="0.0" type="line"/>
      <point x="1250.0" y="0.0" type="line"/>
      <point x="616.3333333333334" y="800.6666666666666" type="line"/>
      <point x="1253.0" y="1489.0" type="line"/>
      <point x="1074.3333333333333" y="1489.0" type="line"/>
      <point x="347.0" y="687.6666666666666" type="line"/>
      <point x="333.6666666666667" y="687.6666666666666" type="line"/>
      <point x="333.6666666666667" y="1489.0" type="line"/>
      <point x="197.66666666666666" y="1489.0" type="line"/>
    </contour>
  </outline>
</glyph>
<glyph name="L" format="2">
  <advance height="2479.0" width="1152.0"/>
  <unicode hex="004C"/>
  <anchor x="620.6666666666666" y="0.0" name="bottom"/>
  <anchor x="266.0" y="768.0" name="cross"/>
  <anchor x="605.0" y="778.6666666666666" name="dot"/>
  <anchor x="617.6666666666666" y="1489.0" name="raccent"/>
  <anchor x="266.0" y="1676.0" name="top"/>
  <outline>
    <contour>
      <point x="197.66666666666666" y="0.0" type="line"/>
      <point x="1043.3333333333333" y="0.0" type="line"/>
      <point x="1043.3333333333333" y="122.33333333333334" type="line"/>
      <point x="333.6666666666667" y="122.33333333333334" type="line"/>
      <point x="333.6666666666667" y="1489.0" type="line"/>
      <point x="197.66666666666666" y="1489.0" type="line"/>
    </contour>
  </outline>
</glyph>
<glyph name="M" format="2">
  <advance height="2479.0" width="1804.3333333333333"/>
  <unicode hex="004D"/>
  <anchor x="902.0" y="0.0" name="bottom"/>
  <anchor x="1606.0" y="0.0" name="right"/>
  <anchor x="902.0" y="1676.0" name="top"/>
  <outline>
    <contour>
      <point x="197.66666666666666" y="1489.0" type="line"/>
      <point x="197.66666666666666" y="0.0" type="line"/>
      <point x="325.6666666666667" y="0.0" type="line"/>
      <point x="325.6666666666667" y="1202.6666666666667" type="line"/>
      <point x="337.6666666666667" y="1202.6666666666667" type="line"/>
      <point x="839.6666666666666" y="0.0" type="line"/>
      <point x="964.0" y="0.0" type="line"/>
      <point x="1466.0" y="1202.6666666666667" type="line"/>
      <point x="1477.6666666666667" y="1202.6666666666667" type="line"/>
      <point x="1477.6666666666667" y="0.0" type="line"/>
      <point x="1606.0" y="0.0" type="line"/>
      <point x="1606.0" y="1489.0" type="line"/>
      <point x="1448.3333333333333" y="1489.0" type="line"/>
      <point x="908.3333333333334" y="192.0" type="line"/>
      <point x="895.0" y="192.0" type="line"/>
      <point x="355.0" y="1489.0" type="line"/>
    </contour>
  </outline>
</glyph>
<glyph name="N" format="2">
  <advance height="2479.0" width="1555.6666666666667"/>
  <unicode hex="004E"/>
  <anchor x="777.6666666666666" y="0.0" name="bottom"/>
  <anchor x="1339.3333333333333" y="0.0" name="right"/>
  <anchor x="777.6666666666666" y="1676.0" name="top"/>
  <outline>
    <contour>
      <point x="1357.3333333333333" y="1489.0" type="line"/>
      <point x="1223.6666666666667" y="1489.0" type="line"/>
      <point x="1223.6666666666667" y="240.33333333333334" type="line"/>
      <point x="1211.6666666666667" y="240.33333333333334" type="line"/>
      <point x="329.6666666666667" y="1489.0" type="line"/>
      <point x="197.66666666666666" y="1489.0" type="line"/>
      <point x="197.66666666666666" y="0.0" type="line"/>
      <point x="333.6666666666667" y="0.0" type="line"/>
      <point x="333.6666666666667" y="1246.6666666666667" type="line"/>
      <point x="345.0" y="1246.6666666666667" type="line"/>
      <point x="1225.6666666666667" y="0.0" type="line"/>
      <point x="1357.3333333333333" y="0.0" type="line"/>
    </contour>
  </outline>
</glyph>
<glyph name="O" format="2">
  <advance height="2479.0" width="1549.3333333333333"/>
  <unicode hex="004F"/>
  <anchor x="775.0" y="0.0" name="bottom"/>
  <anchor x="881.3333333333334" y="-4.0" name="ogonek"/>
  <anchor x="205.66666666666666" y="1489.0" name="tonos"/>
  <anchor x="775.0" y="1676.0" name="top"/>
  <outline>
    <contour>
      <point x="1418.6666666666667" y="745.0" type="curve"/>
      <point x="1418.6666666666667" y="1210.6666666666667"/>
      <point x="1151.3333333333333" y="1510.0"/>
      <point x="775.0" y="1510.0" type="curve" smooth="yes"/>
      <point x="398.6666666666667" y="1510.0"/>
      <point x="130.66666666666666" y="1210.3333333333333"/>
      <point x="130.66666666666666" y="745.0" type="curve"/>
      <point x="130.66666666666666" y="279.0"/>
      <point x="398.3333333333333" y="-20.0"/>
      <point x="775.0" y="-20.0" type="curve" smooth="yes"/>
      <point x="1151.3333333333333" y="-20.0"/>
      <point x="1418.6666666666667" y="278.3333333333333"/>
    </contour>
    <contour>
      <point x="1287.0" y="745.0" type="curve"/>
      <point x="1287.3333333333333" y="344.3333333333333"/>
      <point x="1068.0" y="107.33333333333334"/>
      <point x="775.0" y="107.33333333333334" type="curve" smooth="yes"/>
      <point x="480.3333333333333" y="107.33333333333334"/>
      <point x="263.0" y="345.3333333333333"/>
      <point x="263.0" y="745.0" type="curve"/>
      <point x="263.0" y="1146.3333333333333"/>
      <point x="482.0" y="1381.6666666666667"/>
      <point x="775.0" y="1381.6666666666667" type="curve" smooth="yes"/>
      <point x="1068.0" y="1381.6666666666667"/>
      <point x="1287.0" y="1145.3333333333333"/>
    </contour>
  </outline>
</glyph>
<glyph name="P" format="2">
  <advance height="2479.0" width="1280.6666666666667"/>
  <unicode hex="0050"/>
  <anchor x="159.66666666666666" y="1489.0" name="tonos"/>
  <anchor x="645.0" y="1676.0" name="top"/>
  <outline>
    <contour>
      <point x="197.66666666666666" y="0.0" type="line"/>
      <point x="333.6666666666667" y="0.0" type="line"/>
      <point x="333.6666666666667" y="1367.0" type="line"/>
      <point x="675.0" y="1367.0" type="line" smooth="yes"/>
      <point x="910.6666666666666" y="1367.0"/>
      <point x="1024.6666666666667" y="1225.0"/>
      <point x="1024.6666666666667" y="1029.6666666666667" type="curve" smooth="yes"/>
      <point x="1024.6666666666667" y="834.6666666666666"/>
      <point x="910.6666666666666" y="691.3333333333334"/>
      <point x="677.0" y="691.3333333333334" type="curve" smooth="yes"/>
      <point x="302.6666666666667" y="691.3333333333334" type="line"/>
      <point x="302.6666666666667" y="569.3333333333334" type="line"/>
      <point x="681.0" y="569.3333333333334" type="line" smooth="yes"/>
      <point x="995.0" y="569.3333333333334"/>
      <point x="1159.0" y="769.6666666666666"/>
      <point x="1159.0" y="1029.6666666666667" type="curve" smooth="yes"/>
      <point x="1159.0" y="1290.0"/>
      <point x="995.0" y="1489.0"/>
      <point x="679.0" y="1489.0" type="curve" smooth="yes"/>
      <point x="197.66666666666666" y="1489.0" type="line"/>
    </contour>
  </outline>
</glyph>
<glyph name="Q" format="2">
  <advance height="2479.0" width="1549.3333333333333"/>
  <unicode hex="0051"/>
  <anchor x="775.0" y="0.0" name="bottom"/>
  <anchor x="881.3333333333334" y="-4.0" name="ogonek"/>
  <anchor x="205.66666666666666" y="1489.0" name="tonos"/>
  <anchor x="775.0" y="1676.0" name="top"/>
  <outline>
    <contour>
      <point x="755.0" y="465.0" type="line"/>
      <point x="1010.6666666666666" y="130.0" type="line"/>
      <point x="1040.3333333333333" y="89.66666666666667" type="line"/>
      <point x="1212.0" y="-140.0" type="line"/>
      <point x="1363.3333333333333" y="-140.0" type="line"/>
      <point x="1130.0" y="170.66666666666666" type="line"/>
      <point x="1097.6666666666667" y="213.0" type="line"/>
      <point x="906.3333333333334" y="465.0" type="line"/>
    </contour>
    <component base="O"/>
  </outline>
</glyph>
<glyph name="R" format="2">
  <advance height="2479.0" width="1292.6666666666667"/>
  <unicode hex="0052"/>
  <anchor x="663.3333333333334" y="0.0" name="bottom"/>
  <anchor x="639.0" y="1676.0" name="top"/>
  <outline>
    <contour>
      <point x="197.66666666666666" y="0.0" type="line"/>
      <point x="333.6666666666667" y="0.0" type="line"/>
      <point x="333.6666666666667" y="1367.0" type="line"/>
      <point x="675.0" y="1367.0" type="line" smooth="yes"/>
      <point x="910.0" y="1367.0"/>
      <point x="1024.6666666666667" y="1239.0"/>
      <point x="1024.6666666666667" y="1043.6666666666667" type="curve" smooth="yes"/>
      <point x="1024.6666666666667" y="848.6666666666666"/>
      <point x="910.0" y="726.3333333333334"/>
      <point x="677.0" y="726.3333333333334" type="curve" smooth="yes"/>
      <point x="271.3333333333333" y="726.3333333333334" type="line"/>
      <point x="271.3333333333333" y="602.3333333333334" type="line"/>
      <point x="681.0" y="602.3333333333334" type="line" smooth="yes"/>
      <point x="995.0" y="602.3333333333334"/>
      <point x="1159.0" y="783.0"/>
      <point x="1159.0" y="1043.6666666666667" type="curve" smooth="yes"/>
      <point x="1159.0" y="1304.0"/>
      <point x="995.0" y="1489.0"/>
      <point x="679.0" y="1489.0" type="curve" smooth="yes"/>
      <point x="197.66666666666666" y="1489.0" type="line"/>
    </contour>
    <contour>
      <point x="854.0" y="672.0" type="line"/>
      <point x="701.3333333333334" y="672.0" type="line"/>
      <point x="1064.0" y="0.0" type="line"/>
      <point x="1221.0" y="0.0" type="line"/>
    </contour>
  </outline>
</glyph>
<glyph name="S" format="2">
  <advance height="2479.0" width="1288.6666666666667"/>
  <unicode hex="0053"/>
  <anchor x="646.0" y="-25.0" name="bottom"/>
  <anchor x="646.0" y="0.0" name="cedilla"/>
  <anchor x="644.0" y="1676.0" name="top"/>
  <outline>
    <contour>
      <point x="1006.6666666666666" y="1117.0" type="curve"/>
      <point x="1138.0" y="1117.0" type="line"/>
      <point x="1128.0" y="1343.6666666666667"/>
      <point x="932.3333333333334" y="1511.0"/>
      <point x="655.3333333333334" y="1511.0" type="curve" smooth="yes"/>
      <point x="380.6666666666667" y="1511.0"/>
      <point x="168.66666666666666" y="1345.3333333333333"/>
      <point x="168.66666666666666" y="1105.6666666666667" type="curve" smooth="yes"/>
      <point x="168.66666666666666" y="914.0"/>
      <point x="304.3333333333333" y="794.6666666666666"/>
      <point x="537.0" y="725.3333333333334" type="curve" smooth="yes"/>
      <point x="716.0" y="673.3333333333334" type="line" smooth="yes"/>
      <point x="901.0" y="619.0"/>
      <point x="1026.6666666666667" y="550.0"/>
      <point x="1026.6666666666667" y="397.3333333333333" type="curve" smooth="yes"/>
      <point x="1026.6666666666667" y="218.33333333333334"/>
      <point x="865.0" y="99.0"/>
      <point x="642.3333333333334" y="99.0" type="curve" smooth="yes"/>
      <point x="441.6666666666667" y="99.0"/>
      <point x="284.0" y="195.33333333333334"/>
      <point x="270.0" y="372.3333333333333" type="curve"/>
      <point x="129.66666666666666" y="372.3333333333333" type="line"/>
      <point x="146.66666666666666" y="136.66666666666666"/>
      <point x="338.3333333333333" y="-25.0"/>
      <point x="642.3333333333334" y="-25.0" type="curve" smooth="yes"/>
      <point x="965.0" y="-25.0"/>
      <point x="1159.0" y="157.0"/>
      <point x="1159.0" y="395.3333333333333" type="curve" smooth="yes"/>
      <point x="1159.0" y="643.0"/>
      <point x="943.0" y="741.6666666666666"/>
      <point x="754.3333333333334" y="795.3333333333334" type="curve" smooth="yes"/>
      <point x="597.6666666666666" y="839.6666666666666" type="line" smooth="yes"/>
      <point x="452.3333333333333" y="880.6666666666666"/>
      <point x="301.0" y="954.3333333333334"/>
      <point x="301.0" y="1111.6666666666667" type="curve" smooth="yes"/>
      <point x="301.0" y="1271.3333333333333"/>
      <point x="444.3333333333333" y="1388.6666666666667"/>
      <point x="651.3333333333334" y="1388.6666666666667" type="curve" smooth="yes"/>
      <point x="849.0" y="1388.6666666666667"/>
      <point x="989.6666666666666" y="1283.0"/>
    </contour>
  </outline>
</glyph>
<glyph name="T" format="2">
  <advance height="2479.0" width="1295.6666666666667"/>
  <unicode hex="0054"/>
  <anchor x="647.3333333333334" y="0.0" name="bottom"/>
  <anchor x="663.3333333333334" y="-2.0" name="cedilla"/>
  <anchor x="647.3333333333334" y="768.0" name="cross"/>
  <anchor x="776.6666666666666" y="44.66666666666667" name="cyrtic"/>
  <anchor x="678.6666666666666" y="0.0" name="right"/>
  <anchor x="647.3333333333334" y="1676.0" name="top"/>
  <outline>
    <contour>
      <point x="107.66666666666667" y="1367.0" type="line"/>
      <point x="579.6666666666666" y="1367.0" type="line"/>
      <point x="579.6666666666666" y="0.0" type="line"/>
      <point x="716.0" y="0.0" type="line"/>
      <point x="716.0" y="1367.0" type="line"/>
      <point x="1188.0" y="1367.0" type="line"/>
      <point x="1188.0" y="1489.0" type="line"/>
      <point x="107.66666666666667" y="1489.0" type="line"/>
    </contour>
  </outline>
</glyph>
<glyph name="U" format="2">
  <advance height="2479.0" width="1524.6666666666667"/>
  <unicode hex="0055"/>
  <anchor x="762.0" y="-21.0" name="bottom"/>
  <anchor x="878.3333333333334" y="0.0" name="ogonek"/>
  <anchor x="839.0" y="0.0" name="right"/>
  <anchor x="762.0" y="1676.0" name="top"/>
  <outline>
    <contour>
      <point x="1191.0" y="1489.0" type="line"/>
      <point x="1191.0" y="513.0" type="line" smooth="yes"/>
      <point x="1191.0" y="276.0"/>
      <point x="1021.6666666666666" y="103.0"/>
      <point x="762.0" y="103.0" type="curve" smooth="yes"/>
      <point x="503.0" y="103.0"/>
      <point x="333.6666666666667" y="276.0"/>
      <point x="333.6666666666667" y="513.0" type="curve" smooth="yes"/>
      <point x="333.6666666666667" y="1489.0" type="line"/>
      <point x="197.66666666666666" y="1489.0" type="line"/>
      <point x="197.66666666666666" y="503.0" type="line" smooth="yes"/>
      <point x="197.0" y="199.33333333333334"/>
      <point x="427.0" y="-25.0"/>
      <point x="762.0" y="-25.0" type="curve" smooth="yes"/>
      <point x="1098.0" y="-25.0"/>
      <point x="1326.3333333333333" y="199.0"/>
      <point x="1326.3333333333333" y="503.0" type="curve" smooth="yes"/>
      <point x="1326.3333333333333" y="1489.0" type="line"/>
    </contour>
  </outline>
</glyph>
<glyph name="V" format="2">
  <advance height="2479.0" width="1344.3333333333333"/>
  <unicode hex="0056"/>
  <anchor x="671.6666666666666" y="0.0" name="bottom"/>
  <anchor x="671.6666666666666" y="1676.0" name="top"/>
  <outline>
    <contour>
      <point x="199.33333333333334" y="1489.0" type="line"/>
      <point x="57.0" y="1489.0" type="line"/>
      <point x="599.0" y="0.0" type="line"/>
      <point x="744.3333333333334" y="0.0" type="line"/>
      <point x="1286.6666666666667" y="1489.0" type="line"/>
      <point x="1144.0" y="1489.0" type="line"/>
      <point x="678.6666666666666" y="176.66666666666669" type="line"/>
      <point x="665.3333333333334" y="176.66666666666669" type="line"/>
    </contour>
  </outline>
</glyph>
<glyph name="W" format="2">
  <advance height="2479.0" width="1902.3333333333333"/>
  <unicode hex="0057"/>
  <anchor x="951.3333333333334" y="12.0" name="bottom"/>
  <anchor x="951.3333333333334" y="1676.0" name="top"/>
  <outline>
    <contour>
      <point x="455.6666666666667" y="0.0" type="line"/>
      <point x="601.0" y="0.0" type="line"/>
      <point x="946.6666666666666" y="1263.6666666666667" type="line"/>
      <point x="955.6666666666666" y="1263.6666666666667" type="line"/>
      <point x="1301.3333333333333" y="0.0" type="line"/>
      <point x="1446.6666666666667" y="0.0" type="line"/>
      <point x="1855.3333333333333" y="1489.0" type="line"/>
      <point x="1716.0" y="1489.0" type="line"/>
      <point x="1378.6666666666667" y="208.33333333333334" type="line"/>
      <point x="1367.6666666666667" y="208.33333333333334" type="line"/>
      <point x="1029.3333333333333" y="1489.0" type="line"/>
      <point x="872.6666666666666" y="1489.0" type="line"/>
      <point x="535.3333333333334" y="208.33333333333334" type="line"/>
      <point x="523.3333333333334" y="208.33333333333334" type="line"/>
      <point x="186.33333333333334" y="1489.0" type="line"/>
      <point x="47.666666666666664" y="1489.0" type="line"/>
    </contour>
  </outline>
</glyph>
<glyph name="X" format="2">
  <advance height="2479.0" width="1276.3333333333333"/>
  <unicode hex="0058"/>
  <anchor x="637.6666666666666" y="12.0" name="bottom"/>
  <anchor x="637.6666666666666" y="745.0" name="cross"/>
  <anchor x="1194.0" y="44.66666666666667" name="cyrtic"/>
  <anchor x="1112.3333333333333" y="0.0" name="right"/>
  <anchor x="637.6666666666666" y="1676.0" name="top"/>
  <outline>
    <contour>
      <point x="221.33333333333334" y="1489.0" type="line"/>
      <point x="60.0" y="1489.0" type="line"/>
      <point x="546.6666666666666" y="745.0" type="line"/>
      <point x="60.0" y="0.0" type="line"/>
      <point x="221.33333333333334" y="0.0" type="line"/>
      <point x="633.3333333333334" y="639.0" type="line"/>
      <point x="642.6666666666666" y="639.0" type="line"/>
      <point x="1055.0" y="0.0" type="line"/>
      <point x="1216.3333333333333" y="0.0" type="line"/>
      <point x="736.6666666666666" y="745.0" type="line"/>
      <point x="1216.3333333333333" y="1489.0" type="line"/>
      <point x="1055.0" y="1489.0" type="line"/>
      <point x="642.6666666666666" y="842.6666666666666" type="line"/>
      <point x="633.3333333333334" y="842.6666666666666" type="line"/>
    </contour>
  </outline>
</glyph>
<glyph name="Y" format="2">
  <advance height="2479.0" width="1326.3333333333333"/>
  <unicode hex="0059"/>
  <anchor x="662.3333333333334" y="0.0" name="bottom"/>
  <anchor x="663.3333333333334" y="597.0" name="cross"/>
  <anchor x="731.3333333333334" y="0.0" name="ogonek"/>
  <anchor x="12.666666666666666" y="1489.0" name="tonos"/>
  <anchor x="663.3333333333334" y="1676.0" name="top"/>
  <outline>
    <contour>
      <point x="58.0" y="1489.0" type="line"/>
      <point x="595.6666666666666" y="645.0" type="line"/>
      <point x="595.6666666666666" y="0.0" type="line"/>
      <point x="731.3333333333334" y="0.0" type="line"/>
      <point x="731.3333333333334" y="645.0" type="line"/>
      <point x="1268.3333333333333" y="1489.0" type="line"/>
      <point x="1111.6666666666667" y="1489.0" type="line"/>
      <point x="669.6666666666666" y="782.3333333333334" type="line"/>
      <point x="656.3333333333334" y="782.3333333333334" type="line"/>
      <point x="215.33333333333334" y="1489.0" type="line"/>
    </contour>
  </outline>
</glyph>
<glyph name="Z" format="2">
  <advance height="2479.0" width="1266.3333333333333"/>
  <unicode hex="005A"/>
  <anchor x="629.3333333333334" y="0.0" name="bottom"/>
  <anchor x="643.3333333333334" y="760.3333333333334" name="cross"/>
  <anchor x="633.3333333333334" y="1676.0" name="top"/>
  <outline>
    <contour>
      <point x="138.66666666666666" y="0.0" type="line"/>
      <point x="1135.6666666666667" y="0.0" type="line"/>
      <point x="1135.6666666666667" y="122.33333333333334" type="line"/>
      <point x="300.3333333333333" y="122.33333333333334" type="line"/>
      <point x="1127.6666666666667" y="1387.0" type="line"/>
      <point x="1127.6666666666667" y="1489.0" type="line"/>
      <point x="134.66666666666666" y="1489.0" type="line"/>
      <point x="134.66666666666666" y="1367.0" type="line"/>
      <point x="966.0" y="1367.0" type="line"/>
      <point x="138.66666666666666" y="103.0" type="line"/>
    </contour>
  </outline>
</glyph>
<glyph name="bracketleft" format="2">
  <advance height="2479.0" width="710.0"/>
  <unicode hex="005B"/>
  <outline>
    <contour>
      <point x="246.0" y="-303.0" type="line"/>
      <point x="618.6666666666666" y="-303.0" type="line"/>
      <point x="618.6666666666666" y="-192.0" type="line"/>
      <point x="370.3333333333333" y="-192.0" type="line"/>
      <point x="370.3333333333333" y="1449.0" type="line"/>
      <point x="618.6666666666666" y="1449.0" type="line"/>
      <point x="618.6666666666666" y="1559.0" type="line"/>
      <point x="246.0" y="1559.0" type="line"/>
    </contour>
  </outline>
</glyph>
<glyph name="backslash" format="2">
  <advance height="2479.0" width="707.6666666666666"/>
  <unicode hex="005C"/>
  <outline>
    <contour>
      <point x="532.6666666666666" y="-224.0" type="line"/>
      <point x="654.0" y="-224.0" type="line"/>
      <point x="174.0" y="1559.0" type="line"/>
      <point x="52.666666666666664" y="1559.0" type="line"/>
    </contour>
  </outline>
</glyph>
<glyph name="asciicircum" format="2">
  <advance height="2479.0" width="913.3333333333334"/>
  <unicode hex="005E"/>
  <outline>
    <contour>
      <point x="434.6666666666667" y="1378.6666666666667" type="line"/>
      <point x="434.6666666666667" y="1315.0" type="line"/>
      <point x="479.0" y="1315.0" type="line"/>
      <point x="479.0" y="1378.6666666666667" type="line"/>
    </contour>
    <contour>
      <point x="86.0" y="815.0" type="line"/>
      <point x="220.0" y="815.0" type="line"/>
      <point x="466.6666666666667" y="1344.0" type="line"/>
      <point x="447.0" y="1344.0" type="line"/>
      <point x="695.3333333333334" y="815.0" type="line"/>
      <point x="827.3333333333334" y="815.0" type="line"/>
      <point x="528.6666666666666" y="1443.0" type="line"/>
      <point x="385.0" y="1443.0" type="line"/>
    </contour>
  </outline>
</glyph>
<glyph name="underscore" format="2">
  <advance height="2479.0" width="908.0"/>
  <unicode hex="005F"/>
  <anchor x="451.0" y="163.66666666666666" name="_bottom"/>
  <outline>
    <contour>
      <point x="911.6666666666666" y="0.0" type="line"/>
      <point x="-4.0" y="0.0" type="line"/>
      <point x="-4.0" y="-122.33333333333334" type="line"/>
      <point x="911.6666666666666" y="-122.33333333333334" type="line"/>
    </contour>
  </outline>
</glyph>
<glyph name="a" format="2">
  <advance height="2479.0" width="1139.3333333333333"/>
  <unicode hex="0061"/>
  <anchor x="577.3333333333334" y="0.0" name="bottom"/>
  <anchor x="967.0" y="0.0" name="ogonek"/>
  <anchor x="575.3333333333334" y="1303.0" name="rhalfring"/>
  <anchor x="581.6666666666666" y="1303.0" name="top"/>
  <outline>
    <contour>
      <point x="483.0" y="-24.333333333333332" type="curve" smooth="yes"/>
      <point x="669.3333333333334" y="-24.333333333333332"/>
      <point x="783.0" y="78.0"/>
      <point x="828.6666666666666" y="176.33333333333334" type="curve"/>
      <point x="836.6666666666666" y="176.33333333333334" type="line"/>
      <point x="836.6666666666666" y="0.0" type="line"/>
      <point x="967.0" y="0.0" type="line"/>
      <point x="967.0" y="758.3333333333334" type="line" smooth="yes"/>
      <point x="967.0" y="1058.0"/>
      <point x="740.6666666666666" y="1133.0"/>
      <point x="570.3333333333334" y="1133.0" type="curve" smooth="yes"/>
      <point x="399.6666666666667" y="1133.0"/>
      <point x="223.0" y="1064.3333333333333"/>
      <point x="147.66666666666666" y="882.6666666666666" type="curve"/>
      <point x="270.6666666666667" y="838.0" type="line"/>
      <point x="311.0" y="933.6666666666666"/>
      <point x="412.6666666666667" y="1016.0"/>
      <point x="574.3333333333334" y="1016.0" type="curve" smooth="yes"/>
      <point x="743.0" y="1016.0"/>
      <point x="836.6666666666666" y="923.0"/>
      <point x="836.6666666666666" y="769.6666666666666" type="curve" smooth="yes"/>
      <point x="836.6666666666666" y="744.0" type="line" smooth="yes"/>
      <point x="836.6666666666666" y="659.6666666666666"/>
      <point x="732.3333333333334" y="658.3333333333334"/>
      <point x="545.0" y="635.3333333333334" type="curve" smooth="yes"/>
      <point x="292.3333333333333" y="603.6666666666666"/>
      <point x="115.66666666666667" y="533.3333333333334"/>
      <point x="115.66666666666667" y="312.3333333333333" type="curve" smooth="yes"/>
      <point x="115.66666666666667" y="97.0"/>
      <point x="280.0" y="-24.333333333333332"/>
    </contour>
    <contour>
      <point x="500.3333333333333" y="93.66666666666667" type="curve" smooth="yes"/>
      <point x="353.6666666666667" y="93.66666666666667"/>
      <point x="245.0" y="170.66666666666666"/>
      <point x="245.0" y="306.3333333333333" type="curve" smooth="yes"/>
      <point x="245.0" y="441.0"/>
      <point x="356.0" y="498.3333333333333"/>
      <point x="544.6666666666666" y="521.3333333333334" type="curve" smooth="yes"/>
      <point x="636.0" y="532.3333333333334"/>
      <point x="799.0" y="553.0"/>
      <point x="836.6666666666666" y="589.3333333333334" type="curve"/>
      <point x="836.6666666666666" y="428.3333333333333" type="line" smooth="yes"/>
      <point x="836.6666666666666" y="245.66666666666666"/>
      <point x="707.0" y="93.66666666666667"/>
    </contour>
  </outline>
</glyph>
<glyph name="b" format="2">
  <advance height="2479.0" width="1255.6666666666667"/>
  <unicode hex="0062"/>
  <anchor x="680.3333333333334" y="0.0" name="bottom"/>
  <anchor x="264.0" y="1280.0" name="cross"/>
  <anchor x="679.0" y="1303.0" name="top"/>
  <outline>
    <contour>
      <point x="197.66666666666666" y="0.0" type="line"/>
      <point x="323.6666666666667" y="0.0" type="line"/>
      <point x="323.6666666666667" y="207.66666666666666" type="line"/>
      <point x="339.6666666666667" y="207.66666666666666" type="line"/>
      <point x="384.3333333333333" y="105.33333333333333"/>
      <point x="479.3333333333333" y="-23.0"/>
      <point x="682.3333333333334" y="-23.0" type="curve" smooth="yes"/>
      <point x="957.0" y="-23.0"/>
      <point x="1142.6666666666667" y="209.0"/>
      <point x="1142.6666666666667" y="556.0" type="curve" smooth="yes"/>
      <point x="1142.6666666666667" y="900.0"/>
      <point x="956.3333333333334" y="1133.0"/>
      <point x="680.3333333333334" y="1133.0" type="curve" smooth="yes"/>
      <point x="476.0" y="1133.0"/>
      <point x="383.6666666666667" y="1004.6666666666666"/>
      <point x="339.6666666666667" y="904.0" type="curve"/>
      <point x="327.6666666666667" y="904.0" type="line"/>
      <point x="327.6666666666667" y="1489.0" type="line"/>
      <point x="197.66666666666666" y="1489.0" type="line"/>
    </contour>
    <contour>
      <point x="325.6666666666667" y="558.0" type="curve" smooth="yes"/>
      <point x="325.6666666666667" y="825.3333333333334"/>
      <point x="449.3333333333333" y="1014.0"/>
      <point x="667.0" y="1014.0" type="curve" smooth="yes"/>
      <point x="891.0" y="1014.0"/>
      <point x="1012.3333333333334" y="815.3333333333334"/>
      <point x="1012.3333333333334" y="558.0" type="curve" smooth="yes"/>
      <point x="1012.3333333333334" y="297.6666666666667"/>
      <point x="889.3333333333334" y="95.0"/>
      <point x="667.0" y="95.0" type="curve" smooth="yes"/>
      <point x="450.6666666666667" y="95.0"/>
      <point x="325.6666666666667" y="287.6666666666667"/>
    </contour>
  </outline>
</glyph>
<glyph name="c" format="2">
  <advance height="2479.0" width="1139.3333333333333"/>
  <unicode hex="0063"/>
  <anchor x="599.3333333333334" y="0.0" name="cedilla"/>
  <anchor x="599.3333333333334" y="1303.0" name="top"/>
  <outline>
    <contour>
      <point x="607.0" y="-23.0" type="curve" smooth="yes"/>
      <point x="839.6666666666666" y="-23.0"/>
      <point x="1003.3333333333334" y="123.66666666666667"/>
      <point x="1033.6666666666667" y="326.0" type="curve"/>
      <point x="903.0" y="326.0" type="line"/>
      <point x="872.6666666666666" y="183.66666666666666"/>
      <point x="755.6666666666666" y="95.0"/>
      <point x="607.0" y="95.0" type="curve" smooth="yes"/>
      <point x="388.3333333333333" y="95.0"/>
      <point x="243.0" y="286.0"/>
      <point x="243.0" y="558.0" type="curve" smooth="yes"/>
      <point x="243.0" y="828.3333333333334"/>
      <point x="393.0" y="1014.0"/>
      <point x="607.0" y="1014.0" type="curve" smooth="yes"/>
      <point x="766.3333333333334" y="1014.0"/>
      <point x="874.3333333333334" y="911.6666666666666"/>
      <point x="902.0" y="785.6666666666666" type="curve"/>
      <point x="1032.6666666666667" y="785.6666666666666" type="line"/>
      <point x="1002.0" y="993.0"/>
      <point x="829.0" y="1133.0"/>
      <point x="605.0" y="1133.0" type="curve" smooth="yes"/>
      <point x="312.3333333333333" y="1133.0"/>
      <point x="113.66666666666667" y="889.6666666666666"/>
      <point x="113.66666666666667" y="554.0" type="curve" smooth="yes"/>
      <point x="113.66666666666667" y="220.33333333333334"/>
      <point x="307.3333333333333" y="-23.0"/>
    </contour>
  </outline>
</glyph>
<glyph name="d" format="2">
  <advance height="2479.0" width="1256.3333333333333"/>
  <unicode hex="0064"/>
  <anchor x="608.6666666666666" y="0.0" name="bottom"/>
  <anchor x="993.0" y="1280.0" name="cross"/>
  <anchor x="1196.3333333333333" y="1489.0" name="raccent"/>
  <anchor x="591.3333333333334" y="1489.0" name="top"/>
  <outline>
    <contour>
      <point x="573.0" y="-23.0" type="curve" smooth="yes"/>
      <point x="776.0" y="-23.0"/>
      <point x="871.0" y="105.66666666666667"/>
      <point x="916.6666666666666" y="207.66666666666666" type="curve"/>
      <point x="931.6666666666666" y="207.66666666666666" type="line"/>
      <point x="931.6666666666666" y="0.0" type="line"/>
      <point x="1058.0" y="0.0" type="line"/>
      <point x="1058.0" y="1489.0" type="line"/>
      <point x="927.6666666666666" y="1489.0" type="line"/>
      <point x="927.6666666666666" y="904.0" type="line"/>
      <point x="916.6666666666666" y="904.0" type="line"/>
      <point x="871.6666666666666" y="1004.6666666666666"/>
      <point x="779.6666666666666" y="1133.0"/>
      <point x="575.0" y="1133.0" type="curve" smooth="yes"/>
      <point x="300.0" y="1133.0"/>
      <point x="113.66666666666667" y="900.0"/>
      <point x="113.66666666666667" y="556.0" type="curve" smooth="yes"/>
      <point x="113.66666666666667" y="209.0"/>
      <point x="299.0" y="-23.0"/>
    </contour>
    <contour>
      <point x="588.3333333333334" y="95.0" type="curve" smooth="yes"/>
      <point x="366.0" y="95.0"/>
      <point x="243.0" y="297.6666666666667"/>
      <point x="243.0" y="558.0" type="curve" smooth="yes"/>
      <point x="243.0" y="815.3333333333334"/>
      <point x="364.6666666666667" y="1014.0"/>
      <point x="588.3333333333334" y="1014.0" type="curve" smooth="yes"/>
      <point x="807.0" y="1014.0"/>
      <point x="929.6666666666666" y="825.3333333333334"/>
      <point x="929.6666666666666" y="558.0" type="curve" smooth="yes"/>
      <point x="929.6666666666666" y="287.6666666666667"/>
      <point x="805.6666666666666" y="95.0"/>
    </contour>
  </outline>
</glyph>
<glyph name="e" format="2">
  <advance height="2479.0" width="1189.0"/>
  <unicode hex="0065"/>
  <anchor x="596.3333333333334" y="0.0" name="bottom"/>
  <anchor x="599.0" y="0.0" name="cedilla"/>
  <anchor x="725.3333333333334" y="0.0" name="ogonek"/>
  <anchor x="596.3333333333334" y="1303.0" name="top"/>
  <outline>
    <contour>
      <point x="622.3333333333334" y="-23.0" type="curve"/>
      <point x="846.0" y="-23.0"/>
      <point x="996.6666666666666" y="97.66666666666667"/>
      <point x="1048.6666666666667" y="238.66666666666666" type="curve"/>
      <point x="925.3333333333334" y="278.0" type="line"/>
      <point x="882.3333333333334" y="178.33333333333334"/>
      <point x="781.0" y="95.0"/>
      <point x="622.3333333333334" y="95.0" type="curve" smooth="yes"/>
      <point x="389.6666666666667" y="95.0"/>
      <point x="243.0" y="269.3333333333333"/>
      <point x="243.0" y="536.3333333333334" type="curve" smooth="yes"/>
      <point x="243.0" y="604.3333333333334" type="line" smooth="yes"/>
      <point x="245.0" y="826.0"/>
      <point x="389.3333333333333" y="1014.0"/>
      <point x="603.0" y="1014.0" type="curve"/>
      <point x="802.6666666666666" y="1014.0"/>
      <point x="943.3333333333334" y="849.6666666666666"/>
      <point x="943.3333333333334" y="634.3333333333334" type="curve"/>
      <point x="202.66666666666666" y="634.3333333333334" type="line"/>
      <point x="202.66666666666666" y="519.6666666666666" type="line"/>
      <point x="1075.3333333333333" y="519.6666666666666" type="line"/>
      <point x="1075.3333333333333" y="583.6666666666666" type="line" smooth="yes"/>
      <point x="1075.3333333333333" y="957.3333333333334"/>
      <point x="845.0" y="1133.0"/>
      <point x="603.0" y="1133.0" type="curve" smooth="yes"/>
      <point x="313.0" y="1133.0"/>
      <point x="113.66666666666667" y="890.0"/>
      <point x="113.66666666666667" y="552.0" type="curve" smooth="yes"/>
      <point x="113.66666666666667" y="213.66666666666666"/>
      <point x="310.0" y="-23.0"/>
    </contour>
  </outline>
</glyph>
<glyph name="f" format="2">
  <advance height="2479.0" width="718.6666666666666"/>
  <unicode hex="0066"/>
  <anchor x="319.0" y="0.0" name="bottom"/>
  <anchor x="318.3333333333333" y="649.0" name="cross"/>
  <anchor x="372.6666666666667" y="1676.0" name="top"/>
  <outline>
    <contour>
      <point x="630.6666666666666" y="1117.0" type="line"/>
      <point x="81.33333333333333" y="1117.0" type="line"/>
      <point x="81.33333333333333" y="1005.0" type="line"/>
      <point x="630.6666666666666" y="1005.0" type="line"/>
    </contour>
    <component base="_part.f_base"/>
  </outline>
</glyph>
<glyph name="g" format="2">
  <advance height="2479.0" width="1230.6666666666667"/>
  <unicode hex="0067"/>
  <anchor x="602.3333333333334" y="-440.0" name="bottom"/>
  <anchor x="995.6666666666666" y="562.3333333333334" name="cross"/>
  <anchor x="615.3333333333334" y="1303.0" name="top"/>
  <outline>
    <contour>
      <point x="597.3333333333334" y="-442.0" type="curve" smooth="yes"/>
      <point x="862.0" y="-442.0"/>
      <point x="1058.0" y="-313.0"/>
      <point x="1058.0" y="-29.0" type="curve" smooth="yes"/>
      <point x="1058.0" y="1117.0" type="line"/>
      <point x="931.6666666666666" y="1117.0" type="line"/>
      <point x="931.6666666666666" y="904.0" type="line"/>
      <point x="918.6666666666666" y="904.0" type="line"/>
      <point x="873.0" y="1004.6666666666666"/>
      <point x="780.6666666666666" y="1133.0"/>
      <point x="575.0" y="1133.0" type="curve" smooth="yes"/>
      <point x="299.0" y="1133.0"/>
      <point x="113.66666666666667" y="901.0"/>
      <point x="113.66666666666667" y="561.3333333333334" type="curve" smooth="yes"/>
      <point x="113.66666666666667" y="219.0"/>
      <point x="305.3333333333333" y="11.333333333333334"/>
      <point x="573.0" y="11.333333333333334" type="curve" smooth="yes"/>
      <point x="773.6666666666666" y="11.333333333333334"/>
      <point x="871.6666666666666" y="127.66666666666667"/>
      <point x="916.6666666666666" y="231.0" type="curve"/>
      <point x="927.6666666666666" y="231.0" type="line"/>
      <point x="927.6666666666666" y="-21.0" type="line" smooth="yes"/>
      <point x="927.6666666666666" y="-229.33333333333334"/>
      <point x="795.0" y="-326.0"/>
      <point x="597.3333333333334" y="-326.0" type="curve" smooth="yes"/>
      <point x="406.0" y="-326.0"/>
      <point x="314.0" y="-233.33333333333331"/>
      <point x="266.6666666666667" y="-148.33333333333334" type="curve"/>
      <point x="160.66666666666666" y="-218.0" type="line"/>
      <point x="226.33333333333334" y="-345.6666666666667"/>
      <point x="368.6666666666667" y="-442.0"/>
    </contour>
    <contour>
      <point x="588.3333333333334" y="130.33333333333334" type="curve" smooth="yes"/>
      <point x="366.6666666666667" y="130.33333333333334"/>
      <point x="243.0" y="307.6666666666667"/>
      <point x="243.0" y="563.3333333333334" type="curve" smooth="yes"/>
      <point x="243.0" y="815.3333333333334"/>
      <point x="364.0" y="1014.0"/>
      <point x="588.3333333333334" y="1014.0" type="curve" smooth="yes"/>
      <point x="807.6666666666666" y="1014.0"/>
      <point x="929.6666666666666" y="825.3333333333334"/>
      <point x="929.6666666666666" y="563.3333333333334" type="curve" smooth="yes"/>
      <point x="929.6666666666666" y="294.0"/>
      <point x="804.0" y="130.33333333333334"/>
    </contour>
  </outline>
</glyph>
<glyph name="h" format="2">
  <advance height="2479.0" width="1194.6666666666667"/>
  <unicode hex="0068"/>
  <anchor x="595.3333333333334" y="0.0" name="bottom"/>
  <anchor x="248.33333333333334" y="-2.0" name="cedilla"/>
  <anchor x="236.33333333333334" y="1310.0" name="cross"/>
  <anchor x="236.33333333333334" y="1676.0" name="top"/>
  <outline>
    <contour>
      <point x="300.6666666666667" y="698.3333333333334" type="line" smooth="yes"/>
      <point x="300.6666666666667" y="893.0"/>
      <point x="431.0" y="1013.0"/>
      <point x="610.3333333333334" y="1013.0" type="curve" smooth="yes"/>
      <point x="783.6666666666666" y="1013.0"/>
      <point x="893.6666666666666" y="900.0"/>
      <point x="893.6666666666666" y="715.6666666666666" type="curve" smooth="yes"/>
      <point x="893.6666666666666" y="0.0" type="line"/>
      <point x="1024.0" y="0.0" type="line"/>
      <point x="1024.0" y="723.6666666666666" type="line" smooth="yes"/>
      <point x="1024.0" y="989.6666666666666"/>
      <point x="869.6666666666666" y="1132.0"/>
      <point x="643.0" y="1132.0" type="curve" smooth="yes"/>
      <point x="474.3333333333333" y="1132.0"/>
      <point x="365.0" y="1057.3333333333333"/>
      <point x="312.0" y="942.0" type="curve"/>
      <point x="300.6666666666667" y="942.0" type="line"/>
      <point x="300.6666666666667" y="1489.0" type="line"/>
      <point x="170.66666666666666" y="1489.0" type="line"/>
      <point x="170.66666666666666" y="0.0" type="line"/>
      <point x="300.6666666666667" y="0.0" type="line"/>
    </contour>
  </outline>
</glyph>
<glyph name="k" format="2">
  <advance height="2479.0" width="1075.3333333333333"/>
  <unicode hex="006B"/>
  <anchor x="563.3333333333334" y="0.0" name="bottom"/>
  <anchor x="236.33333333333334" y="1676.0" name="top"/>
  <outline>
    <contour>
      <point x="289.0" y="421.6666666666667" type="line"/>
      <point x="475.3333333333333" y="597.6666666666666" type="line"/>
      <point x="486.3333333333333" y="599.6666666666666" type="line"/>
      <point x="1003.6666666666666" y="1117.0" type="line"/>
      <point x="840.0" y="1117.0" type="line"/>
      <point x="316.0" y="591.6666666666666" type="line"/>
      <point x="287.0" y="591.6666666666666" type="line"/>
    </contour>
    <contour>
      <point x="170.66666666666666" y="0.0" type="line"/>
      <point x="300.6666666666667" y="0.0" type="line"/>
      <point x="300.6666666666667" y="1489.0" type="line"/>
      <point x="170.66666666666666" y="1489.0" type="line"/>
    </contour>
    <contour>
      <point x="867.0" y="0.0" type="line"/>
      <point x="1032.6666666666667" y="0.0" type="line"/>
      <point x="506.3333333333333" y="663.3333333333334" type="line"/>
      <point x="413.3333333333333" y="574.3333333333334" type="line"/>
    </contour>
  </outline>
</glyph>
<glyph name="l" format="2">
  <advance height="2479.0" width="471.3333333333333"/>
  <unicode hex="006C"/>
  <anchor x="235.66666666666666" y="0.0" name="bottom"/>
  <anchor x="235.66666666666666" y="768.0" name="cross"/>
  <anchor x="441.0" y="1489.0" name="raccent"/>
  <anchor x="234.33333333333334" y="1676.0" name="top"/>
  <outline>
    <contour>
      <point x="300.6666666666667" y="1489.0" type="line"/>
      <point x="170.66666666666666" y="1489.0" type="line"/>
      <point x="170.66666666666666" y="0.0" type="line"/>
      <point x="300.6666666666667" y="0.0" type="line"/>
    </contour>
  </outline>
</glyph>
<glyph name="m" format="2">
  <advance height="2479.0" width="1757.0"/>
  <unicode hex="006D"/>
  <anchor x="878.3333333333334" y="0.0" name="bottom"/>
  <anchor x="878.3333333333334" y="1303.0" name="top"/>
  <outline>
    <contour>
      <point x="170.66666666666666" y="0.0" type="line"/>
      <point x="300.6666666666667" y="0.0" type="line"/>
      <point x="300.6666666666667" y="715.6666666666666" type="line" smooth="yes"/>
      <point x="300.6666666666667" y="889.6666666666666"/>
      <point x="416.0" y="1013.0"/>
      <point x="571.3333333333334" y="1013.0" type="curve" smooth="yes"/>
      <point x="724.0" y="1013.0"/>
      <point x="812.6666666666666" y="910.6666666666666"/>
      <point x="812.6666666666666" y="760.3333333333334" type="curve" smooth="yes"/>
      <point x="812.6666666666666" y="0.0" type="line"/>
      <point x="944.3333333333334" y="0.0" type="line"/>
      <point x="944.3333333333334" y="735.0" type="line" smooth="yes"/>
      <point x="944.3333333333334" y="895.6666666666666"/>
      <point x="1040.6666666666667" y="1013.0"/>
      <point x="1211.3333333333333" y="1013.0" type="curve" smooth="yes"/>
      <point x="1358.6666666666667" y="1013.0"/>
      <point x="1456.6666666666667" y="924.6666666666666"/>
      <point x="1456.6666666666667" y="749.0" type="curve" smooth="yes"/>
      <point x="1456.6666666666667" y="0.0" type="line"/>
      <point x="1586.3333333333333" y="0.0" type="line"/>
      <point x="1586.3333333333333" y="749.0" type="line" smooth="yes"/>
      <point x="1586.3333333333333" y="998.3333333333334"/>
      <point x="1457.3333333333333" y="1132.0"/>
      <point x="1250.0" y="1132.0" type="curve" smooth="yes"/>
      <point x="1087.0" y="1132.0"/>
      <point x="969.6666666666666" y="1052.3333333333333"/>
      <point x="919.0" y="929.3333333333334" type="curve"/>
      <point x="909.6666666666666" y="929.3333333333334" type="line"/>
      <point x="859.6666666666666" y="1055.0"/>
      <point x="762.3333333333334" y="1132.0"/>
      <point x="608.0" y="1132.0" type="curve" smooth="yes"/>
      <point x="461.6666666666667" y="1132.0"/>
      <point x="353.0" y="1061.3333333333333"/>
      <point x="308.0" y="945.6666666666666" type="curve"/>
      <point x="296.6666666666667" y="945.6666666666666" type="line"/>
      <point x="296.6666666666667" y="1117.0" type="line"/>
      <point x="170.66666666666666" y="1117.0" type="line"/>
    </contour>
  </outline>
</glyph>
<glyph name="n" format="2">
  <advance height="2479.0" width="1187.3333333333333"/>
  <unicode hex="006E"/>
  <anchor x="593.3333333333334" y="0.0" name="bottom"/>
  <anchor x="594.3333333333334" y="1303.0" name="top"/>
  <outline>
    <contour>
      <point x="300.6666666666667" y="698.3333333333334" type="line" smooth="yes"/>
      <point x="300.6666666666667" y="893.0"/>
      <point x="428.3333333333333" y="1013.0"/>
      <point x="604.3333333333334" y="1013.0" type="curve" smooth="yes"/>
      <point x="776.3333333333334" y="1013.0"/>
      <point x="886.3333333333334" y="898.0"/>
      <point x="886.3333333333334" y="715.6666666666666" type="curve" smooth="yes"/>
      <point x="886.3333333333334" y="0.0" type="line"/>
      <point x="1016.0" y="0.0" type="line"/>
      <point x="1016.0" y="723.6666666666666" type="line" smooth="yes"/>
      <point x="1016.0" y="988.3333333333334"/>
      <point x="862.3333333333334" y="1132.0"/>
      <point x="637.0" y="1132.0" type="curve" smooth="yes"/>
      <point x="473.6666666666667" y="1132.0"/>
      <point x="361.0" y="1056.0"/>
      <point x="308.0" y="942.0" type="curve"/>
      <point x="296.6666666666667" y="942.0" type="line"/>
      <point x="296.6666666666667" y="1117.0" type="line"/>
      <point x="170.66666666666666" y="1117.0" type="line"/>
      <point x="170.66666666666666" y="0.0" type="line"/>
      <point x="300.6666666666667" y="0.0" type="line"/>
    </contour>
  </outline>
</glyph>
<glyph name="o" format="2">
  <advance height="2479.0" width="1210.3333333333333"/>
  <unicode hex="006F"/>
  <anchor x="605.0" y="0.0" name="bottom"/>
  <anchor x="707.0" y="0.0" name="ogonek"/>
  <anchor x="605.0" y="1303.0" name="top"/>
  <outline>
    <contour>
      <point x="605.0" y="-23.0" type="curve" smooth="yes"/>
      <point x="894.3333333333334" y="-23.0"/>
      <point x="1096.6666666666667" y="213.33333333333334"/>
      <point x="1096.6666666666667" y="554.0" type="curve" smooth="yes"/>
      <point x="1096.6666666666667" y="896.0"/>
      <point x="894.0" y="1133.0"/>
      <point x="605.0" y="1133.0" type="curve" smooth="yes"/>
      <point x="315.3333333333333" y="1133.0"/>
      <point x="113.66666666666667" y="896.3333333333334"/>
      <point x="113.66666666666667" y="554.0" type="curve" smooth="yes"/>
      <point x="113.66666666666667" y="213.33333333333334"/>
      <point x="315.3333333333333" y="-23.0"/>
    </contour>
    <contour>
      <point x="605.0" y="95.0" type="curve" smooth="yes"/>
      <point x="372.6666666666667" y="95.0"/>
      <point x="243.0" y="303.3333333333333"/>
      <point x="243.0" y="554.0" type="curve" smooth="yes"/>
      <point x="243.0" y="803.6666666666666"/>
      <point x="373.3333333333333" y="1014.0"/>
      <point x="605.0" y="1014.0" type="curve" smooth="yes"/>
      <point x="837.3333333333334" y="1014.0"/>
      <point x="966.3333333333334" y="804.0"/>
      <point x="966.3333333333334" y="554.0" type="curve" smooth="yes"/>
      <point x="966.3333333333334" y="303.3333333333333"/>
      <point x="837.6666666666666" y="95.0"/>
    </contour>
  </outline>
</glyph>
<glyph name="p" format="2">
  <advance height="2479.0" width="1228.6666666666667"/>
  <unicode hex="0070"/>
  <anchor x="234.33333333333334" y="-419.0" name="bottom"/>
  <anchor x="1208.0" y="-498.6666666666667" name="bottom0315"/>
  <anchor x="236.33333333333334" y="-163.0" name="cross"/>
  <anchor x="647.3333333333334" y="1303.0" name="top"/>
  <outline>
    <contour>
      <point x="170.66666666666666" y="-419.0" type="line"/>
      <point x="300.6666666666667" y="-419.0" type="line"/>
      <point x="300.6666666666667" y="207.66666666666666" type="line"/>
      <point x="312.0" y="207.66666666666666" type="line"/>
      <point x="356.6666666666667" y="105.0"/>
      <point x="453.0" y="-23.0"/>
      <point x="655.3333333333334" y="-23.0" type="curve" smooth="yes"/>
      <point x="928.6666666666666" y="-23.0"/>
      <point x="1115.0" y="209.66666666666666"/>
      <point x="1115.0" y="556.0" type="curve" smooth="yes"/>
      <point x="1115.0" y="900.6666666666666"/>
      <point x="929.3333333333334" y="1133.0"/>
      <point x="653.3333333333334" y="1133.0" type="curve" smooth="yes"/>
      <point x="448.3333333333333" y="1133.0"/>
      <point x="357.6666666666667" y="1004.3333333333334"/>
      <point x="312.0" y="904.0" type="curve"/>
      <point x="296.6666666666667" y="904.0" type="line"/>
      <point x="296.6666666666667" y="1117.0" type="line"/>
      <point x="170.66666666666666" y="1117.0" type="line"/>
    </contour>
    <contour>
      <point x="298.6666666666667" y="558.0" type="curve" smooth="yes"/>
      <point x="298.6666666666667" y="825.3333333333334"/>
      <point x="421.0" y="1014.0"/>
      <point x="640.0" y="1014.0" type="curve" smooth="yes"/>
      <point x="864.3333333333334" y="1014.0"/>
      <point x="985.3333333333334" y="815.3333333333334"/>
      <point x="985.3333333333334" y="558.0" type="curve" smooth="yes"/>
      <point x="985.3333333333334" y="297.6666666666667"/>
      <point x="862.0" y="95.0"/>
      <point x="640.0" y="95.0" type="curve" smooth="yes"/>
      <point x="423.6666666666667" y="95.0"/>
      <point x="298.6666666666667" y="287.6666666666667"/>
    </contour>
  </outline>
</glyph>
<glyph name="q" format="2">
  <advance height="2479.0" width="1228.6666666666667"/>
  <unicode hex="0071"/>
  <anchor x="994.3333333333334" y="-419.0" name="bottom"/>
  <anchor x="992.3333333333334" y="-163.0" name="cross"/>
  <anchor x="581.0" y="1303.0" name="top"/>
  <outline>
    <contour>
      <point x="927.6666666666666" y="-419.0" type="line"/>
      <point x="1058.0" y="-419.0" type="line"/>
      <point x="1058.0" y="1117.0" type="line"/>
      <point x="931.6666666666666" y="1117.0" type="line"/>
      <point x="931.6666666666666" y="904.0" type="line"/>
      <point x="916.6666666666666" y="904.0" type="line"/>
      <point x="871.0" y="1004.3333333333334"/>
      <point x="780.3333333333334" y="1133.0"/>
      <point x="575.0" y="1133.0" type="curve" smooth="yes"/>
      <point x="299.0" y="1133.0"/>
      <point x="113.66666666666667" y="900.6666666666666"/>
      <point x="113.66666666666667" y="556.0" type="curve" smooth="yes"/>
      <point x="113.66666666666667" y="209.66666666666666"/>
      <point x="300.0" y="-23.0"/>
      <point x="573.0" y="-23.0" type="curve" smooth="yes"/>
      <point x="775.6666666666666" y="-23.0"/>
      <point x="871.6666666666666" y="105.0"/>
      <point x="916.6666666666666" y="207.66666666666666" type="curve"/>
      <point x="927.6666666666666" y="207.66666666666666" type="line"/>
    </contour>
    <contour>
      <point x="588.3333333333334" y="95.0" type="curve" smooth="yes"/>
      <point x="366.6666666666667" y="95.0"/>
      <point x="243.0" y="297.6666666666667"/>
      <point x="243.0" y="558.0" type="curve" smooth="yes"/>
      <point x="243.0" y="815.3333333333334"/>
      <point x="364.0" y="1014.0"/>
      <point x="588.3333333333334" y="1014.0" type="curve" smooth="yes"/>
      <point x="807.6666666666666" y="1014.0"/>
      <point x="929.6666666666666" y="825.3333333333334"/>
      <point x="929.6666666666666" y="558.0" type="curve" smooth="yes"/>
      <point x="929.6666666666666" y="287.6666666666667"/>
      <point x="805.0" y="95.0"/>
    </contour>
  </outline>
</glyph>
<glyph name="r" format="2">
  <advance height="2479.0" width="730.0"/>
  <unicode hex="0072"/>
  <anchor x="234.33333333333334" y="0.0" name="bottom"/>
  <anchor x="236.33333333333334" y="535.0" name="cross"/>
  <anchor x="424.0" y="1303.0" name="top"/>
  <outline>
    <contour>
      <point x="170.66666666666666" y="0.0" type="line"/>
      <point x="300.6666666666667" y="0.0" type="line"/>
      <point x="300.6666666666667" y="721.6666666666666" type="line" smooth="yes"/>
      <point x="300.6666666666667" y="887.0"/>
      <point x="427.6666666666667" y="1007.6666666666666"/>
      <point x="602.3333333333334" y="1007.6666666666666" type="curve" smooth="yes"/>
      <point x="636.6666666666666" y="1007.6666666666666"/>
      <point x="668.0" y="1001.6666666666666"/>
      <point x="680.0" y="999.6666666666666" type="curve"/>
      <point x="680.0" y="1132.0" type="line"/>
      <point x="662.6666666666666" y="1132.6666666666667"/>
      <point x="632.6666666666666" y="1134.0"/>
      <point x="611.6666666666666" y="1134.0" type="curve" smooth="yes"/>
      <point x="471.6666666666667" y="1134.0"/>
      <point x="351.0" y="1058.0"/>
      <point x="306.6666666666667" y="945.3333333333334" type="curve"/>
      <point x="296.6666666666667" y="945.3333333333334" type="line"/>
      <point x="296.6666666666667" y="1117.0" type="line"/>
      <point x="170.66666666666666" y="1117.0" type="line"/>
    </contour>
  </outline>
</glyph>
<glyph name="s" format="2">
  <advance height="2479.0" width="1050.3333333333333"/>
  <unicode hex="0073"/>
  <anchor x="536.3333333333334" y="0.0" name="bottom"/>
  <anchor x="533.3333333333334" y="0.0" name="cedilla"/>
  <anchor x="541.3333333333334" y="1303.0" name="top"/>
  <outline>
    <contour>
      <point x="921.0" y="871.6666666666666" type="line"/>
      <point x="867.3333333333334" y="1033.0"/>
      <point x="748.0" y="1133.0"/>
      <point x="543.3333333333334" y="1133.0" type="curve" smooth="yes"/>
      <point x="318.0" y="1133.0"/>
      <point x="154.33333333333334" y="1004.0"/>
      <point x="154.33333333333334" y="819.6666666666666" type="curve" smooth="yes"/>
      <point x="154.33333333333334" y="670.3333333333334"/>
      <point x="245.33333333333334" y="567.6666666666666"/>
      <point x="439.0" y="521.6666666666666" type="curve" smooth="yes"/>
      <point x="621.3333333333334" y="478.3333333333333" type="line" smooth="yes"/>
      <point x="744.3333333333334" y="448.3333333333333"/>
      <point x="803.6666666666666" y="386.0"/>
      <point x="803.6666666666666" y="296.0" type="curve" smooth="yes"/>
      <point x="803.6666666666666" y="180.33333333333334"/>
      <point x="691.6666666666666" y="93.0"/>
      <point x="520.3333333333334" y="93.0" type="curve" smooth="yes"/>
      <point x="368.0" y="93.0"/>
      <point x="272.6666666666667" y="161.66666666666666"/>
      <point x="241.66666666666666" y="294.6666666666667" type="curve"/>
      <point x="117.66666666666667" y="264.0" type="line"/>
      <point x="157.0" y="78.0"/>
      <point x="304.3333333333333" y="-23.0"/>
      <point x="522.3333333333334" y="-23.0" type="curve" smooth="yes"/>
      <point x="768.6666666666666" y="-23.0"/>
      <point x="938.0" y="112.66666666666667"/>
      <point x="938.0" y="301.3333333333333" type="curve" smooth="yes"/>
      <point x="938.0" y="451.3333333333333"/>
      <point x="843.6666666666666" y="550.3333333333334"/>
      <point x="656.3333333333334" y="596.3333333333334" type="curve" smooth="yes"/>
      <point x="487.6666666666667" y="638.3333333333334" type="line" smooth="yes"/>
      <point x="349.0" y="672.3333333333334"/>
      <point x="284.0" y="729.3333333333334"/>
      <point x="284.0" y="825.0" type="curve" smooth="yes"/>
      <point x="284.0" y="938.3333333333334"/>
      <point x="392.3333333333333" y="1018.0"/>
      <point x="543.3333333333334" y="1018.0" type="curve" smooth="yes"/>
      <point x="694.3333333333334" y="1018.0"/>
      <point x="767.6666666666666" y="938.3333333333334"/>
      <point x="802.6666666666666" y="838.6666666666666" type="curve"/>
    </contour>
  </outline>
</glyph>
<glyph name="t" format="2">
  <advance height="2479.0" width="734.3333333333334"/>
  <unicode hex="0074"/>
  <anchor x="503.6666666666667" y="1562.0" name="raccent"/>
  <anchor x="422.6666666666667" y="0.0" name="bottom"/>
  <anchor x="486.6666666666667" y="0.0" name="cedilla"/>
  <anchor x="310.3333333333333" y="1489.0" name="top"/>
  <outline>
    <contour>
      <point x="611.0" y="1117.0" type="line"/>
      <point x="77.66666666666667" y="1117.0" type="line"/>
      <point x="77.66666666666667" y="1005.0" type="line"/>
      <point x="611.0" y="1005.0" type="line"/>
    </contour>
    <component base="_part.t_base"/>
  </outline>
</glyph>
<glyph name="u" format="2">
  <advance height="2479.0" width="1181.3333333333333"/>
  <unicode hex="0075"/>
  <anchor x="591.3333333333334" y="0.0" name="bottom"/>
  <anchor x="1010.6666666666666" y="0.0" name="ogonek"/>
  <anchor x="591.3333333333334" y="1303.0" name="top"/>
  <outline>
    <contour>
      <point x="880.3333333333334" y="427.0" type="line" smooth="yes"/>
      <point x="880.3333333333334" y="222.0"/>
      <point x="726.3333333333334" y="111.33333333333334"/>
      <point x="575.0" y="111.33333333333334" type="curve" smooth="yes"/>
      <point x="414.3333333333333" y="111.33333333333334"/>
      <point x="300.6666666666667" y="227.0"/>
      <point x="300.6666666666667" y="401.6666666666667" type="curve" smooth="yes"/>
      <point x="300.6666666666667" y="1117.0" type="line"/>
      <point x="170.66666666666666" y="1117.0" type="line"/>
      <point x="170.66666666666666" y="393.6666666666667" type="line" smooth="yes"/>
      <point x="170.66666666666666" y="129.0"/>
      <point x="323.6666666666667" y="-15.0"/>
      <point x="538.3333333333334" y="-15.0" type="curve" smooth="yes"/>
      <point x="702.3333333333334" y="-15.0"/>
      <point x="818.3333333333334" y="71.0"/>
      <point x="870.3333333333334" y="185.0" type="curve"/>
      <point x="880.3333333333334" y="185.0" type="line"/>
      <point x="880.3333333333334" y="0.0" type="line"/>
      <point x="1010.6666666666666" y="0.0" type="line"/>
      <point x="1010.6666666666666" y="1117.0" type="line"/>
      <point x="880.3333333333334" y="1117.0" type="line"/>
    </contour>
  </outline>
</glyph>
<glyph name="w" format="2">
  <advance height="2479.0" width="1648.3333333333333"/>
  <unicode hex="0077"/>
  <anchor x="824.3333333333334" y="0.0" name="bottom"/>
  <anchor x="824.3333333333334" y="1303.0" name="top"/>
  <outline>
    <contour>
      <point x="418.6666666666667" y="0.0" type="line"/>
      <point x="552.6666666666666" y="0.0" type="line"/>
      <point x="817.3333333333334" y="915.3333333333334" type="line"/>
      <point x="831.3333333333334" y="915.3333333333334" type="line"/>
      <point x="1095.6666666666667" y="0.0" type="line"/>
      <point x="1229.6666666666667" y="0.0" type="line"/>
      <point x="1567.0" y="1117.0" type="line"/>
      <point x="1430.3333333333333" y="1117.0" type="line"/>
      <point x="1165.3333333333333" y="198.0" type="line"/>
      <point x="1156.0" y="198.0" type="line"/>
      <point x="894.0" y="1117.0" type="line"/>
      <point x="756.3333333333334" y="1117.0" type="line"/>
      <point x="492.3333333333333" y="196.0" type="line"/>
      <point x="483.0" y="196.0" type="line"/>
      <point x="218.0" y="1117.0" type="line"/>
      <point x="81.66666666666667" y="1117.0" type="line"/>
    </contour>
  </outline>
</glyph>
<glyph name="x" format="2">
  <advance height="2479.0" width="1078.0"/>
  <unicode hex="0078"/>
  <anchor x="539.3333333333334" y="0.0" name="bottom"/>
  <anchor x="539.3333333333334" y="559.0" name="cross"/>
  <anchor x="956.0" y="44.66666666666667" name="cyrtic"/>
  <anchor x="835.6666666666666" y="0.0" name="right"/>
  <anchor x="539.3333333333334" y="1303.0" name="top"/>
  <outline>
    <contour>
      <point x="251.0" y="1117.0" type="line"/>
      <point x="100.66666666666667" y="1117.0" type="line"/>
      <point x="456.0" y="559.0" type="line"/>
      <point x="100.66666666666667" y="0.0" type="line"/>
      <point x="251.0" y="0.0" type="line"/>
      <point x="539.3333333333334" y="460.6666666666667" type="line"/>
      <point x="827.0" y="0.0" type="line"/>
      <point x="977.3333333333334" y="0.0" type="line"/>
      <point x="618.0" y="559.0" type="line"/>
      <point x="977.3333333333334" y="1117.0" type="line"/>
      <point x="827.0" y="1117.0" type="line"/>
      <point x="539.3333333333334" y="640.3333333333334" type="line"/>
    </contour>
  </outline>
</glyph>
<glyph name="y" format="2">
  <advance height="2479.0" width="1117.0"/>
  <unicode hex="0079"/>
  <anchor x="811.0" y="-61.33333333333333" name="bottom"/>
  <anchor x="668.6666666666666" y="-419.0" name="ogonek"/>
  <anchor x="558.3333333333334" y="1303.0" name="top"/>
  <outline>
    <contour>
      <point x="261.6666666666667" y="-419.0" type="curve" smooth="yes"/>
      <point x="401.3333333333333" y="-419.0"/>
      <point x="503.3333333333333" y="-339.3333333333333"/>
      <point x="562.6666666666666" y="-176.66666666666666" type="curve" smooth="yes"/>
      <point x="1036.0" y="1117.0" type="line"/>
      <point x="894.6666666666666" y="1117.0" type="line"/>
      <point x="563.3333333333334" y="170.66666666666669" type="line"/>
      <point x="553.3333333333334" y="170.66666666666669" type="line"/>
      <point x="222.0" y="1117.0" type="line"/>
      <point x="81.66666666666667" y="1117.0" type="line"/>
      <point x="492.6666666666667" y="-10.666666666666666" type="line"/>
      <point x="451.3333333333333" y="-124.0" type="line" smooth="yes"/>
      <point x="389.3333333333333" y="-293.0"/>
      <point x="302.3333333333333" y="-323.0"/>
      <point x="171.0" y="-281.0" type="curve"/>
      <point x="136.66666666666666" y="-396.0" type="line"/>
      <point x="162.33333333333334" y="-407.6666666666667"/>
      <point x="209.66666666666666" y="-419.0"/>
    </contour>
  </outline>
</glyph>
<glyph name="z" format="2">
  <advance height="2479.0" width="1085.6666666666667"/>
  <unicode hex="007A"/>
  <anchor x="532.3333333333334" y="0.0" name="bottom"/>
  <anchor x="542.3333333333334" y="559.0" name="cross"/>
  <anchor x="542.3333333333334" y="1303.0" name="top"/>
  <outline>
    <contour>
      <point x="135.66666666666666" y="0.0" type="line"/>
      <point x="971.6666666666666" y="0.0" type="line"/>
      <point x="971.6666666666666" y="122.33333333333334" type="line"/>
      <point x="314.3333333333333" y="122.33333333333334" type="line"/>
      <point x="314.3333333333333" y="132.0" type="line"/>
      <point x="948.0" y="1010.3333333333334" type="line"/>
      <point x="948.0" y="1117.0" type="line"/>
      <point x="163.66666666666666" y="1117.0" type="line"/>
      <point x="163.66666666666666" y="995.0" type="line"/>
      <point x="781.3333333333334" y="995.0" type="line"/>
      <point x="781.3333333333334" y="985.0" type="line"/>
      <point x="135.66666666666666" y="103.0" type="line"/>
    </contour>
  </outline>
</glyph>
<glyph name="braceleft" format="2">
  <advance height="2479.0" width="710.0"/>
  <unicode hex="007B"/>
  <outline>
    <contour>
      <point x="95.33333333333333" y="618.3333333333334" type="line"/>
      <point x="369.3333333333333" y="618.6666666666666"/>
      <point x="432.6666666666667" y="709.6666666666666"/>
      <point x="432.6666666666667" y="875.0" type="curve" smooth="yes"/>
      <point x="432.6666666666667" y="1195.3333333333333" type="line" smooth="yes"/>
      <point x="432.6666666666667" y="1371.3333333333333"/>
      <point x="489.3333333333333" y="1449.0"/>
      <point x="652.6666666666666" y="1449.0" type="curve"/>
      <point x="652.6666666666666" y="1559.0" type="line"/>
      <point x="402.6666666666667" y="1559.3333333333333"/>
      <point x="312.3333333333333" y="1444.3333333333333"/>
      <point x="312.3333333333333" y="1195.3333333333333" type="curve" smooth="yes"/>
      <point x="312.3333333333333" y="913.6666666666666" type="line" smooth="yes"/>
      <point x="312.3333333333333" y="751.3333333333334"/>
      <point x="259.3333333333333" y="694.6666666666666"/>
      <point x="95.33333333333333" y="694.6666666666666" type="curve"/>
    </contour>
    <contour>
      <point x="652.6666666666666" y="-303.0" type="curve"/>
      <point x="652.6666666666666" y="-192.0" type="line"/>
      <point x="489.3333333333333" y="-192.33333333333331"/>
      <point x="432.6666666666667" y="-114.33333333333333"/>
      <point x="432.6666666666667" y="61.0" type="curve" smooth="yes"/>
      <point x="432.6666666666667" y="382.0" type="line" smooth="yes"/>
      <point x="432.6666666666667" y="546.3333333333334"/>
      <point x="369.3333333333333" y="637.3333333333334"/>
      <point x="95.33333333333333" y="638.0" type="curve"/>
      <point x="95.33333333333333" y="562.3333333333334" type="line"/>
      <point x="259.3333333333333" y="562.0"/>
      <point x="312.3333333333333" y="504.6666666666667"/>
      <point x="312.3333333333333" y="343.3333333333333" type="curve" smooth="yes"/>
      <point x="312.3333333333333" y="61.0" type="line" smooth="yes"/>
      <point x="312.3333333333333" y="-187.33333333333334"/>
      <point x="402.6666666666667" y="-303.0"/>
    </contour>
    <contour>
      <point x="95.33333333333333" y="562.3333333333334" type="line"/>
      <point x="261.6666666666667" y="562.3333333333334" type="line"/>
      <point x="261.6666666666667" y="694.6666666666666" type="line"/>
      <point x="95.33333333333333" y="694.6666666666666" type="line"/>
    </contour>
  </outline>
</glyph>
<glyph name="bar" format="2">
  <advance height="2479.0" width="632.3333333333334"/>
  <unicode hex="007C"/>
  <outline>
    <contour>
      <point x="372.3333333333333" y="1969.0" type="line"/>
      <point x="260.0" y="1969.0" type="line"/>
      <point x="260.0" y="-480.0" type="line"/>
      <point x="372.3333333333333" y="-480.0" type="line"/>
    </contour>
  </outline>
</glyph>
<glyph name="asciitilde" format="2">
  <advance height="2479.0" width="1334.3333333333333"/>
  <unicode hex="007E"/>
  <outline>
    <contour>
      <point x="176.66666666666666" y="457.6666666666667" type="curve"/>
      <point x="297.0" y="455.6666666666667" type="line"/>
      <point x="300.0" y="571.6666666666666"/>
      <point x="366.6666666666667" y="628.0"/>
      <point x="458.0" y="627.6666666666666" type="curve" smooth="yes"/>
      <point x="520.3333333333334" y="627.3333333333334"/>
      <point x="561.6666666666666" y="599.3333333333334"/>
      <point x="629.6666666666666" y="544.6666666666666" type="curve" smooth="yes"/>
      <point x="719.6666666666666" y="470.3333333333333"/>
      <point x="786.6666666666666" y="428.6666666666667"/>
      <point x="881.3333333333334" y="428.3333333333333" type="curve" smooth="yes"/>
      <point x="1021.0" y="428.0"/>
      <point x="1150.3333333333333" y="517.0"/>
      <point x="1157.6666666666667" y="715.6666666666666" type="curve"/>
      <point x="1037.6666666666667" y="719.6666666666666" type="line"/>
      <point x="1031.0" y="611.3333333333334"/>
      <point x="968.6666666666666" y="549.0"/>
      <point x="879.3333333333334" y="549.0" type="curve" smooth="yes"/>
      <point x="821.6666666666666" y="549.3333333333334"/>
      <point x="782.0" y="575.3333333333334"/>
      <point x="715.6666666666666" y="629.3333333333334" type="curve" smooth="yes"/>
      <point x="625.0" y="704.0"/>
      <point x="555.0" y="747.6666666666666"/>
      <point x="456.0" y="747.6666666666666" type="curve" smooth="yes"/>
      <point x="310.6666666666667" y="748.0"/>
      <point x="179.0" y="658.3333333333334"/>
    </contour>
  </outline>
</glyph>
<glyph name="cent" format="2">
  <advance height="2479.0" width="1139.3333333333333"/>
  <unicode hex="00A2"/>
  <anchor x="599.3333333333334" y="190.33333333333334" name="cedilla"/>
  <anchor x="599.3333333333334" y="1493.3333333333333" name="top"/>
  <outline>
    <contour>
      <point x="551.3333333333334" y="0.0" type="line"/>
      <point x="646.0" y="0.0" type="line"/>
      <point x="646.0" y="1489.0" type="line"/>
      <point x="551.3333333333334" y="1489.0" type="line"/>
    </contour>
    <component base="c" yOffset="190.33333333333334"/>
  </outline>
</glyph>
<glyph name="sterling" format="2">
  <advance height="2479.0" width="1292.0"/>
  <unicode hex="00A3"/>
  <outline>
    <contour>
      <point x="1103.6666666666667" y="0.0" type="line"/>
      <point x="1103.6666666666667" y="122.33333333333334" type="line"/>
      <point x="143.66666666666666" y="122.33333333333334" type="line"/>
      <point x="143.66666666666666" y="0.0" type="line"/>
    </contour>
    <contour>
      <point x="801.0" y="592.6666666666666" type="line"/>
      <point x="801.0" y="718.6666666666666" type="line"/>
      <point x="139.66666666666666" y="718.6666666666666" type="line"/>
      <point x="139.66666666666666" y="592.6666666666666" type="line"/>
    </contour>
    <contour>
      <point x="432.3333333333333" y="1058.3333333333333" type="line"/>
      <point x="430.3333333333333" y="1274.0"/>
      <point x="572.0" y="1387.6666666666667"/>
      <point x="733.0" y="1387.6666666666667" type="curve" smooth="yes"/>
      <point x="885.3333333333334" y="1388.0"/>
      <point x="1018.6666666666666" y="1283.0"/>
      <point x="994.0" y="1127.6666666666667" type="curve"/>
      <point x="1122.3333333333333" y="1093.0" type="line"/>
      <point x="1171.6666666666667" y="1306.0"/>
      <point x="986.3333333333334" y="1510.3333333333333"/>
      <point x="727.6666666666666" y="1510.0" type="curve" smooth="yes"/>
      <point x="499.0" y="1509.6666666666667"/>
      <point x="295.0" y="1350.6666666666667"/>
      <point x="304.3333333333333" y="1058.3333333333333" type="curve" smooth="yes"/>
      <point x="325.0" y="368.3333333333333" type="line" smooth="yes"/>
      <point x="328.3333333333333" y="265.3333333333333"/>
      <point x="301.0" y="122.33333333333334"/>
      <point x="207.66666666666666" y="122.33333333333334" type="curve"/>
      <point x="333.3333333333333" y="80.33333333333334" type="line"/>
      <point x="427.6666666666667" y="122.33333333333334"/>
      <point x="460.0" y="233.66666666666669"/>
      <point x="454.6666666666667" y="368.3333333333333" type="curve" smooth="yes"/>
    </contour>
  </outline>
</glyph>
<glyph name="currency" format="2">
  <advance height="2479.0" width="1452.3333333333333"/>
  <unicode hex="00A4"/>
  <outline>
    <contour>
      <point x="722.0" y="-20.0" type="curve" smooth="yes"/>
      <point x="1051.0" y="-20.0"/>
      <point x="1312.6666666666667" y="253.0"/>
      <point x="1312.6666666666667" y="608.0" type="curve" smooth="yes"/>
      <point x="1312.6666666666667" y="963.0"/>
      <point x="1051.0" y="1233.0"/>
      <point x="722.0" y="1233.0" type="curve" smooth="yes"/>
      <point x="394.3333333333333" y="1233.0"/>
      <point x="134.0" y="963.0"/>
      <point x="134.0" y="608.0" type="curve"/>
      <point x="134.0" y="253.0"/>
      <point x="394.3333333333333" y="-20.0"/>
    </contour>
    <contour>
      <point x="722.0" y="102.0" type="curve" smooth="yes"/>
      <point x="463.3333333333333" y="102.0"/>
      <point x="256.3333333333333" y="327.6666666666667"/>
      <point x="256.3333333333333" y="608.0" type="curve"/>
      <point x="256.3333333333333" y="890.6666666666666"/>
      <point x="463.6666666666667" y="1113.0"/>
      <point x="722.0" y="1113.0" type="curve" smooth="yes"/>
      <point x="981.0" y="1113.0"/>
      <point x="1187.6666666666667" y="890.6666666666666"/>
      <point x="1187.3333333333333" y="608.0" type="curve" smooth="yes"/>
      <point x="1186.6666666666667" y="327.6666666666667"/>
      <point x="981.6666666666666" y="102.0"/>
    </contour>
    <contour>
      <point x="1142.0" y="951.3333333333334" type="line"/>
      <point x="1335.3333333333333" y="1149.3333333333333" type="line"/>
      <point x="1246.0" y="1241.6666666666667" type="line"/>
      <point x="1053.6666666666667" y="1043.6666666666667" type="line"/>
    </contour>
    <contour>
      <point x="1246.0" y="-10.0" type="line"/>
      <point x="1335.3333333333333" y="83.0" type="line"/>
      <point x="1142.0" y="278.6666666666667" type="line"/>
      <point x="1053.6666666666667" y="188.0" type="line"/>
    </contour>
    <contour>
      <point x="202.33333333333334" y="-10.0" type="line"/>
      <point x="396.0" y="188.0" type="line"/>
      <point x="306.3333333333333" y="278.6666666666667" type="line"/>
      <point x="114.33333333333333" y="83.0" type="line"/>
    </contour>
    <contour>
      <point x="306.3333333333333" y="951.3333333333334" type="line"/>
      <point x="396.0" y="1043.6666666666667" type="line"/>
      <point x="202.33333333333334" y="1241.6666666666667" type="line"/>
      <point x="114.33333333333333" y="1149.3333333333333" type="line"/>
    </contour>
  </outline>
</glyph>
<glyph name="yen" format="2">
  <advance height="2479.0" width="1105.6666666666667"/>
  <unicode hex="00A5"/>
  <outline>
    <contour>
      <point x="185.33333333333334" y="1489.0" type="line"/>
      <point x="34.0" y="1489.0" type="line"/>
      <point x="482.6666666666667" y="615.6666666666666" type="line"/>
      <point x="593.6666666666666" y="654.3333333333334" type="line"/>
    </contour>
    <contour>
      <point x="512.0" y="654.3333333333334" type="line"/>
      <point x="622.6666666666666" y="615.6666666666666" type="line"/>
      <point x="1071.6666666666667" y="1489.0" type="line"/>
      <point x="920.3333333333334" y="1489.0" type="line"/>
    </contour>
    <contour>
      <point x="621.0" y="752.6666666666666" type="line"/>
      <point x="484.6666666666667" y="752.6666666666666" type="line"/>
      <point x="484.6666666666667" y="0.0" type="line"/>
      <point x="621.0" y="0.0" type="line"/>
    </contour>
    <contour>
      <point x="954.0" y="716.6666666666666" type="line"/>
      <point x="151.0" y="716.6666666666666" type="line"/>
      <point x="151.0" y="614.0" type="line"/>
      <point x="954.0" y="614.0" type="line"/>
    </contour>
    <contour>
      <point x="954.0" y="465.6666666666667" type="line"/>
      <point x="151.0" y="465.6666666666667" type="line"/>
      <point x="151.0" y="362.6666666666667" type="line"/>
      <point x="954.0" y="362.6666666666667" type="line"/>
    </contour>
  </outline>
</glyph>
<glyph name="brokenbar" format="2">
  <advance height="2479.0" width="490.0"/>
  <unicode hex="00A6"/>
  <outline>
    <contour>
      <point x="183.66666666666666" y="396.3333333333333" type="line"/>
      <point x="183.66666666666666" y="-279.0" type="line"/>
      <point x="306.0" y="-279.0" type="line"/>
      <point x="306.0" y="396.3333333333333" type="line"/>
    </contour>
    <contour>
      <point x="306.0" y="1489.0" type="line"/>
      <point x="183.66666666666666" y="1489.0" type="line"/>
      <point x="183.66666666666666" y="816.6666666666666" type="line"/>
      <point x="306.0" y="816.6666666666666" type="line"/>
    </contour>
  </outline>
</glyph>
<glyph name="section" format="2">
  <advance height="2479.0" width="1114.3333333333333"/>
  <unicode hex="00A7"/>
  <outline>
    <contour>
      <point x="905.6666666666666" y="1154.6666666666667" type="line"/>
      <point x="901.6666666666666" y="1362.6666666666667"/>
      <point x="767.6666666666666" y="1510.0"/>
      <point x="555.3333333333334" y="1510.0" type="curve" smooth="yes"/>
      <point x="355.0" y="1510.0"/>
      <point x="211.66666666666666" y="1376.0"/>
      <point x="211.66666666666666" y="1199.0" type="curve" smooth="yes"/>
      <point x="211.66666666666666" y="1097.3333333333333"/>
      <point x="258.6666666666667" y="1023.0"/>
      <point x="333.3333333333333" y="959.3333333333334" type="curve"/>
      <point x="333.3333333333333" y="953.3333333333334" type="line"/>
      <point x="202.66666666666666" y="933.0"/>
      <point x="114.66666666666667" y="814.6666666666666"/>
      <point x="114.66666666666667" y="700.0" type="curve" smooth="yes"/>
      <point x="114.66666666666667" y="536.3333333333334"/>
      <point x="236.33333333333334" y="443.3333333333333"/>
      <point x="370.3333333333333" y="365.3333333333333" type="curve" smooth="yes"/>
      <point x="600.0" y="232.33333333333334" type="line" smooth="yes"/>
      <point x="712.6666666666666" y="167.0"/>
      <point x="786.3333333333334" y="113.33333333333333"/>
      <point x="786.3333333333334" y="8.0" type="curve" smooth="yes"/>
      <point x="786.3333333333334" y="-117.33333333333333"/>
      <point x="677.6666666666666" y="-184.0"/>
      <point x="549.0" y="-184.0" type="curve" smooth="yes"/>
      <point x="400.6666666666667" y="-184.0"/>
      <point x="296.0" y="-94.33333333333333"/>
      <point x="292.0" y="56.333333333333336" type="curve"/>
      <point x="163.66666666666666" y="56.333333333333336" type="line"/>
      <point x="167.66666666666666" y="-164.0"/>
      <point x="327.6666666666667" y="-303.0"/>
      <point x="549.0" y="-303.0" type="curve" smooth="yes"/>
      <point x="745.0" y="-303.0"/>
      <point x="912.3333333333334" y="-198.0"/>
      <point x="912.3333333333334" y="8.0" type="curve" smooth="yes"/>
      <point x="912.3333333333334" y="102.0"/>
      <point x="877.3333333333334" y="179.33333333333334"/>
      <point x="778.3333333333334" y="255.0" type="curve"/>
      <point x="778.3333333333334" y="257.6666666666667" type="line"/>
      <point x="899.3333333333334" y="281.0"/>
      <point x="999.6666666666666" y="391.6666666666667"/>
      <point x="999.6666666666666" y="507.0" type="curve" smooth="yes"/>
      <point x="999.6666666666666" y="684.3333333333334"/>
      <point x="850.3333333333334" y="777.3333333333334"/>
      <point x="747.0" y="838.6666666666666" type="curve" smooth="yes"/>
      <point x="517.6666666666666" y="973.6666666666666" type="line" smooth="yes"/>
      <point x="430.6666666666667" y="1025.3333333333333"/>
      <point x="337.3333333333333" y="1092.6666666666667"/>
      <point x="337.3333333333333" y="1199.0" type="curve" smooth="yes"/>
      <point x="337.3333333333333" y="1295.3333333333333"/>
      <point x="413.3333333333333" y="1391.6666666666667"/>
      <point x="555.3333333333334" y="1391.6666666666667" type="curve" smooth="yes"/>
      <point x="703.0" y="1391.6666666666667"/>
      <point x="776.6666666666666" y="1289.0"/>
      <point x="779.3333333333334" y="1154.6666666666667" type="curve"/>
    </contour>
    <contour>
      <point x="877.6666666666666" y="507.0" type="curve"/>
      <point x="877.6666666666666" y="384.3333333333333"/>
      <point x="747.6666666666666" y="310.3333333333333"/>
      <point x="658.3333333333334" y="337.3333333333333" type="curve" smooth="yes"/>
      <point x="434.3333333333333" y="467.3333333333333" type="line" smooth="yes"/>
      <point x="313.3333333333333" y="538.6666666666666"/>
      <point x="236.66666666666666" y="600.3333333333334"/>
      <point x="236.66666666666666" y="702.0" type="curve" smooth="yes"/>
      <point x="236.66666666666666" y="821.0"/>
      <point x="340.3333333333333" y="907.0"/>
      <point x="444.0" y="877.6666666666666" type="curve" smooth="yes"/>
      <point x="684.3333333333334" y="737.0" type="line" smooth="yes"/>
      <point x="778.6666666666666" y="681.3333333333334"/>
      <point x="877.6666666666666" y="610.6666666666666"/>
    </contour>
  </outline>
</glyph>
<glyph name="dieresis" format="2">
  <advance height="2479.0" width="1256.6666666666667"/>
  <unicode hex="00A8"/>
  <anchor x="628.3333333333334" y="1303.0" name="_top"/>
  <anchor x="628.3333333333334" y="1676.0" name="top"/>
  <outline>
    <contour>
      <point x="442.3333333333333" y="1309.0" type="curve" smooth="yes"/>
      <point x="495.6666666666667" y="1309.0"/>
      <point x="535.3333333333334" y="1353.3333333333333"/>
      <point x="535.3333333333334" y="1402.3333333333333" type="curve" smooth="yes"/>
      <point x="535.3333333333334" y="1455.6666666666667"/>
      <point x="495.6666666666667" y="1495.3333333333333"/>
      <point x="442.3333333333333" y="1495.3333333333333" type="curve" smooth="yes"/>
      <point x="393.3333333333333" y="1495.3333333333333"/>
      <point x="349.0" y="1455.6666666666667"/>
      <point x="349.0" y="1402.3333333333333" type="curve" smooth="yes"/>
      <point x="349.0" y="1353.3333333333333"/>
      <point x="393.3333333333333" y="1309.0"/>
    </contour>
    <contour>
      <point x="815.0" y="1309.0" type="curve" smooth="yes"/>
      <point x="867.3333333333334" y="1309.0"/>
      <point x="907.6666666666666" y="1353.3333333333333"/>
      <point x="907.6666666666666" y="1402.3333333333333" type="curve" smooth="yes"/>
      <point x="907.6666666666666" y="1455.6666666666667"/>
      <point x="867.3333333333334" y="1495.3333333333333"/>
      <point x="815.0" y="1495.3333333333333" type="curve" smooth="yes"/>
      <point x="765.0" y="1495.3333333333333"/>
      <point x="721.3333333333334" y="1455.6666666666667"/>
      <point x="721.3333333333334" y="1402.3333333333333" type="curve" smooth="yes"/>
      <point x="721.3333333333334" y="1353.3333333333333"/>
      <point x="765.0" y="1309.0"/>
    </contour>
  </outline>
</glyph>
<glyph name="copyright" format="2">
  <advance height="2479.0" width="1873.0"/>
  <unicode hex="00A9"/>
  <outline>
    <contour>
      <point x="516.3333333333334" y="745.0" type="curve" smooth="yes"/>
      <point x="516.3333333333334" y="506.0"/>
      <point x="709.6666666666666" y="313.0"/>
      <point x="948.3333333333334" y="313.0" type="curve" smooth="yes"/>
      <point x="1143.6666666666667" y="313.0"/>
      <point x="1293.6666666666667" y="443.0"/>
      <point x="1330.6666666666667" y="621.0" type="curve"/>
      <point x="1195.6666666666667" y="621.0" type="line"/>
      <point x="1165.0" y="514.3333333333334"/>
      <point x="1071.6666666666667" y="440.3333333333333"/>
      <point x="948.3333333333334" y="440.3333333333333" type="curve" smooth="yes"/>
      <point x="781.0" y="440.3333333333333"/>
      <point x="644.6666666666666" y="576.6666666666666"/>
      <point x="644.6666666666666" y="745.0" type="curve" smooth="yes"/>
      <point x="644.6666666666666" y="913.0"/>
      <point x="781.0" y="1048.6666666666667"/>
      <point x="948.3333333333334" y="1048.6666666666667" type="curve" smooth="yes"/>
      <point x="1071.6666666666667" y="1048.6666666666667"/>
      <point x="1175.6666666666667" y="974.6666666666666"/>
      <point x="1205.0" y="869.0" type="curve"/>
      <point x="1340.0" y="869.0" type="line"/>
      <point x="1303.6666666666667" y="1046.0"/>
      <point x="1143.6666666666667" y="1177.0"/>
      <point x="948.3333333333334" y="1177.0" type="curve" smooth="yes"/>
      <point x="709.6666666666666" y="1177.0"/>
      <point x="516.3333333333334" y="983.0"/>
    </contour>
    <component base="whiteCircle"/>
  </outline>
</glyph>
<glyph name="ordfeminine" format="2">
  <advance height="2479.0" width="859.0"/>
  <unicode hex="00AA"/>
  <outline>
    <contour>
      <point x="575.6666666666666" y="861.0" type="line"/>
      <point x="575.0" y="809.3333333333334"/>
      <point x="583.3333333333334" y="753.6666666666666"/>
      <point x="597.6666666666666" y="708.0" type="curve"/>
      <point x="733.0" y="708.0" type="line"/>
      <point x="713.3333333333334" y="763.6666666666666"/>
      <point x="707.0" y="821.0"/>
      <point x="707.0" y="887.0" type="curve" smooth="yes"/>
      <point x="707.0" y="1201.0" type="line"/>
      <point x="706.6666666666666" y="1387.0"/>
      <point x="605.6666666666666" y="1478.0"/>
      <point x="437.0" y="1478.0" type="curve" smooth="yes"/>
      <point x="259.3333333333333" y="1478.0"/>
      <point x="144.0" y="1382.0"/>
      <point x="142.0" y="1246.0" type="curve"/>
      <point x="272.0" y="1235.3333333333333" type="line"/>
      <point x="275.3333333333333" y="1319.0"/>
      <point x="334.6666666666667" y="1363.0"/>
      <point x="437.0" y="1363.0" type="curve" smooth="yes"/>
      <point x="531.0" y="1363.0"/>
      <point x="575.0" y="1311.0"/>
      <point x="575.6666666666666" y="1201.0" type="curve"/>
    </contour>
    <contour>
      <point x="607.3333333333334" y="1143.3333333333333" type="line"/>
      <point x="453.3333333333333" y="1143.3333333333333" type="line"/>
      <point x="236.0" y="1143.3333333333333"/>
      <point x="126.66666666666667" y="1061.6666666666667"/>
      <point x="126.33333333333333" y="914.3333333333334" type="curve" smooth="yes"/>
      <point x="126.33333333333333" y="781.0"/>
      <point x="214.66666666666666" y="692.0"/>
      <point x="364.3333333333333" y="692.0" type="curve" smooth="yes"/>
      <point x="485.6666666666667" y="692.0"/>
      <point x="560.6666666666666" y="757.0"/>
      <point x="613.6666666666666" y="831.0" type="curve"/>
      <point x="596.3333333333334" y="918.6666666666666" type="line"/>
      <point x="571.3333333333334" y="860.3333333333334"/>
      <point x="476.6666666666667" y="804.3333333333334"/>
      <point x="393.6666666666667" y="805.0" type="curve" smooth="yes"/>
      <point x="304.6666666666667" y="805.3333333333334"/>
      <point x="260.0" y="848.0"/>
      <point x="260.3333333333333" y="918.3333333333334" type="curve" smooth="yes"/>
      <point x="260.0" y="996.0"/>
      <point x="321.3333333333333" y="1051.3333333333333"/>
      <point x="453.3333333333333" y="1051.3333333333333" type="curve"/>
      <point x="607.3333333333334" y="1051.3333333333333" type="line"/>
    </contour>
  </outline>
</glyph>
<glyph name="logicalnot" format="2">
  <advance height="2479.0" width="1077.6666666666667"/>
  <unicode hex="00AC"/>
  <outline>
    <contour>
      <point x="954.3333333333334" y="806.0" type="line"/>
      <point x="127.33333333333333" y="806.0" type="line"/>
      <point x="127.33333333333333" y="675.6666666666666" type="line"/>
      <point x="954.3333333333334" y="675.6666666666666" type="line"/>
    </contour>
    <contour>
      <point x="954.3333333333334" y="746.3333333333334" type="line"/>
      <point x="805.0" y="746.3333333333334" type="line"/>
      <point x="805.0" y="375.0" type="line"/>
      <point x="954.3333333333334" y="375.0" type="line"/>
    </contour>
  </outline>
</glyph>
<glyph name="registered" format="2">
  <advance height="2479.0" width="1373.0"/>
  <unicode hex="00AE"/>
  <outline>
    <contour>
      <point x="489.3333333333333" y="666.0" type="line"/>
      <point x="583.3333333333334" y="666.0" type="line"/>
      <point x="583.3333333333334" y="1129.3333333333333" type="line"/>
      <point x="718.6666666666666" y="1129.3333333333333" type="line" smooth="yes"/>
      <point x="765.0" y="1129.3333333333333"/>
      <point x="812.3333333333334" y="1102.6666666666667"/>
      <point x="812.3333333333334" y="1035.0" type="curve" smooth="yes"/>
      <point x="812.3333333333334" y="968.6666666666666"/>
      <point x="766.3333333333334" y="932.3333333333334"/>
      <point x="716.6666666666666" y="932.3333333333334" type="curve" smooth="yes"/>
      <point x="542.3333333333334" y="932.3333333333334" type="line"/>
      <point x="542.3333333333334" y="858.6666666666666" type="line"/>
      <point x="741.3333333333334" y="858.6666666666666" type="line" smooth="yes"/>
      <point x="825.3333333333334" y="858.6666666666666"/>
      <point x="913.6666666666666" y="925.3333333333334"/>
      <point x="913.6666666666666" y="1035.0" type="curve" smooth="yes"/>
      <point x="913.6666666666666" y="1144.0"/>
      <point x="827.3333333333334" y="1203.0"/>
      <point x="747.3333333333334" y="1203.0" type="curve" smooth="yes"/>
      <point x="489.3333333333333" y="1203.0" type="line"/>
    </contour>
    <contour>
      <point x="802.3333333333334" y="915.3333333333334" type="line"/>
      <point x="701.3333333333334" y="915.3333333333334" type="line"/>
      <point x="831.6666666666666" y="666.0" type="line"/>
      <point x="935.6666666666666" y="666.0" type="line"/>
    </contour>
    <contour>
      <point x="687.0" y="346.0" type="curve" smooth="yes"/>
      <point x="1008.0" y="346.0"/>
      <point x="1268.0" y="607.0"/>
      <point x="1268.0" y="928.0" type="curve" smooth="yes"/>
      <point x="1268.0" y="1249.0"/>
      <point x="1008.0" y="1510.0"/>
      <point x="687.0" y="1510.0" type="curve" smooth="yes"/>
      <point x="365.0" y="1510.0"/>
      <point x="105.0" y="1249.0"/>
      <point x="105.0" y="928.0" type="curve" smooth="yes"/>
      <point x="105.0" y="607.0"/>
      <point x="365.0" y="346.0"/>
    </contour>
    <contour>
      <point x="687.0" y="455.0" type="curve" smooth="yes"/>
      <point x="425.0" y="455.0"/>
      <point x="213.0" y="666.6666666666666"/>
      <point x="213.0" y="928.0" type="curve" smooth="yes"/>
      <point x="213.0" y="1189.3333333333333"/>
      <point x="425.0" y="1401.0"/>
      <point x="687.0" y="1401.0" type="curve" smooth="yes"/>
      <point x="948.3333333333334" y="1401.0"/>
      <point x="1160.0" y="1189.3333333333333"/>
      <point x="1160.0" y="928.0" type="curve" smooth="yes"/>
      <point x="1160.0" y="666.6666666666666"/>
      <point x="948.3333333333334" y="455.0"/>
    </contour>
  </outline>
</glyph>
<glyph name="macron" format="2">
  <advance height="2479.0" width="812.3333333333334"/>
  <unicode hex="00AF"/>
  <anchor x="406.6666666666667" y="1303.0" name="_top"/>
  <outline>
    <contour>
      <point x="710.6666666666666" y="1456.3333333333333" type="line"/>
      <point x="101.66666666666667" y="1456.3333333333333" type="line"/>
      <point x="101.66666666666667" y="1344.0" type="line"/>
      <point x="710.6666666666666" y="1344.0" type="line"/>
    </contour>
  </outline>
</glyph>
<glyph name="degree" format="2">
  <advance height="2479.0" width="931.0"/>
  <unicode hex="00B0"/>
  <outline>
    <contour>
      <point x="465.0" y="856.3333333333334" type="curve" smooth="yes"/>
      <point x="644.3333333333334" y="856.3333333333334"/>
      <point x="789.3333333333334" y="1001.3333333333334"/>
      <point x="789.3333333333334" y="1180.3333333333333" type="curve" smooth="yes"/>
      <point x="789.3333333333334" y="1359.0"/>
      <point x="644.3333333333334" y="1504.0"/>
      <point x="465.0" y="1504.0" type="curve" smooth="yes"/>
      <point x="286.6666666666667" y="1504.0"/>
      <point x="141.66666666666666" y="1359.0"/>
      <point x="141.66666666666666" y="1180.3333333333333" type="curve" smooth="yes"/>
      <point x="141.66666666666666" y="1001.3333333333334"/>
      <point x="286.6666666666667" y="856.3333333333334"/>
    </contour>
    <contour>
      <point x="465.0" y="968.3333333333334" type="curve" smooth="yes"/>
      <point x="348.6666666666667" y="968.3333333333334"/>
      <point x="253.66666666666666" y="1063.0"/>
      <point x="253.66666666666666" y="1180.3333333333333" type="curve" smooth="yes"/>
      <point x="253.66666666666666" y="1297.0"/>
      <point x="348.6666666666667" y="1391.6666666666667"/>
      <point x="465.0" y="1391.6666666666667" type="curve" smooth="yes"/>
      <point x="582.3333333333334" y="1391.6666666666667"/>
      <point x="677.0" y="1297.0"/>
      <point x="677.0" y="1180.3333333333333" type="curve" smooth="yes"/>
      <point x="677.0" y="1063.0"/>
      <point x="582.3333333333334" y="968.3333333333334"/>
    </contour>
  </outline>
</glyph>
<glyph name="plusminus" format="2">
  <advance height="2479.0" width="1334.3333333333333"/>
  <unicode hex="00B1"/>
  <outline>
    <contour>
      <point x="214.66666666666666" y="93.33333333333333" type="line"/>
      <point x="1119.6666666666667" y="93.33333333333333" type="line"/>
      <point x="1119.6666666666667" y="217.33333333333334" type="line"/>
      <point x="214.66666666666666" y="217.33333333333334" type="line"/>
    </contour>
    <contour>
      <point x="214.66666666666666" y="670.6666666666666" type="line"/>
      <point x="1119.6666666666667" y="670.6666666666666" type="line"/>
      <point x="1119.6666666666667" y="795.0" type="line"/>
      <point x="214.66666666666666" y="795.0" type="line"/>
    </contour>
    <contour>
      <point x="604.6666666666666" y="349.3333333333333" type="line"/>
      <point x="729.0" y="349.3333333333333" type="line"/>
      <point x="729.0" y="1117.0" type="line"/>
      <point x="604.6666666666666" y="1117.0" type="line"/>
    </contour>
  </outline>
</glyph>
<glyph name="twosuperior" format="2">
  <advance height="2479.0" width="855.3333333333334"/>
  <unicode hex="00B2"/>
  <anchor x="568.3333333333334" y="1211.3333333333333" name="cross"/>
  <outline>
    <contour>
      <point x="108.66666666666667" y="745.0" type="line"/>
      <point x="757.3333333333334" y="745.0" type="line"/>
      <point x="757.3333333333334" y="844.6666666666666" type="line"/>
      <point x="282.3333333333333" y="844.6666666666666" type="line"/>
      <point x="282.3333333333333" y="849.6666666666666" type="line"/>
      <point x="502.3333333333333" y="1056.6666666666667" type="line" smooth="yes"/>
      <point x="661.3333333333334" y="1204.3333333333333"/>
      <point x="723.6666666666666" y="1282.6666666666667"/>
      <point x="723.6666666666666" y="1395.6666666666667" type="curve" smooth="yes"/>
      <point x="723.6666666666666" y="1540.0"/>
      <point x="598.3333333333334" y="1649.0"/>
      <point x="419.0" y="1649.0" type="curve" smooth="yes"/>
      <point x="238.66666666666666" y="1649.0"/>
      <point x="109.66666666666667" y="1541.0"/>
      <point x="109.66666666666667" y="1384.6666666666667" type="curve"/>
      <point x="225.66666666666666" y="1384.6666666666667" type="line"/>
      <point x="225.66666666666666" y="1481.6666666666667"/>
      <point x="302.3333333333333" y="1552.3333333333333"/>
      <point x="417.0" y="1552.3333333333333" type="curve" smooth="yes"/>
      <point x="525.6666666666666" y="1552.3333333333333"/>
      <point x="606.6666666666666" y="1488.3333333333333"/>
      <point x="606.6666666666666" y="1393.6666666666667" type="curve" smooth="yes"/>
      <point x="606.6666666666666" y="1312.0"/>
      <point x="555.6666666666666" y="1253.0"/>
      <point x="442.0" y="1145.3333333333333" type="curve" smooth="yes"/>
      <point x="108.66666666666667" y="832.0" type="line"/>
    </contour>
  </outline>
</glyph>
<glyph name="threesuperior" format="2">
  <advance height="2479.0" width="867.6666666666666"/>
  <unicode hex="00B3"/>
  <outline>
    <contour>
      <point x="434.3333333333333" y="733.0" type="curve" smooth="yes"/>
      <point x="632.3333333333334" y="733.0"/>
      <point x="772.6666666666666" y="843.0"/>
      <point x="772.6666666666666" y="988.0" type="curve" smooth="yes"/>
      <point x="772.6666666666666" y="1097.0"/>
      <point x="693.6666666666666" y="1182.0"/>
      <point x="555.6666666666666" y="1204.0" type="curve"/>
      <point x="555.6666666666666" y="1210.0" type="line"/>
      <point x="661.6666666666666" y="1230.6666666666667"/>
      <point x="739.6666666666666" y="1303.0"/>
      <point x="739.6666666666666" y="1408.0" type="curve" smooth="yes"/>
      <point x="739.6666666666666" y="1547.0"/>
      <point x="614.6666666666666" y="1649.0"/>
      <point x="435.3333333333333" y="1649.0" type="curve" smooth="yes"/>
      <point x="259.0" y="1649.0"/>
      <point x="122.33333333333333" y="1547.6666666666667"/>
      <point x="120.33333333333333" y="1398.6666666666667" type="curve"/>
      <point x="235.66666666666666" y="1398.6666666666667" type="line"/>
      <point x="238.66666666666666" y="1491.3333333333333"/>
      <point x="325.6666666666667" y="1552.3333333333333"/>
      <point x="435.3333333333333" y="1552.3333333333333" type="curve" smooth="yes"/>
      <point x="546.0" y="1552.3333333333333"/>
      <point x="621.6666666666666" y="1488.3333333333333"/>
      <point x="621.6666666666666" y="1402.0" type="curve" smooth="yes"/>
      <point x="621.6666666666666" y="1308.0"/>
      <point x="530.6666666666666" y="1249.3333333333333"/>
      <point x="411.3333333333333" y="1249.3333333333333" type="curve" smooth="yes"/>
      <point x="353.6666666666667" y="1249.3333333333333" type="line"/>
      <point x="353.6666666666667" y="1156.6666666666667" type="line"/>
      <point x="411.3333333333333" y="1156.6666666666667" type="line" smooth="yes"/>
      <point x="554.6666666666666" y="1156.6666666666667"/>
      <point x="649.6666666666666" y="1090.0"/>
      <point x="649.6666666666666" y="996.0" type="curve" smooth="yes"/>
      <point x="649.6666666666666" y="903.6666666666666"/>
      <point x="560.6666666666666" y="835.0"/>
      <point x="434.3333333333333" y="835.0" type="curve" smooth="yes"/>
      <point x="315.3333333333333" y="835.0"/>
      <point x="223.0" y="895.6666666666666"/>
      <point x="221.0" y="986.3333333333334" type="curve"/>
      <point x="98.66666666666667" y="986.3333333333334" type="line"/>
      <point x="100.66666666666667" y="838.0"/>
      <point x="243.66666666666666" y="733.0"/>
    </contour>
  </outline>
</glyph>
<glyph name="micro" format="2">
  <advance height="2479.0" width="1234.3333333333333"/>
  <unicode hex="00B5"/>
  <outline>
    <contour>
      <point x="168.66666666666666" y="-423.6666666666667" type="line"/>
      <point x="299.0" y="-423.6666666666667" type="line"/>
      <point x="299.0" y="169.66666666666666" type="line"/>
      <point x="306.0" y="169.66666666666666" type="line"/>
      <point x="365.0" y="52.333333333333336"/>
      <point x="483.6666666666667" y="-15.0"/>
      <point x="617.6666666666666" y="-15.0" type="curve" smooth="yes"/>
      <point x="751.6666666666666" y="-15.0"/>
      <point x="871.0" y="52.333333333333336"/>
      <point x="929.0" y="169.66666666666666" type="curve"/>
      <point x="936.3333333333334" y="169.66666666666666" type="line"/>
      <point x="936.3333333333334" y="0.0" type="line"/>
      <point x="1066.6666666666667" y="0.0" type="line"/>
      <point x="1066.6666666666667" y="1117.0" type="line"/>
      <point x="936.3333333333334" y="1117.0" type="line"/>
      <point x="936.3333333333334" y="427.0" type="line" smooth="yes"/>
      <point x="936.3333333333334" y="241.33333333333334"/>
      <point x="807.6666666666666" y="111.33333333333334"/>
      <point x="617.6666666666666" y="111.33333333333334" type="curve" smooth="yes"/>
      <point x="427.6666666666667" y="111.33333333333334"/>
      <point x="299.0" y="240.66666666666669"/>
      <point x="299.0" y="427.0" type="curve" smooth="yes"/>
      <point x="299.0" y="1117.0" type="line"/>
      <point x="168.66666666666666" y="1117.0" type="line"/>
    </contour>
  </outline>
</glyph>
<glyph name="paragraph" format="2">
  <advance height="2479.0" width="1197.0"/>
  <unicode hex="00B6"/>
  <outline>
    <contour>
      <point x="998.6666666666666" y="1367.0" type="line"/>
      <point x="998.6666666666666" y="1489.0" type="line"/>
      <point x="611.6666666666666" y="1489.0" type="line" smooth="yes"/>
      <point x="294.6666666666667" y="1489.0"/>
      <point x="120.66666666666667" y="1289.0"/>
      <point x="120.66666666666667" y="1021.0" type="curve" smooth="yes"/>
      <point x="120.66666666666667" y="751.0"/>
      <point x="294.6666666666667" y="553.0"/>
      <point x="611.6666666666666" y="553.0" type="curve" smooth="yes"/>
      <point x="696.6666666666666" y="553.0" type="line"/>
      <point x="696.6666666666666" y="1367.0" type="line"/>
    </contour>
    <contour>
      <point x="863.0" y="0.0" type="line"/>
      <point x="998.6666666666666" y="0.0" type="line"/>
      <point x="998.6666666666666" y="1489.0" type="line"/>
      <point x="863.0" y="1489.0" type="line"/>
    </contour>
  </outline>
</glyph>
<glyph name="cedilla" format="2">
  <advance height="2479.0" width="504.3333333333333"/>
  <unicode hex="00B8"/>
  <anchor x="257.3333333333333" y="0.0" name="_cedilla"/>
  <outline>
    <contour>
      <point x="199.66666666666666" y="6.0" type="line"/>
      <point x="173.33333333333334" y="-123.33333333333333" type="line"/>
      <point x="282.0" y="-128.0"/>
      <point x="331.6666666666667" y="-154.33333333333334"/>
      <point x="332.0" y="-227.0" type="curve" smooth="yes"/>
      <point x="331.6666666666667" y="-295.3333333333333"/>
      <point x="273.0" y="-323.6666666666667"/>
      <point x="176.66666666666666" y="-325.0" type="curve"/>
      <point x="180.66666666666666" y="-415.6666666666667" type="line"/>
      <point x="357.3333333333333" y="-414.3333333333333"/>
      <point x="449.6666666666667" y="-340.6666666666667"/>
      <point x="450.0" y="-223.0" type="curve" smooth="yes"/>
      <point x="449.6666666666667" y="-117.66666666666667"/>
      <point x="382.0" y="-65.33333333333333"/>
      <point x="299.0" y="-52.0" type="curve"/>
      <point x="309.6666666666667" y="6.0" type="line"/>
    </contour>
  </outline>
</glyph>
<glyph name="onesuperior" format="2">
  <advance height="2479.0" width="613.6666666666666"/>
  <unicode hex="00B9"/>
  <outline>
    <contour>
      <point x="315.3333333333333" y="745.0" type="line"/>
      <point x="431.6666666666667" y="745.0" type="line"/>
      <point x="431.6666666666667" y="1638.0" type="line"/>
      <point x="309.6666666666667" y="1638.0" type="line"/>
      <point x="84.66666666666667" y="1489.0" type="line"/>
      <point x="84.66666666666667" y="1368.0" type="line"/>
      <point x="307.3333333333333" y="1515.3333333333333" type="line"/>
      <point x="315.3333333333333" y="1515.3333333333333" type="line"/>
    </contour>
  </outline>
</glyph>
<glyph name="ordmasculine" format="2">
  <advance height="2479.0" width="879.3333333333334"/>
  <unicode hex="00BA"/>
  <outline>
    <contour>
      <point x="104.33333333333333" y="1044.6666666666667" type="line"/>
      <point x="104.33333333333333" y="833.3333333333334"/>
      <point x="232.33333333333334" y="693.0"/>
      <point x="441.6666666666667" y="693.0" type="curve" smooth="yes"/>
      <point x="649.6666666666666" y="693.3333333333334"/>
      <point x="775.0" y="833.0"/>
      <point x="775.0" y="1044.6666666666667" type="curve"/>
      <point x="775.0" y="1125.3333333333333" type="line"/>
      <point x="775.0" y="1335.6666666666667"/>
      <point x="649.3333333333334" y="1478.0"/>
      <point x="440.3333333333333" y="1478.0" type="curve" smooth="yes"/>
      <point x="232.33333333333334" y="1478.0"/>
      <point x="104.33333333333333" y="1336.0"/>
      <point x="104.33333333333333" y="1125.3333333333333" type="curve"/>
    </contour>
    <contour>
      <point x="235.66666666666669" y="1125.3333333333333" type="line"/>
      <point x="235.66666666666669" y="1266.0"/>
      <point x="308.0" y="1364.0"/>
      <point x="440.3333333333333" y="1364.0" type="curve" smooth="yes"/>
      <point x="573.3333333333334" y="1364.0"/>
      <point x="643.6666666666666" y="1265.6666666666667"/>
      <point x="643.6666666666666" y="1125.3333333333333" type="curve"/>
      <point x="643.6666666666666" y="1044.6666666666667" type="line"/>
      <point x="643.6666666666666" y="900.6666666666666"/>
      <point x="573.6666666666666" y="804.6666666666666"/>
      <point x="441.6666666666667" y="805.0" type="curve" smooth="yes"/>
      <point x="307.6666666666667" y="805.3333333333334"/>
      <point x="235.66666666666669" y="901.6666666666666"/>
      <point x="235.66666666666669" y="1044.6666666666667" type="curve"/>
    </contour>
  </outline>
</glyph>
<glyph name="AE" format="2">
  <advance height="2479.0" width="2006.6666666666667"/>
  <unicode hex="00C6"/>
  <anchor x="1301.6666666666667" y="1676.0" name="top"/>
  <outline>
    <contour>
      <point x="57.0" y="0.0" type="line"/>
      <point x="206.33333333333334" y="0.0" type="line"/>
      <point x="869.0" y="1367.0" type="line"/>
      <point x="989.0" y="1367.0" type="line"/>
      <point x="989.0" y="0.0" type="line"/>
      <point x="1867.6666666666667" y="0.0" type="line"/>
      <point x="1867.6666666666667" y="122.33333333333334" type="line"/>
      <point x="1125.0" y="122.33333333333334" type="line"/>
      <point x="1125.0" y="684.3333333333334" type="line"/>
      <point x="1807.6666666666667" y="684.3333333333334" type="line"/>
      <point x="1807.6666666666667" y="806.6666666666666" type="line"/>
      <point x="1125.0" y="806.6666666666666" type="line"/>
      <point x="1125.0" y="1367.0" type="line"/>
      <point x="1853.0" y="1367.0" type="line"/>
      <point x="1853.0" y="1489.0" type="line"/>
      <point x="791.3333333333334" y="1489.0" type="line"/>
    </contour>
    <contour>
      <point x="365.3333333333333" y="449.0" type="line"/>
      <point x="1057.6666666666667" y="449.0" type="line"/>
      <point x="1057.6666666666667" y="571.3333333333334" type="line"/>
      <point x="365.3333333333333" y="571.3333333333334" type="line"/>
    </contour>
  </outline>
</glyph>
<glyph name="multiply" format="2">
  <advance height="2479.0" width="1334.3333333333333"/>
  <unicode hex="00D7"/>
  <outline>
    <contour>
      <point x="1035.0" y="129.0" type="line"/>
      <point x="1119.6666666666667" y="214.0" type="line"/>
      <point x="299.3333333333333" y="1034.3333333333333" type="line"/>
      <point x="214.33333333333334" y="949.6666666666666" type="line"/>
    </contour>
    <contour>
      <point x="299.3333333333333" y="129.0" type="line"/>
      <point x="1119.6666666666667" y="949.6666666666666" type="line"/>
      <point x="1035.0" y="1034.3333333333333" type="line"/>
      <point x="214.33333333333334" y="214.0" type="line"/>
    </contour>
  </outline>
</glyph>
<glyph name="Oslash" format="2">
  <advance height="2479.0" width="1549.3333333333333"/>
  <unicode hex="00D8"/>
  <anchor x="775.0" y="0.0" name="bottom"/>
  <anchor x="881.3333333333334" y="-4.0" name="ogonek"/>
  <anchor x="205.66666666666666" y="1489.0" name="tonos"/>
  <anchor x="775.0" y="1676.0" name="top"/>
  <outline>
    <contour>
      <point x="303.3333333333333" y="-52.333333333333336" type="line"/>
      <point x="1328.6666666666667" y="1480.6666666666667" type="line"/>
      <point x="1242.0" y="1540.0" type="line"/>
      <point x="217.33333333333334" y="7.0" type="line"/>
    </contour>
    <component base="O"/>
  </outline>
</glyph>
<glyph name="Thorn" format="2">
  <advance height="2479.0" width="1264.3333333333333"/>
  <unicode hex="00DE"/>
  <outline>
    <contour>
      <point x="183.33333333333334" y="1489.0" type="line"/>
      <point x="183.33333333333334" y="0.0" type="line"/>
      <point x="318.0" y="0.0" type="line"/>
      <point x="318.0" y="1489.0" type="line"/>
    </contour>
    <contour>
      <point x="247.33333333333334" y="1164.6666666666667" type="line"/>
      <point x="247.33333333333334" y="1042.3333333333333" type="line"/>
      <point x="629.3333333333334" y="1042.3333333333333" type="line" smooth="yes"/>
      <point x="847.6666666666666" y="1042.3333333333333"/>
      <point x="971.0" y="932.3333333333334"/>
      <point x="971.6666666666666" y="749.0" type="curve" smooth="yes"/>
      <point x="971.0" y="564.6666666666666"/>
      <point x="849.3333333333334" y="460.3333333333333"/>
      <point x="629.3333333333334" y="460.3333333333333" type="curve" smooth="yes"/>
      <point x="247.33333333333334" y="460.3333333333333" type="line"/>
      <point x="247.33333333333334" y="338.0" type="line"/>
      <point x="629.3333333333334" y="338.0" type="line" smooth="yes"/>
      <point x="931.3333333333334" y="338.0"/>
      <point x="1101.6666666666667" y="513.6666666666666"/>
      <point x="1101.6666666666667" y="751.3333333333334" type="curve" smooth="yes"/>
      <point x="1101.6666666666667" y="987.3333333333334"/>
      <point x="929.3333333333334" y="1164.6666666666667"/>
      <point x="629.3333333333334" y="1164.6666666666667" type="curve" smooth="yes"/>
    </contour>
  </outline>
</glyph>
<glyph name="germandbls" format="2">
  <advance height="2479.0" width="1224.3333333333333"/>
  <unicode hex="00DF"/>
  <outline>
    <contour>
      <point x="197.66666666666666" y="0.0" type="line"/>
      <point x="327.6666666666667" y="0.0" type="line"/>
      <point x="327.6666666666667" y="1108.0" type="line" smooth="yes"/>
      <point x="327.6666666666667" y="1277.6666666666667"/>
      <point x="442.6666666666667" y="1388.3333333333333"/>
      <point x="610.0" y="1387.6666666666667" type="curve" smooth="yes"/>
      <point x="777.3333333333334" y="1387.6666666666667"/>
      <point x="883.6666666666666" y="1274.0"/>
      <point x="883.6666666666666" y="1117.3333333333333" type="curve" smooth="yes"/>
      <point x="883.6666666666666" y="956.6666666666666"/>
      <point x="770.6666666666666" y="822.3333333333334"/>
      <point x="594.3333333333334" y="822.3333333333334" type="curve" smooth="yes"/>
      <point x="524.6666666666666" y="822.3333333333334" type="line"/>
      <point x="524.6666666666666" y="698.3333333333334" type="line"/>
      <point x="619.0" y="698.3333333333334" type="line" smooth="yes"/>
      <point x="831.3333333333334" y="698.3333333333334"/>
      <point x="965.0" y="577.3333333333334"/>
      <point x="965.0" y="400.3333333333333" type="curve" smooth="yes"/>
      <point x="965.0" y="237.0"/>
      <point x="847.0" y="122.33333333333334"/>
      <point x="667.0" y="122.33333333333334" type="curve" smooth="yes"/>
      <point x="518.6666666666666" y="122.33333333333334" type="line"/>
      <point x="518.6666666666666" y="0.0" type="line"/>
      <point x="661.3333333333334" y="0.0" type="line" smooth="yes"/>
      <point x="923.6666666666666" y="0.0"/>
      <point x="1094.6666666666667" y="167.66666666666666"/>
      <point x="1094.6666666666667" y="403.3333333333333" type="curve" smooth="yes"/>
      <point x="1094.6666666666667" y="607.6666666666666"/>
      <point x="965.3333333333334" y="743.0"/>
      <point x="763.3333333333334" y="772.3333333333334" type="curve"/>
      <point x="763.3333333333334" y="783.6666666666666" type="line"/>
      <point x="915.0" y="834.3333333333334"/>
      <point x="1012.6666666666666" y="960.3333333333334"/>
      <point x="1013.0" y="1134.6666666666667" type="curve" smooth="yes"/>
      <point x="1013.6666666666666" y="1364.6666666666667"/>
      <point x="842.6666666666666" y="1510.0"/>
      <point x="607.6666666666666" y="1510.0" type="curve" smooth="yes"/>
      <point x="365.3333333333333" y="1510.0"/>
      <point x="197.66666666666666" y="1357.0"/>
      <point x="197.66666666666666" y="1112.0" type="curve" smooth="yes"/>
    </contour>
  </outline>
</glyph>
<glyph name="ae" format="2">
  <advance height="2479.0" width="1892.0"/>
  <unicode hex="00E6"/>
  <anchor x="937.6666666666666" y="1303.0" name="top"/>
  <outline>
    <contour>
      <point x="1326.0" y="-23.0" type="curve"/>
      <point x="1549.3333333333333" y="-23.0"/>
      <point x="1699.6666666666667" y="97.66666666666667"/>
      <point x="1751.6666666666667" y="238.66666666666666" type="curve"/>
      <point x="1628.3333333333333" y="278.0" type="line"/>
      <point x="1585.3333333333333" y="178.33333333333334"/>
      <point x="1484.0" y="95.0"/>
      <point x="1326.0" y="95.0" type="curve" smooth="yes"/>
      <point x="1093.6666666666667" y="95.0"/>
      <point x="946.0" y="270.0"/>
      <point x="946.0" y="536.3333333333334" type="curve" smooth="yes"/>
      <point x="946.0" y="604.3333333333334" type="line" smooth="yes"/>
      <point x="948.0" y="825.3333333333334"/>
      <point x="1092.3333333333333" y="1014.0"/>
      <point x="1306.0" y="1014.0" type="curve"/>
      <point x="1505.6666666666667" y="1014.0"/>
      <point x="1647.0" y="849.6666666666666"/>
      <point x="1647.0" y="634.3333333333334" type="curve"/>
      <point x="908.6666666666666" y="634.3333333333334" type="line"/>
      <point x="908.6666666666666" y="519.6666666666666" type="line"/>
      <point x="1778.3333333333333" y="519.6666666666666" type="line"/>
      <point x="1778.3333333333333" y="583.6666666666666" type="line" smooth="yes"/>
      <point x="1778.3333333333333" y="957.0"/>
      <point x="1547.6666666666667" y="1133.0"/>
      <point x="1306.0" y="1133.0" type="curve" smooth="yes"/>
      <point x="1111.3333333333333" y="1133.0"/>
      <point x="967.3333333333334" y="1022.6666666666666"/>
      <point x="894.0" y="846.3333333333334" type="curve"/>
      <point x="868.0" y="315.0" type="line"/>
      <point x="915.6666666666666" y="114.66666666666667"/>
      <point x="1086.0" y="-23.0"/>
    </contour>
    <contour>
      <point x="500.3333333333333" y="93.0" type="curve" smooth="yes"/>
      <point x="353.6666666666667" y="93.0"/>
      <point x="245.0" y="170.66666666666666"/>
      <point x="245.0" y="306.3333333333333" type="curve" smooth="yes"/>
      <point x="245.0" y="441.0"/>
      <point x="356.0" y="498.3333333333333"/>
      <point x="544.6666666666666" y="521.3333333333334" type="curve" smooth="yes"/>
      <point x="636.0" y="532.3333333333334"/>
      <point x="799.0" y="553.0"/>
      <point x="836.6666666666666" y="589.3333333333334" type="curve"/>
      <point x="836.6666666666666" y="428.3333333333333" type="line" smooth="yes"/>
      <point x="836.6666666666666" y="245.66666666666666"/>
      <point x="707.0" y="93.0"/>
    </contour>
    <contour>
      <point x="483.0" y="-25.0" type="curve" smooth="yes"/>
      <point x="669.3333333333334" y="-25.0"/>
      <point x="844.3333333333334" y="79.66666666666667"/>
      <point x="896.0" y="252.33333333333331" type="curve"/>
      <point x="909.0" y="252.33333333333331" type="line"/>
      <point x="953.0" y="859.0" type="line"/>
      <point x="909.0" y="1066.0"/>
      <point x="725.3333333333334" y="1133.0"/>
      <point x="570.3333333333334" y="1133.0" type="curve" smooth="yes"/>
      <point x="399.6666666666667" y="1133.0"/>
      <point x="223.0" y="1064.3333333333333"/>
      <point x="147.66666666666666" y="882.6666666666666" type="curve"/>
      <point x="270.6666666666667" y="838.0" type="line"/>
      <point x="311.0" y="933.6666666666666"/>
      <point x="413.3333333333333" y="1016.0"/>
      <point x="574.3333333333334" y="1016.0" type="curve" smooth="yes"/>
      <point x="743.0" y="1016.0"/>
      <point x="836.6666666666666" y="922.3333333333334"/>
      <point x="836.6666666666666" y="769.6666666666666" type="curve" smooth="yes"/>
      <point x="836.6666666666666" y="744.0" type="line" smooth="yes"/>
      <point x="836.6666666666666" y="660.3333333333334"/>
      <point x="732.3333333333334" y="658.3333333333334"/>
      <point x="545.0" y="635.3333333333334" type="curve" smooth="yes"/>
      <point x="293.0" y="604.3333333333334"/>
      <point x="115.66666666666667" y="533.3333333333334"/>
      <point x="115.66666666666667" y="312.3333333333333" type="curve" smooth="yes"/>
      <point x="115.66666666666667" y="97.0"/>
      <point x="280.0" y="-25.0"/>
    </contour>
  </outline>
</glyph>
<glyph name="eth" format="2">
  <advance height="2479.0" width="1196.3333333333333"/>
  <unicode hex="00F0"/>
  <outline>
    <contour>
      <point x="970.6666666666666" y="1432.0" type="line"/>
      <point x="933.6666666666666" y="1518.3333333333333" type="line"/>
      <point x="346.3333333333333" y="1240.0" type="line"/>
      <point x="382.6666666666667" y="1153.6666666666667" type="line"/>
    </contour>
    <contour>
      <point x="598.0" y="-23.0" type="curve" smooth="yes"/>
      <point x="883.3333333333334" y="-23.0"/>
      <point x="1083.0" y="190.66666666666666"/>
      <point x="1082.6666666666667" y="547.3333333333334" type="curve" smooth="yes"/>
      <point x="1082.0" y="1024.3333333333333"/>
      <point x="766.3333333333334" y="1398.3333333333333"/>
      <point x="414.3333333333333" y="1583.0" type="curve"/>
      <point x="359.6666666666667" y="1485.3333333333333" type="line"/>
      <point x="687.3333333333334" y="1314.3333333333333"/>
      <point x="852.6666666666666" y="1065.6666666666667"/>
      <point x="926.3333333333334" y="845.3333333333334" type="curve"/>
      <point x="914.6666666666666" y="845.3333333333334" type="line"/>
      <point x="851.3333333333334" y="956.6666666666666"/>
      <point x="737.6666666666666" y="1052.0"/>
      <point x="569.3333333333334" y="1052.0" type="curve" smooth="yes"/>
      <point x="315.3333333333333" y="1052.0"/>
      <point x="113.66666666666667" y="827.3333333333334"/>
      <point x="113.66666666666667" y="514.3333333333334" type="curve" smooth="yes"/>
      <point x="113.66666666666667" y="205.66666666666666"/>
      <point x="309.3333333333333" y="-23.0"/>
    </contour>
    <contour>
      <point x="598.0" y="95.0" type="curve" smooth="yes"/>
      <point x="368.3333333333333" y="95.0"/>
      <point x="243.0" y="289.6666666666667"/>
      <point x="243.0" y="514.3333333333334" type="curve" smooth="yes"/>
      <point x="243.0" y="746.0"/>
      <point x="376.6666666666667" y="941.6666666666666"/>
      <point x="598.0" y="941.6666666666666" type="curve" smooth="yes"/>
      <point x="831.6666666666666" y="941.6666666666666"/>
      <point x="957.0" y="725.0"/>
      <point x="957.0" y="506.3333333333333" type="curve" smooth="yes"/>
      <point x="957.0" y="276.3333333333333"/>
      <point x="820.3333333333334" y="95.0"/>
    </contour>
  </outline>
</glyph>
<glyph name="divide" format="2">
  <advance height="2479.0" width="1334.3333333333333"/>
  <unicode hex="00F7"/>
  <outline>
    <contour>
      <point x="1117.6666666666667" y="643.6666666666666" type="line"/>
      <point x="216.0" y="643.6666666666666" type="line"/>
      <point x="216.0" y="519.6666666666666" type="line"/>
      <point x="1117.6666666666667" y="519.6666666666666" type="line"/>
    </contour>
    <contour>
      <point x="667.3333333333334" y="116.66666666666666" type="curve" smooth="yes"/>
      <point x="723.6666666666666" y="116.66666666666666"/>
      <point x="770.0" y="163.0"/>
      <point x="770.0" y="221.33333333333334" type="curve" smooth="yes"/>
      <point x="770.0" y="277.0"/>
      <point x="723.6666666666666" y="324.3333333333333"/>
      <point x="667.3333333333334" y="324.3333333333333" type="curve" smooth="yes"/>
      <point x="609.0" y="324.3333333333333"/>
      <point x="562.3333333333334" y="277.0"/>
      <point x="562.3333333333334" y="221.33333333333334" type="curve" smooth="yes"/>
      <point x="562.3333333333334" y="163.0"/>
      <point x="609.0" y="116.66666666666666"/>
    </contour>
    <contour>
      <point x="667.3333333333334" y="839.6666666666666" type="curve" smooth="yes"/>
      <point x="723.6666666666666" y="839.6666666666666"/>
      <point x="770.0" y="886.0"/>
      <point x="770.0" y="944.3333333333334" type="curve" smooth="yes"/>
      <point x="770.0" y="1001.0"/>
      <point x="723.6666666666666" y="1047.3333333333333"/>
      <point x="667.3333333333334" y="1047.3333333333333" type="curve" smooth="yes"/>
      <point x="609.0" y="1047.3333333333333"/>
      <point x="562.3333333333334" y="1001.0"/>
      <point x="562.3333333333334" y="944.3333333333334" type="curve" smooth="yes"/>
      <point x="562.3333333333334" y="886.0"/>
      <point x="609.0" y="839.6666666666666"/>
    </contour>
  </outline>
</glyph>
<glyph name="oslash" format="2">
  <advance height="2479.0" width="1210.3333333333333"/>
  <unicode hex="00F8"/>
  <anchor x="605.0" y="1.0" name="bottom"/>
  <anchor x="707.0" y="1.0" name="ogonek"/>
  <anchor x="605.0" y="1304.0" name="top"/>
  <outline>
    <contour>
      <point x="259.6666666666667" y="-50.333333333333336" type="line"/>
      <point x="1037.6666666666667" y="1102.6666666666667" type="line"/>
      <point x="950.0" y="1161.3333333333333" type="line"/>
      <point x="172.66666666666666" y="9.0" type="line"/>
    </contour>
    <component base="o" yOffset="1.0"/>
  </outline>
</glyph>
<glyph name="thorn" format="2">
  <advance height="2479.0" width="1225.3333333333333"/>
  <unicode hex="00FE"/>
  <outline>
    <contour>
      <point x="168.66666666666666" y="1489.0" type="line"/>
      <point x="168.66666666666666" y="-419.0" type="line"/>
      <point x="299.0" y="-419.0" type="line"/>
      <point x="299.0" y="281.0" type="line"/>
      <point x="264.6666666666667" y="566.3333333333334" type="line"/>
      <point x="299.0" y="797.0" type="line"/>
      <point x="299.0" y="1489.0" type="line"/>
    </contour>
    <contour>
      <point x="245.0" y="904.0" type="line"/>
      <point x="245.0" y="207.66666666666666" type="line"/>
      <point x="310.0" y="207.66666666666666" type="line"/>
      <point x="355.0" y="105.0"/>
      <point x="451.0" y="-23.0"/>
      <point x="653.6666666666666" y="-23.0" type="curve" smooth="yes"/>
      <point x="926.6666666666666" y="-23.0"/>
      <point x="1113.0" y="209.66666666666666"/>
      <point x="1113.0" y="556.0" type="curve" smooth="yes"/>
      <point x="1113.0" y="900.6666666666666"/>
      <point x="927.6666666666666" y="1133.0"/>
      <point x="651.6666666666666" y="1133.0" type="curve" smooth="yes"/>
      <point x="446.3333333333333" y="1133.0"/>
      <point x="355.6666666666667" y="1004.3333333333334"/>
      <point x="310.0" y="904.0" type="curve"/>
    </contour>
    <contour>
      <point x="983.6666666666666" y="558.0" type="curve" smooth="yes"/>
      <point x="983.6666666666666" y="297.6666666666667"/>
      <point x="860.0" y="95.0"/>
      <point x="638.3333333333334" y="95.0" type="curve" smooth="yes"/>
      <point x="421.6666666666667" y="95.0"/>
      <point x="297.0" y="287.6666666666667"/>
      <point x="297.0" y="558.0" type="curve" smooth="yes"/>
      <point x="297.0" y="825.3333333333334"/>
      <point x="419.0" y="1014.0"/>
      <point x="638.3333333333334" y="1014.0" type="curve" smooth="yes"/>
      <point x="862.6666666666666" y="1014.0"/>
      <point x="983.6666666666666" y="815.3333333333334"/>
    </contour>
  </outline>
</glyph>
<glyph name="dcroat" format="2">
  <advance height="2479.0" width="1256.3333333333333"/>
  <unicode hex="0111"/>
  <anchor x="608.6666666666666" y="0.0" name="bottom"/>
  <anchor x="993.0" y="1280.0" name="cross"/>
  <anchor x="1196.3333333333333" y="1489.0" name="raccent"/>
  <anchor x="591.3333333333334" y="1489.0" name="top"/>
  <outline>
    <contour>
      <point x="618.6666666666666" y="1228.3333333333333" type="line"/>
      <point x="1229.6666666666667" y="1228.3333333333333" type="line"/>
      <point x="1229.6666666666667" y="1332.6666666666667" type="line"/>
      <point x="618.6666666666666" y="1332.6666666666667" type="line"/>
    </contour>
    <component base="d"/>
  </outline>
</glyph>
<glyph name="Hbar" format="2">
  <advance height="2479.0" width="1568.6666666666667"/>
  <unicode hex="0126"/>
  <anchor x="784.3333333333334" y="0.0" name="bottom"/>
  <anchor x="310.6666666666667" y="-4.0" name="cedilla"/>
  <anchor x="1395.6666666666667" y="44.66666666666667" name="cyrtic"/>
  <anchor x="1344.0" y="0.0" name="right"/>
  <anchor x="192.0" y="1489.0" name="tonos"/>
  <anchor x="790.3333333333334" y="1678.0" name="top"/>
  <outline>
    <contour>
      <point x="1461.0" y="1143.0" type="line"/>
      <point x="107.66666666666667" y="1143.0" type="line"/>
      <point x="107.66666666666667" y="1027.0" type="line"/>
      <point x="1461.0" y="1027.0" type="line"/>
    </contour>
    <component base="H" xOffset="29.333333333333336"/>
  </outline>
</glyph>
<glyph name="idotless" format="2">
  <advance height="2479.0" width="475.3333333333333"/>
  <unicode hex="0131"/>
  <anchor x="238.33333333333334" y="0.0" name="bottom"/>
  <anchor x="238.33333333333334" y="589.3333333333334" name="cross"/>
  <anchor x="302.6666666666667" y="0.0" name="ogonek"/>
  <anchor x="238.33333333333334" y="1303.0" name="top"/>
  <outline>
    <contour>
      <point x="172.66666666666666" y="0.0" type="line"/>
      <point x="302.6666666666667" y="0.0" type="line"/>
      <point x="302.6666666666667" y="1117.0" type="line"/>
      <point x="172.66666666666666" y="1117.0" type="line"/>
    </contour>
  </outline>
</glyph>
<glyph name="Lslash" format="2">
  <advance height="2479.0" width="1136.3333333333333"/>
  <unicode hex="0141"/>
  <anchor x="599.3333333333334" y="0.0" name="bottom"/>
  <anchor x="244.66666666666666" y="768.0" name="cross"/>
  <anchor x="583.6666666666666" y="778.6666666666666" name="dot"/>
  <anchor x="596.3333333333334" y="1489.0" name="raccent"/>
  <anchor x="244.66666666666666" y="1676.0" name="top"/>
  <outline>
    <contour>
      <point x="591.3333333333334" y="907.6666666666666" type="line"/>
      <point x="29.333333333333336" y="722.6666666666666" type="line"/>
      <point x="29.333333333333336" y="618.3333333333334" type="line"/>
      <point x="591.3333333333334" y="804.3333333333334" type="line"/>
    </contour>
    <component base="L" xOffset="-21.333333333333332"/>
  </outline>
</glyph>
<glyph name="lslash" format="2">
  <advance height="2479.0" width="458.6666666666667"/>
  <unicode hex="0142"/>
  <anchor x="229.0" y="0.0" name="bottom"/>
  <anchor x="229.0" y="768.0" name="cross"/>
  <anchor x="434.3333333333333" y="1489.0" name="raccent"/>
  <anchor x="227.66666666666666" y="1676.0" name="top"/>
  <outline>
    <contour>
      <point x="459.3333333333333" y="912.6666666666666" type="line"/>
      <point x="-0.666666666666667" y="727.3333333333334" type="line"/>
      <point x="-0.666666666666667" y="625.0" type="line"/>
      <point x="459.3333333333333" y="810.3333333333334" type="line"/>
    </contour>
    <component base="l" xOffset="-6.666666666666666"/>
  </outline>
</glyph>
<glyph name="Eng" format="2">
  <advance height="2479.0" width="1555.6666666666667"/>
  <unicode hex="014A"/>
  <anchor x="777.6666666666666" y="0.0" name="bottom"/>
  <anchor x="1339.3333333333333" y="0.0" name="right"/>
  <anchor x="777.6666666666666" y="1676.0" name="top"/>
  <outline>
    <contour>
      <point x="1225.6666666666667" y="0.0" type="line"/>
      <point x="1225.6666666666667" y="-133.66666666666666" type="line" smooth="yes"/>
      <point x="1225.6666666666667" y="-256.6666666666667"/>
      <point x="1160.0" y="-301.6666666666667"/>
      <point x="1063.3333333333333" y="-301.6666666666667" type="curve" smooth="yes"/>
      <point x="1042.6666666666667" y="-301.6666666666667"/>
      <point x="1022.6666666666666" y="-299.0"/>
      <point x="1009.0" y="-296.0" type="curve"/>
      <point x="1009.0" y="-410.0" type="line"/>
      <point x="1031.0" y="-417.3333333333333"/>
      <point x="1063.3333333333333" y="-418.0"/>
      <point x="1094.0" y="-418.0" type="curve" smooth="yes"/>
      <point x="1245.3333333333333" y="-418.0"/>
      <point x="1357.3333333333333" y="-317.0"/>
      <point x="1357.3333333333333" y="-135.66666666666666" type="curve" smooth="yes"/>
      <point x="1357.3333333333333" y="0.0" type="line"/>
    </contour>
    <component base="N"/>
  </outline>
</glyph>
<glyph name="eng" format="2">
  <advance height="2479.0" width="1188.6666666666667"/>
  <unicode hex="014B"/>
  <anchor x="593.3333333333334" y="0.0" name="bottom"/>
  <anchor x="594.3333333333334" y="1303.0" name="top"/>
  <outline>
    <contour>
      <point x="886.3333333333334" y="0.0" type="line"/>
      <point x="886.3333333333334" y="-136.66666666666666" type="line" smooth="yes"/>
      <point x="886.3333333333334" y="-260.0"/>
      <point x="822.3333333333334" y="-304.6666666666667"/>
      <point x="726.3333333333334" y="-304.6666666666667" type="curve" smooth="yes"/>
      <point x="704.0" y="-304.6666666666667"/>
      <point x="682.0" y="-301.3333333333333"/>
      <point x="666.3333333333334" y="-298.0" type="curve"/>
      <point x="666.3333333333334" y="-408.6666666666667" type="line"/>
      <point x="689.6666666666666" y="-417.6666666666667"/>
      <point x="723.6666666666666" y="-419.0"/>
      <point x="756.6666666666666" y="-419.0" type="curve" smooth="yes"/>
      <point x="907.0" y="-419.0"/>
      <point x="1016.0" y="-318.3333333333333"/>
      <point x="1016.0" y="-136.66666666666666" type="curve" smooth="yes"/>
      <point x="1016.0" y="0.0" type="line"/>
    </contour>
    <component base="n"/>
  </outline>
</glyph>
<glyph name="OE" format="2">
  <advance height="2479.0" width="1930.6666666666667"/>
  <unicode hex="0152"/>
  <anchor x="1324.3333333333333" y="0.0" name="bottom"/>
  <anchor x="1327.3333333333333" y="0.0" name="cedilla"/>
  <anchor x="1791.6666666666667" y="0.0" name="ogonek"/>
  <anchor x="864.6666666666666" y="1489.0" name="tonos"/>
  <anchor x="1345.3333333333333" y="1676.0" name="top"/>
  <outline>
    <contour>
      <point x="775.0" y="0.0" type="curve" smooth="yes"/>
      <point x="969.3333333333334" y="0.0" type="line"/>
      <point x="969.3333333333334" y="122.33333333333334" type="line"/>
      <point x="775.0" y="122.33333333333334" type="line" smooth="yes"/>
      <point x="469.0" y="122.33333333333334"/>
      <point x="263.0" y="374.6666666666667"/>
      <point x="263.0" y="745.0" type="curve" smooth="yes"/>
      <point x="263.0" y="1119.3333333333333"/>
      <point x="470.6666666666667" y="1367.3333333333333"/>
      <point x="775.0" y="1367.0" type="curve" smooth="yes"/>
      <point x="969.3333333333334" y="1367.0" type="line"/>
      <point x="969.3333333333334" y="1489.0" type="line"/>
      <point x="775.0" y="1489.0" type="line" smooth="yes"/>
      <point x="390.6666666666667" y="1489.0"/>
      <point x="130.66666666666666" y="1191.3333333333333"/>
      <point x="130.66666666666666" y="745.0" type="curve" smooth="yes"/>
      <point x="130.66666666666666" y="301.0"/>
      <point x="390.3333333333333" y="0.0"/>
    </contour>
    <component base="E" xOffset="715.3333333333334"/>
  </outline>
</glyph>
<glyph name="tbar" format="2">
  <advance height="2479.0" width="741.0"/>
  <unicode hex="0167"/>
  <anchor x="429.3333333333333" y="0.0" name="bottom"/>
  <anchor x="493.3333333333333" y="0.0" name="cedilla"/>
  <anchor x="510.3333333333333" y="1562.0" name="raccent"/>
  <anchor x="317.0" y="1489.0" name="top"/>
  <outline>
    <contour>
      <point x="77.66666666666667" y="640.6666666666666" type="line"/>
      <point x="624.6666666666666" y="640.6666666666666" type="line"/>
      <point x="624.6666666666666" y="745.3333333333334" type="line"/>
      <point x="77.66666666666667" y="745.3333333333334" type="line"/>
    </contour>
    <component base="t" xOffset="6.666666666666666"/>
  </outline>
</glyph>
<glyph name="Bhook" format="2">
  <advance height="2479.0" width="1599.6666666666667"/>
  <unicode hex="0181"/>
  <anchor x="917.3333333333334" y="0.0" name="bottom"/>
  <anchor x="905.6666666666666" y="1676.0" name="top"/>
  <outline>
    <contour>
      <point x="512.0" y="1367.0" type="line"/>
      <point x="512.0" y="1489.0" type="line"/>
      <point x="371.6666666666667" y="1489.0" type="line" smooth="yes"/>
      <point x="201.0" y="1489.0"/>
      <point x="108.0" y="1376.0"/>
      <point x="107.66666666666667" y="1222.0" type="curve" smooth="yes"/>
      <point x="107.66666666666667" y="1138.6666666666667" type="line"/>
      <point x="236.0" y="1138.6666666666667" type="line"/>
      <point x="236.0" y="1184.0" type="line" smooth="yes"/>
      <point x="236.0" y="1291.6666666666667"/>
      <point x="259.6666666666667" y="1367.0"/>
      <point x="374.6666666666667" y="1367.0" type="curve" smooth="yes"/>
    </contour>
    <component base="B" xOffset="274.3333333333333"/>
  </outline>
</glyph>
<glyph name="btopbar" format="2">
  <advance height="2479.0" width="1255.6666666666667"/>
  <unicode hex="0183"/>
  <anchor x="680.3333333333334" y="0.0" name="bottom"/>
  <anchor x="264.0" y="1280.0" name="cross"/>
  <anchor x="679.0" y="1303.0" name="top"/>
  <outline>
    <contour>
      <point x="1004.3333333333334" y="1489.0" type="line"/>
      <point x="304.6666666666667" y="1489.0" type="line"/>
      <point x="304.6666666666667" y="1367.0" type="line"/>
      <point x="1004.3333333333334" y="1367.0" type="line"/>
    </contour>
    <component base="b"/>
  </outline>
</glyph>
<glyph name="Tonesix" format="2">
  <advance height="2479.0" width="1405.3333333333333"/>
  <unicode hex="0184"/>
  <outline>
    <contour>
      <point x="500.3333333333333" y="1489.0" type="line"/>
      <point x="18.666666666666668" y="1489.0" type="line"/>
      <point x="18.666666666666668" y="1367.0" type="line"/>
      <point x="500.3333333333333" y="1367.0" type="line"/>
    </contour>
    <contour>
      <point x="462.3333333333333" y="835.0" type="line"/>
      <point x="462.3333333333333" y="712.6666666666666" type="line"/>
      <point x="923.0" y="712.6666666666666" type="line"/>
      <point x="1133.6666666666667" y="712.6666666666666"/>
      <point x="1258.0" y="590.6666666666666"/>
      <point x="1257.6666666666667" y="430.3333333333333" type="curve"/>
      <point x="1257.3333333333333" y="258.0"/>
      <point x="1136.6666666666667" y="120.33333333333334"/>
      <point x="923.0" y="120.33333333333334" type="curve"/>
      <point x="500.3333333333333" y="120.33333333333334" type="line"/>
      <point x="500.3333333333333" y="1489.0" type="line"/>
      <point x="364.3333333333333" y="1489.0" type="line"/>
      <point x="364.3333333333333" y="0.0" type="line"/>
      <point x="923.0" y="0.0" type="line"/>
      <point x="1222.0" y="0.0"/>
      <point x="1391.6666666666667" y="171.66666666666666"/>
      <point x="1391.6666666666667" y="427.3333333333333" type="curve"/>
      <point x="1391.6666666666667" y="675.6666666666666"/>
      <point x="1220.6666666666667" y="835.0"/>
      <point x="923.0" y="835.0" type="curve"/>
    </contour>
  </outline>
</glyph>
<glyph name="tonesix" format="2">
  <advance height="2479.0" width="1168.6666666666667"/>
  <unicode hex="0185"/>
  <outline>
    <contour>
      <point x="727.3333333333334" y="-23.0" type="curve" smooth="yes"/>
      <point x="922.6666666666666" y="-23.0"/>
      <point x="1055.6666666666667" y="156.0"/>
      <point x="1055.6666666666667" y="416.3333333333333" type="curve" smooth="yes"/>
      <point x="1055.6666666666667" y="682.3333333333334"/>
      <point x="917.6666666666666" y="848.6666666666666"/>
      <point x="727.3333333333334" y="848.0" type="curve" smooth="yes"/>
      <point x="586.3333333333334" y="848.6666666666666"/>
      <point x="505.6666666666667" y="771.3333333333334"/>
      <point x="466.6666666666667" y="672.6666666666666" type="curve"/>
      <point x="461.0" y="672.6666666666666" type="line"/>
      <point x="461.0" y="1117.0" type="line"/>
      <point x="335.3333333333333" y="1117.0" type="line"/>
      <point x="335.3333333333333" y="1036.6666666666667" type="line"/>
      <point x="331.3333333333333" y="1030.6666666666667" type="line"/>
      <point x="331.3333333333333" y="0.3333333333333333" type="line"/>
      <point x="457.6666666666667" y="0.3333333333333333" type="line"/>
      <point x="457.6666666666667" y="151.33333333333334" type="line"/>
      <point x="466.6666666666667" y="151.33333333333334" type="line"/>
      <point x="509.0" y="45.666666666666664"/>
      <point x="602.3333333333334" y="-23.0"/>
    </contour>
    <contour>
      <point x="691.0" y="95.0" type="curve" smooth="yes"/>
      <point x="546.6666666666666" y="95.33333333333334"/>
      <point x="458.6666666666667" y="230.0"/>
      <point x="459.0" y="417.0" type="curve" smooth="yes"/>
      <point x="458.6666666666667" y="605.3333333333334"/>
      <point x="546.6666666666666" y="730.3333333333334"/>
      <point x="692.3333333333334" y="730.3333333333334" type="curve" smooth="yes"/>
      <point x="838.6666666666666" y="730.3333333333334"/>
      <point x="926.3333333333334" y="602.6666666666666"/>
      <point x="926.3333333333334" y="418.3333333333333" type="curve" smooth="yes"/>
      <point x="926.3333333333334" y="235.0"/>
      <point x="838.6666666666666" y="95.33333333333334"/>
    </contour>
    <contour>
      <point x="128.33333333333334" y="745.3333333333334" type="line"/>
      <point x="419.0" y="1033.3333333333333" type="line"/>
      <point x="335.3333333333333" y="1117.0" type="line"/>
      <point x="44.333333333333336" y="828.6666666666666" type="line"/>
    </contour>
  </outline>
</glyph>
<glyph name="Chook" format="2">
  <advance height="2479.0" width="1534.6666666666667"/>
  <unicode hex="0187"/>
  <anchor x="775.0" y="-8.0" name="cedilla"/>
  <anchor x="775.0" y="1676.0" name="top"/>
  <outline>
    <contour>
      <point x="1364.3333333333333" y="1024.0" type="line"/>
      <point x="1364.3333333333333" y="1230.3333333333333" type="line" smooth="yes"/>
      <point x="1364.3333333333333" y="1349.0"/>
      <point x="1422.6666666666667" y="1387.3333333333333"/>
      <point x="1515.3333333333333" y="1387.3333333333333" type="curve" smooth="yes"/>
      <point x="1533.3333333333333" y="1387.3333333333333"/>
      <point x="1551.6666666666667" y="1385.6666666666667"/>
      <point x="1564.0" y="1383.0" type="curve"/>
      <point x="1564.0" y="1495.3333333333333" type="line"/>
      <point x="1543.6666666666667" y="1502.0"/>
      <point x="1514.0" y="1502.3333333333333"/>
      <point x="1486.0" y="1502.3333333333333" type="curve" smooth="yes"/>
      <point x="1337.6666666666667" y="1502.3333333333333"/>
      <point x="1234.3333333333333" y="1407.6666666666667"/>
      <point x="1234.3333333333333" y="1230.3333333333333" type="curve" smooth="yes"/>
      <point x="1234.3333333333333" y="1024.0" type="line"/>
    </contour>
    <component base="C"/>
  </outline>
</glyph>
<glyph name="chook" format="2">
  <advance height="2479.0" width="1229.0"/>
  <unicode hex="0188"/>
  <anchor x="599.3333333333334" y="0.0" name="cedilla"/>
  <anchor x="599.3333333333334" y="1303.0" name="top"/>
  <outline>
    <contour>
      <point x="1032.6666666666667" y="785.6666666666666" type="line"/>
      <point x="1032.6666666666667" y="939.6666666666666" type="line" smooth="yes"/>
      <point x="1032.6666666666667" y="1058.0"/>
      <point x="1091.0" y="1096.6666666666667"/>
      <point x="1187.3333333333333" y="1096.6666666666667" type="curve" smooth="yes"/>
      <point x="1207.0" y="1096.6666666666667"/>
      <point x="1230.0" y="1094.0"/>
      <point x="1247.6666666666667" y="1091.0" type="curve"/>
      <point x="1247.6666666666667" y="1204.0" type="line"/>
      <point x="1222.3333333333333" y="1211.0"/>
      <point x="1188.0" y="1211.3333333333333"/>
      <point x="1158.0" y="1211.3333333333333" type="curve" smooth="yes"/>
      <point x="1007.3333333333334" y="1211.3333333333333"/>
      <point x="903.0" y="1117.6666666666667"/>
      <point x="903.0" y="939.6666666666666" type="curve" smooth="yes"/>
      <point x="903.0" y="785.6666666666666" type="line"/>
    </contour>
    <component base="c"/>
  </outline>
</glyph>
<glyph name="Dhook" format="2">
  <advance height="2479.0" width="1757.0"/>
  <unicode hex="018A"/>
  <anchor x="900.3333333333334" y="0.0" name="bottom"/>
  <anchor x="554.0" y="764.0" name="cross"/>
  <anchor x="909.6666666666666" y="1676.0" name="top"/>
  <outline>
    <contour>
      <point x="107.66666666666667" y="1138.6666666666667" type="line"/>
      <point x="236.0" y="1138.6666666666667" type="line"/>
      <point x="236.0" y="1184.0" type="line" smooth="yes"/>
      <point x="236.0" y="1291.6666666666667"/>
      <point x="259.6666666666667" y="1367.0"/>
      <point x="374.6666666666667" y="1367.0" type="curve" smooth="yes"/>
      <point x="516.6666666666666" y="1367.0" type="line"/>
      <point x="516.6666666666666" y="1489.0" type="line"/>
      <point x="371.6666666666667" y="1489.0" type="line" smooth="yes"/>
      <point x="201.0" y="1489.0"/>
      <point x="108.0" y="1376.0"/>
      <point x="107.66666666666667" y="1222.0" type="curve" smooth="yes"/>
    </contour>
    <component base="D" xOffset="288.0"/>
  </outline>
</glyph>
<glyph name="Dtopbar" format="2">
  <advance height="2479.0" width="1354.3333333333333"/>
  <unicode hex="018B"/>
  <outline>
    <contour>
      <point x="598.3333333333334" y="0.0" type="curve" smooth="yes"/>
      <point x="1156.6666666666667" y="0.0" type="line"/>
      <point x="1156.6666666666667" y="1489.0" type="line"/>
      <point x="288.3333333333333" y="1489.0" type="line"/>
      <point x="288.3333333333333" y="1367.0" type="line"/>
      <point x="1021.0" y="1367.0" type="line"/>
      <point x="1021.0" y="835.0" type="line"/>
      <point x="598.3333333333334" y="835.0" type="line" smooth="yes"/>
      <point x="301.0" y="835.0"/>
      <point x="129.66666666666666" y="675.3333333333334"/>
      <point x="129.66666666666666" y="427.3333333333333" type="curve" smooth="yes"/>
      <point x="129.66666666666666" y="172.0"/>
      <point x="299.3333333333333" y="0.0"/>
    </contour>
    <contour>
      <point x="598.3333333333334" y="120.33333333333334" type="line" smooth="yes"/>
      <point x="384.6666666666667" y="120.33333333333334"/>
      <point x="264.0" y="258.0"/>
      <point x="264.0" y="430.3333333333333" type="curve" smooth="yes"/>
      <point x="264.0" y="590.6666666666666"/>
      <point x="387.6666666666667" y="712.6666666666666"/>
      <point x="598.3333333333334" y="712.6666666666666" type="curve" smooth="yes"/>
      <point x="1021.0" y="712.6666666666666" type="line"/>
      <point x="1021.0" y="120.33333333333334" type="line"/>
    </contour>
  </outline>
</glyph>
<glyph name="deltaturned" format="2">
  <advance height="2479.0" width="1161.6666666666667"/>
  <unicode hex="018D"/>
  <outline>
    <contour>
      <point x="569.6666666666666" y="-450.0" type="curve" smooth="yes"/>
      <point x="785.3333333333334" y="-450.0"/>
      <point x="927.6666666666666" y="-340.3333333333333"/>
      <point x="927.6666666666666" y="-172.33333333333334" type="curve" smooth="yes"/>
      <point x="927.6666666666666" y="-48.333333333333336"/>
      <point x="848.0" y="53.666666666666664"/>
      <point x="704.6666666666666" y="112.0" type="curve"/>
      <point x="704.6666666666666" y="117.0" type="line"/>
      <point x="918.6666666666666" y="167.66666666666666"/>
      <point x="1048.0" y="356.6666666666667"/>
      <point x="1048.0" y="609.3333333333334" type="curve" smooth="yes"/>
      <point x="1048.0" y="908.6666666666666"/>
      <point x="869.0" y="1130.6666666666667"/>
      <point x="580.6666666666666" y="1130.6666666666667" type="curve" smooth="yes"/>
      <point x="292.0" y="1130.6666666666667"/>
      <point x="113.66666666666667" y="909.3333333333334"/>
      <point x="113.66666666666667" y="622.0" type="curve" smooth="yes"/>
      <point x="113.66666666666667" y="357.0"/>
      <point x="270.6666666666667" y="162.33333333333334"/>
      <point x="530.0" y="65.0" type="curve" smooth="yes"/>
      <point x="706.0" y="-3.0"/>
      <point x="798.3333333333334" y="-81.66666666666667"/>
      <point x="798.3333333333334" y="-173.0" type="curve" smooth="yes"/>
      <point x="798.3333333333334" y="-269.6666666666667"/>
      <point x="707.3333333333334" y="-331.6666666666667"/>
      <point x="575.0" y="-331.6666666666667" type="curve" smooth="yes"/>
      <point x="490.3333333333333" y="-331.6666666666667"/>
      <point x="390.0" y="-306.3333333333333"/>
      <point x="292.0" y="-264.3333333333333" type="curve"/>
      <point x="292.0" y="-395.3333333333333" type="line"/>
      <point x="370.3333333333333" y="-428.6666666666667"/>
      <point x="475.3333333333333" y="-450.0"/>
    </contour>
    <contour>
      <point x="572.3333333333334" y="184.66666666666666" type="curve"/>
      <point x="368.6666666666667" y="244.66666666666666"/>
      <point x="243.0" y="390.3333333333333"/>
      <point x="243.0" y="611.3333333333334" type="curve" smooth="yes"/>
      <point x="243.0" y="837.3333333333334"/>
      <point x="369.6666666666667" y="1012.3333333333334"/>
      <point x="580.0" y="1012.3333333333334" type="curve" smooth="yes"/>
      <point x="792.3333333333334" y="1012.3333333333334"/>
      <point x="918.3333333333334" y="836.6666666666666"/>
      <point x="918.3333333333334" y="598.6666666666666" type="curve" smooth="yes"/>
      <point x="918.3333333333334" y="354.0"/>
      <point x="784.6666666666666" y="197.33333333333334"/>
    </contour>
  </outline>
</glyph>
<glyph name="Schwa" format="2">
  <advance height="2479.0" width="1518.0"/>
  <unicode hex="018F"/>
  <outline>
    <contour>
      <point x="738.0" y="-20.0" type="curve" smooth="yes"/>
      <point x="1128.0" y="-20.0"/>
      <point x="1387.3333333333333" y="278.3333333333333"/>
      <point x="1387.3333333333333" y="745.0" type="curve" smooth="yes"/>
      <point x="1387.3333333333333" y="1211.6666666666667"/>
      <point x="1125.0" y="1510.0"/>
      <point x="748.0" y="1510.0" type="curve" smooth="yes"/>
      <point x="421.6666666666667" y="1510.0"/>
      <point x="198.66666666666666" y="1286.6666666666667"/>
      <point x="150.33333333333334" y="1024.0" type="curve"/>
      <point x="290.0" y="1024.0" type="line"/>
      <point x="344.0" y="1222.3333333333333"/>
      <point x="501.6666666666667" y="1381.6666666666667"/>
      <point x="748.0" y="1381.6666666666667" type="curve" smooth="yes"/>
      <point x="1037.6666666666667" y="1381.6666666666667"/>
      <point x="1256.0" y="1146.3333333333333"/>
      <point x="1256.0" y="745.0" type="curve" smooth="yes"/>
      <point x="1256.0" y="345.0"/>
      <point x="1039.3333333333333" y="107.33333333333334"/>
      <point x="738.0" y="107.33333333333334" type="curve" smooth="yes"/>
      <point x="463.6666666666667" y="107.33333333333334"/>
      <point x="271.0" y="300.0"/>
      <point x="272.6666666666667" y="612.6666666666666" type="curve"/>
      <point x="228.66666666666666" y="599.3333333333334" type="line"/>
      <point x="1326.6666666666667" y="599.3333333333334" type="line"/>
      <point x="1326.6666666666667" y="721.6666666666666" type="line"/>
      <point x="140.66666666666666" y="721.6666666666666" type="line"/>
      <point x="140.66666666666666" y="599.3333333333334" type="line" smooth="yes"/>
      <point x="140.66666666666666" y="217.66666666666666"/>
      <point x="389.6666666666667" y="-20.0"/>
    </contour>
  </outline>
</glyph>
<glyph name="Eopen" format="2">
  <advance height="2479.0" width="1257.0"/>
  <unicode hex="0190"/>
  <outline>
    <contour>
      <point x="623.6666666666666" y="-23.0" type="curve" smooth="yes"/>
      <point x="905.0" y="-23.0"/>
      <point x="1131.0" y="121.33333333333333"/>
      <point x="1141.0" y="393.3333333333333" type="curve"/>
      <point x="1009.6666666666666" y="393.3333333333333" type="line"/>
      <point x="1000.0" y="232.0"/>
      <point x="855.3333333333334" y="104.33333333333334"/>
      <point x="624.3333333333334" y="104.33333333333334" type="curve" smooth="yes"/>
      <point x="420.6666666666667" y="104.33333333333334"/>
      <point x="252.33333333333334" y="207.66666666666666"/>
      <point x="252.33333333333334" y="402.0" type="curve" smooth="yes"/>
      <point x="252.33333333333334" y="589.6666666666666"/>
      <point x="408.3333333333333" y="697.0"/>
      <point x="643.0" y="697.0" type="curve" smooth="yes"/>
      <point x="783.6666666666666" y="697.0" type="line"/>
      <point x="783.6666666666666" y="792.3333333333334" type="line"/>
      <point x="585.3333333333334" y="792.3333333333334" type="line"/>
      <point x="291.6666666666667" y="773.6666666666666"/>
      <point x="120.0" y="633.6666666666666"/>
      <point x="120.0" y="394.0" type="curve" smooth="yes"/>
      <point x="120.0" y="118.33333333333333"/>
      <point x="346.0" y="-23.0"/>
    </contour>
    <contour>
      <point x="588.6666666666666" y="729.6666666666666" type="curve"/>
      <point x="783.6666666666666" y="729.6666666666666" type="line"/>
      <point x="783.6666666666666" y="825.0" type="line"/>
      <point x="643.0" y="825.0" type="line" smooth="yes"/>
      <point x="411.0" y="825.0"/>
      <point x="281.3333333333333" y="952.3333333333334"/>
      <point x="281.3333333333333" y="1109.0" type="curve" smooth="yes"/>
      <point x="281.3333333333333" y="1269.0"/>
      <point x="417.6666666666667" y="1381.6666666666667"/>
      <point x="626.6666666666666" y="1381.6666666666667" type="curve" smooth="yes"/>
      <point x="832.3333333333334" y="1381.6666666666667"/>
      <point x="966.0" y="1270.3333333333333"/>
      <point x="975.6666666666666" y="1111.0" type="curve"/>
      <point x="1111.3333333333333" y="1111.0" type="line"/>
      <point x="1101.6666666666667" y="1353.0"/>
      <point x="913.0" y="1510.0"/>
      <point x="632.6666666666666" y="1510.0" type="curve" smooth="yes"/>
      <point x="351.3333333333333" y="1510.0"/>
      <point x="145.66666666666666" y="1355.0"/>
      <point x="145.66666666666666" y="1113.0" type="curve" smooth="yes"/>
      <point x="145.66666666666666" y="891.6666666666666"/>
      <point x="319.0" y="747.0"/>
    </contour>
  </outline>
</glyph>
